<svg xmlns="http://www.w3.org/2000/svg" xmlns:xlink="http://www.w3.org/1999/xlink" width="64" height="62" viewBox="0 0 64 62">
  <defs>
    <clipPath id="clip-path">
      <path id="Path_647" data-name="Path 647" d="M709,133v52h41v-1a2.006,2.006,0,0,1-2-2V149a2.006,2.006,0,0,1,2-2h6V133Z" transform="translate(-709 -133)" fill="none"/>
    </clipPath>
  </defs>
  <g id="Group_532" data-name="Group 532" transform="translate(-709 -133)">
    <g id="Group_504" data-name="Group 504" transform="translate(709 133)">
      <g id="Group_503" data-name="Group 503" clip-path="url(#clip-path)">
        <g id="Group_502" data-name="Group 502">
          <g id="Group_493" data-name="Group 493">
            <g id="Group_485" data-name="Group 485" transform="translate(0 8)">
              <rect id="Rectangle_267" data-name="Rectangle 267" width="47" height="44" fill="#e3e3e3"/>
            </g>
            <g id="Group_486" data-name="Group 486">
              <rect id="Rectangle_268" data-name="Rectangle 268" width="47" height="8" fill="#16c79e"/>
            </g>
            <g id="Group_491" data-name="Group 491" transform="translate(3 3)">
              <g id="Group_487" data-name="Group 487">
                <rect id="Rectangle_269" data-name="Rectangle 269" width="2" height="2" fill="#24356d"/>
              </g>
              <g id="Group_488" data-name="Group 488" transform="translate(4)">
                <rect id="Rectangle_270" data-name="Rectangle 270" width="2" height="2" fill="#24356d"/>
              </g>
              <g id="Group_489" data-name="Group 489" transform="translate(8)">
                <rect id="Rectangle_271" data-name="Rectangle 271" width="2" height="2" fill="#24356d"/>
              </g>
              <g id="Group_490" data-name="Group 490" transform="translate(13)">
                <rect id="Rectangle_272" data-name="Rectangle 272" width="28" height="2" fill="#fff"/>
              </g>
            </g>
            <g id="Group_492" data-name="Group 492" transform="translate(3 11)">
              <rect id="Rectangle_273" data-name="Rectangle 273" width="41" height="38" fill="#fff"/>
            </g>
          </g>
          <g id="Group_501" data-name="Group 501" transform="translate(5 13)">
            <g id="Group_494" data-name="Group 494">
              <rect id="Rectangle_274" data-name="Rectangle 274" width="37" height="6" fill="#3080e8"/>
            </g>
            <g id="Group_495" data-name="Group 495" transform="translate(0 8)">
              <rect id="Rectangle_275" data-name="Rectangle 275" width="11" height="12" fill="#3080e8"/>
            </g>
            <g id="Group_496" data-name="Group 496" transform="translate(13 8)">
              <rect id="Rectangle_276" data-name="Rectangle 276" width="11" height="12" fill="#3080e8"/>
            </g>
            <g id="Group_497" data-name="Group 497" transform="translate(26 8)">
              <rect id="Rectangle_277" data-name="Rectangle 277" width="11" height="12" fill="#e24152"/>
            </g>
            <g id="Group_498" data-name="Group 498" transform="translate(0 22)">
              <rect id="Rectangle_278" data-name="Rectangle 278" width="11" height="12" fill="#e24152"/>
            </g>
            <g id="Group_499" data-name="Group 499" transform="translate(13 22)">
              <rect id="Rectangle_279" data-name="Rectangle 279" width="11" height="12" fill="#3080e8"/>
            </g>
            <g id="Group_500" data-name="Group 500" transform="translate(26 22)">
              <rect id="Rectangle_280" data-name="Rectangle 280" width="11" height="12" fill="#3080e8"/>
            </g>
          </g>
        </g>
      </g>
    </g>
    <g id="Group_513" data-name="Group 513" transform="translate(747 146)">
      <g id="Group_505" data-name="Group 505">
        <path id="Path_648" data-name="Path 648" d="M770,185H750a3,3,0,0,1-3-3V149a3,3,0,0,1,3-3h20a3,3,0,0,1,3,3v33A3,3,0,0,1,770,185Zm-20-37a1,1,0,0,0-1,1v33a1,1,0,0,0,1,1h20a1,1,0,0,0,1-1V149a1,1,0,0,0-1-1Z" transform="translate(-747 -146)" fill="#24356d"/>
      </g>
      <g id="Group_506" data-name="Group 506" transform="translate(11 4)">
        <rect id="Rectangle_281" data-name="Rectangle 281" width="4" height="2" fill="#24356d"/>
      </g>
      <g id="Group_512" data-name="Group 512" transform="translate(4 8)">
        <g id="Group_507" data-name="Group 507">
          <rect id="Rectangle_282" data-name="Rectangle 282" width="18" height="6" fill="#3080e8"/>
        </g>
        <g id="Group_508" data-name="Group 508" transform="translate(0 8)">
          <rect id="Rectangle_283" data-name="Rectangle 283" width="8" height="8" fill="#3080e8"/>
        </g>
        <g id="Group_509" data-name="Group 509" transform="translate(10 8)">
          <rect id="Rectangle_284" data-name="Rectangle 284" width="8" height="8" fill="#3080e8"/>
        </g>
        <g id="Group_510" data-name="Group 510" transform="translate(0 18)">
          <rect id="Rectangle_285" data-name="Rectangle 285" width="8" height="8" fill="#e24152"/>
        </g>
        <g id="Group_511" data-name="Group 511" transform="translate(10 18)">
          <rect id="Rectangle_286" data-name="Rectangle 286" width="8" height="8" fill="#e24152"/>
        </g>
      </g>
    </g>
    <g id="Group_531" data-name="Group 531" transform="translate(709 187)">
      <g id="Group_514" data-name="Group 514">
        <path id="Path_649" data-name="Path 649" d="M709,187v8h64v-8" transform="translate(-709 -187)" fill="#16c79e"/>
      </g>
      <g id="Group_530" data-name="Group 530" transform="translate(2)">
        <g id="Group_515" data-name="Group 515">
          <rect id="Rectangle_287" data-name="Rectangle 287" width="2" height="2" fill="#24356d"/>
        </g>
        <g id="Group_516" data-name="Group 516" transform="translate(4)">
          <rect id="Rectangle_288" data-name="Rectangle 288" width="2" height="2" fill="#24356d"/>
        </g>
        <g id="Group_517" data-name="Group 517" transform="translate(8)">
          <rect id="Rectangle_289" data-name="Rectangle 289" width="2" height="2" fill="#24356d"/>
        </g>
        <g id="Group_518" data-name="Group 518" transform="translate(12)">
          <rect id="Rectangle_290" data-name="Rectangle 290" width="2" height="2" fill="#24356d"/>
        </g>
        <g id="Group_519" data-name="Group 519" transform="translate(16)">
          <rect id="Rectangle_291" data-name="Rectangle 291" width="2" height="2" fill="#24356d"/>
        </g>
        <g id="Group_520" data-name="Group 520" transform="translate(20)">
          <rect id="Rectangle_292" data-name="Rectangle 292" width="2" height="2" fill="#24356d"/>
        </g>
        <g id="Group_521" data-name="Group 521" transform="translate(24)">
          <rect id="Rectangle_293" data-name="Rectangle 293" width="2" height="2" fill="#24356d"/>
        </g>
        <g id="Group_522" data-name="Group 522" transform="translate(28)">
          <rect id="Rectangle_294" data-name="Rectangle 294" width="2" height="2" fill="#24356d"/>
        </g>
        <g id="Group_523" data-name="Group 523" transform="translate(32)">
          <rect id="Rectangle_295" data-name="Rectangle 295" width="2" height="2" fill="#24356d"/>
        </g>
        <g id="Group_524" data-name="Group 524" transform="translate(36)">
          <rect id="Rectangle_296" data-name="Rectangle 296" width="2" height="2" fill="#24356d"/>
        </g>
        <g id="Group_525" data-name="Group 525" transform="translate(40)">
          <rect id="Rectangle_297" data-name="Rectangle 297" width="2" height="2" fill="#24356d"/>
        </g>
        <g id="Group_526" data-name="Group 526" transform="translate(44)">
          <rect id="Rectangle_298" data-name="Rectangle 298" width="2" height="2" fill="#24356d"/>
        </g>
        <g id="Group_527" data-name="Group 527" transform="translate(48)">
          <rect id="Rectangle_299" data-name="Rectangle 299" width="2" height="2" fill="#24356d"/>
        </g>
        <g id="Group_528" data-name="Group 528" transform="translate(52)">
          <rect id="Rectangle_300" data-name="Rectangle 300" width="2" height="2" fill="#24356d"/>
        </g>
        <g id="Group_529" data-name="Group 529" transform="translate(57 3)">
          <rect id="Rectangle_301" data-name="Rectangle 301" width="2" height="2" fill="#24356d"/>
        </g>
      </g>
    </g>
  </g>
</svg>
