<svg xmlns="http://www.w3.org/2000/svg" width="352.921" height="106.057" viewBox="0 0 352.921 106.057">
  <path id="Path_1619" data-name="Path 1619" d="M58.519-49.484c0-12.093-6.672-21.267-23.213-21.267-18.348,0-23.908,10.7-24.464,20.711h2.78c.973-10.564,6.255-18.209,21.545-18.209,16.4,0,20.572,9.591,20.572,19.6v9.73c-5-.139-9.591-.139-17.514-.139C18.9-39.059,7.367-32.943,7.367-18.07,7.367-8.2,13.9,1.668,30.58,1.668c12.649,0,21.406-5.421,25.159-17.1A125.3,125.3,0,0,0,56.434,0h2.78a122.554,122.554,0,0,1-.695-15.568Zm-2.78,19.738c0,18.9-8.9,28.773-25.02,28.773-11.954,0-20.433-6.533-20.433-17.236,0-12.371,9.035-18.348,27.8-18.348,7.228,0,12.927,0,17.653.139ZM75.2,0h2.78V-69.083H75.2Zm2.78-91.74v-12.649H75.2V-91.74ZM166.1-25.854c-4.726,13.9-15.151,24.6-34.055,24.6-27.244,0-39.337-22.8-39.337-47.121,0-25.715,11.954-48.233,40.032-48.233,17.514,0,29.19,10.425,33.221,25.993h2.919c-4.17-17.792-17.236-28.634-36.14-28.634-29.19,0-42.951,23.213-42.951,50.874,0,27.383,13.761,49.762,42.117,49.762,23.074,0,32.8-13.9,37.113-27.244ZM184.592,0V-104.389h-2.78V0Zm62.55-49.484c0-12.093-6.672-21.267-23.213-21.267-18.348,0-23.908,10.7-24.464,20.711h2.78c.973-10.564,6.255-18.209,21.545-18.209,16.4,0,20.572,9.591,20.572,19.6v9.73c-5-.139-9.591-.139-17.514-.139-19.321,0-30.858,6.116-30.858,20.989,0,9.869,6.533,19.738,23.213,19.738,12.649,0,21.406-5.421,25.159-17.1A125.3,125.3,0,0,0,245.057,0h2.78a122.554,122.554,0,0,1-.7-15.568Zm-2.78,19.738c0,18.9-8.9,28.773-25.02,28.773-11.954,0-20.433-6.533-20.433-17.236,0-12.371,9.035-18.348,27.8-18.348,7.228,0,12.927,0,17.653.139Zm11.954,11.4c1.946,12.232,9.313,20.016,25.576,20.016,14.317,0,23.63-7.228,23.63-18.765,0-10.147-5.143-16.124-23.213-20.711-15.846-4.031-19.6-8.34-19.6-16.4,0-7.089,5.143-14.039,18.487-14.039,14.178,0,19.182,8.618,20.294,16.263h2.78c-1.112-10.425-8.757-18.765-22.935-18.765-14.734,0-21.406,8.062-21.406,16.819,0,8.9,3.892,13.9,21.267,18.487,17.792,4.726,21.406,9.73,21.406,18.626,0,8.757-6.672,15.985-20.711,15.985-13.622,0-20.433-5.838-22.8-17.514Zm54.766,0c1.946,12.232,9.313,20.016,25.576,20.016,14.317,0,23.63-7.228,23.63-18.765,0-10.147-5.143-16.124-23.213-20.711-15.846-4.031-19.6-8.34-19.6-16.4,0-7.089,5.143-14.039,18.487-14.039,14.178,0,19.182,8.618,20.294,16.263h2.78c-1.112-10.425-8.757-18.765-22.935-18.765-14.734,0-21.406,8.062-21.406,16.819,0,8.9,3.892,13.9,21.267,18.487,17.792,4.726,21.406,9.73,21.406,18.626,0,8.757-6.672,15.985-20.711,15.985-13.622,0-20.433-5.838-22.8-17.514Z" transform="translate(-7.367 104.389)" fill="#24356d"/>
</svg>
