<svg xmlns="http://www.w3.org/2000/svg" width="374.049" height="106.057" viewBox="0 0 374.049 106.057">
  <path id="Path_1608" data-name="Path 1608" d="M58.519-49.484c0-12.093-6.672-21.267-23.213-21.267-18.348,0-23.908,10.7-24.464,20.711h2.78c.973-10.564,6.255-18.209,21.545-18.209,16.4,0,20.572,9.591,20.572,19.6v9.73c-5-.139-9.591-.139-17.514-.139C18.9-39.059,7.367-32.943,7.367-18.07,7.367-8.2,13.9,1.668,30.58,1.668c12.649,0,21.406-5.421,25.159-17.1A125.3,125.3,0,0,0,56.434,0h2.78a122.554,122.554,0,0,1-.695-15.568Zm-2.78,19.738c0,18.9-8.9,28.773-25.02,28.773-11.954,0-20.433-6.533-20.433-17.236,0-12.371,9.035-18.348,27.8-18.348,7.228,0,12.927,0,17.653.139ZM75.2,0h2.78V-69.083H75.2Zm2.78-91.74v-12.649H75.2V-91.74ZM150.537-53.1H97.3V-95.354h56.017v-2.5H94.52V0h60.187l.556-2.5H97.3V-50.6h53.237Zm9.591-15.985,25.3,33.916L159.433,0h3.475c12.649-17.375,21.267-28.495,24.325-33.221h.139C190.43-29.19,198.492-18.626,211.836,0h3.753l-26.41-35.584,25.854-33.5h-3.475C198.77-52.264,190.986-42.117,187.372-37.53h-.139c-3.058-4.17-10.286-13.622-23.491-31.553Zm110.227,19.6c0-12.093-6.672-21.267-23.213-21.267-18.348,0-23.908,10.7-24.464,20.711h2.78C226.431-60.6,231.713-68.249,247-68.249c16.4,0,20.572,9.591,20.572,19.6v9.73c-5-.139-9.591-.139-17.514-.139-19.321,0-30.858,6.116-30.858,20.989,0,9.869,6.533,19.738,23.213,19.738,12.649,0,21.406-5.421,25.159-17.1A125.3,125.3,0,0,0,268.27,0h2.78a122.56,122.56,0,0,1-.695-15.568Zm-2.78,19.738c0,18.9-8.9,28.773-25.02,28.773-11.954,0-20.433-6.533-20.433-17.236,0-12.371,9.035-18.348,27.8-18.348,7.228,0,12.927,0,17.653.139ZM287.174,0h2.78V-38.225c0-18.765,9.73-29.885,23.491-29.885,13.2,0,19.321,9.591,19.321,22.8V0h2.919V-42.812c0-14.595,8.062-25.3,22.8-25.3,14.178,0,20.016,10.842,20.016,23.213V0h2.919V-45.175c0-18.07-10.286-25.576-22.657-25.576-15.707,0-21.823,10.564-23.908,16.4-2.363-9.73-9.313-16.4-20.989-16.4-15.151,0-21.545,10.147-23.908,17.931.139-5.56,0-13.9-.139-16.263h-2.78c.139,3.2.139,10.008.139,15.707Z" transform="translate(-7.367 104.389)" fill="#24356d"/>
</svg>
