<svg xmlns="http://www.w3.org/2000/svg" width="368.211" height="106.057" viewBox="0 0 368.211 106.057">
  <path id="Path_1609" data-name="Path 1609" d="M58.519-49.484c0-12.093-6.672-21.267-23.213-21.267-18.348,0-23.908,10.7-24.464,20.711h2.78c.973-10.564,6.255-18.209,21.545-18.209,16.4,0,20.572,9.591,20.572,19.6v9.73c-5-.139-9.591-.139-17.514-.139C18.9-39.059,7.367-32.943,7.367-18.07,7.367-8.2,13.9,1.668,30.58,1.668c12.649,0,21.406-5.421,25.159-17.1A125.3,125.3,0,0,0,56.434,0h2.78a122.554,122.554,0,0,1-.695-15.568Zm-2.78,19.738c0,18.9-8.9,28.773-25.02,28.773-11.954,0-20.433-6.533-20.433-17.236,0-12.371,9.035-18.348,27.8-18.348,7.228,0,12.927,0,17.653.139ZM75.2,0h2.78V-69.083H75.2Zm2.78-91.74v-12.649H75.2V-91.74ZM150.537-53.1H97.3V-95.354h56.017v-2.5H94.52V0h60.187l.556-2.5H97.3V-50.6h53.237Zm4.587-15.985L182.507,0h3.336L214.2-69.083H211.28c-3.336,7.923-24.742,59.77-26.966,66.164h-.139c-1.807-5.838-11.815-30.163-25.993-66.164ZM273.413-35.306a29.052,29.052,0,0,0,.139-3.475c0-13.2-6.672-31.97-28.078-31.97-16.958,0-28.912,13.9-28.912,36,0,17.1,7.367,36.14,28.634,36.14,14.734,0,22.657-8.062,26.827-18.9h-2.78c-4.031,9.035-10.564,16.4-24.186,16.4-15.012,0-25.715-12.649-25.715-34.194Zm-53.932-2.5c.834-17.792,10.564-30.441,25.854-30.441,17.236,0,25.576,13.761,25.576,30.441ZM285.367,0h2.78V-37.947c0-16.263,9.313-30.163,25.854-30.163,14.178,0,20.85,10.564,20.85,24.325V0h2.919V-44.063c0-20.016-11.815-26.688-23.352-26.688-16.68,0-23.769,11.537-26.271,19.043.139-8.2,0-14.178-.139-17.375h-2.78c0,1.529.139,10.008.139,16.819Zm57.268-66.581h12.927v51.569c0,12.371,3.614,16.4,12.788,16.4a16.207,16.207,0,0,0,5.7-.834v-2.5a16.909,16.909,0,0,1-5.56.7c-8.618,0-10.147-5.56-10.147-13.066V-66.581h17.236v-2.5H358.342V-92.018h-2.78v22.935H342.635Z" transform="translate(-7.367 104.389)" fill="#24356d"/>
</svg>
