<svg xmlns="http://www.w3.org/2000/svg" width="575" height="510.786" viewBox="0 0 575 510.786">
  <g id="image-group" transform="translate(-95.826 -3578)">
    <g id="Rectangle_414" data-name="Rectangle 414" transform="translate(198.326 3578)" fill="#3080e8" stroke="#3080e8" stroke-width="5">
      <rect width="370" height="510.786" rx="4" stroke="none"/>
      <rect x="2.5" y="2.5" width="365" height="505.786" rx="1.5" fill="none"/>
    </g>
    <g id="Group_796" data-name="Group 796" transform="translate(98.326 3736)">
      <path id="Path_1348" data-name="Path 1348" d="M3299.448,10900.563s10.35-166.649,73.372-166.649,68.32,172.688,122.947,177.43,43.811-161.789,85.518-152.792,43.5,82.541,64.256,87.171,28.586-50.548,43.584-50.548,22.752,25.877,50.454,25.877-6.016-105.207,40.044-95.661,19.06,117.931,89.825,192.668" transform="translate(-3299.448 -10724.777)" fill="none" stroke="#fff" stroke-linecap="round" stroke-width="5"/>
      <path id="Path_1351" data-name="Path 1351" d="M3869.448,10742.273s-10.35,166.649-73.372,166.649-68.32-172.688-122.947-177.43-43.811,161.789-85.518,152.792-43.5-82.541-64.256-87.171-28.586,50.548-43.584,50.548-22.752-25.877-50.454-25.877,6.016,105.207-40.044,95.661-19.06-117.931-89.825-192.668" transform="translate(-3299.448 -10724.778)" fill="none" stroke="#66eece" stroke-linecap="round" stroke-width="5"/>
    </g>
  </g>
</svg>
