<svg xmlns="http://www.w3.org/2000/svg" width="18" height="8.913" viewBox="0 0 18 8.913">
  <path id="arrow-icon" d="M16.874,3.343H3.834L5.29,1.9a1.1,1.1,0,0,0,0-1.575A1.133,1.133,0,0,0,3.7.327L.321,3.669A1.1,1.1,0,0,0,.1,4a.913.913,0,0,0-.039.11,1.034,1.034,0,0,0-.054.275A.775.775,0,0,0,0,4.5a1.086,1.086,0,0,0,.069.35.294.294,0,0,0,.008.03v0A1.114,1.114,0,0,0,.3,5.211c.009.01.012.024.023.034L3.7,8.587a1.134,1.134,0,0,0,1.592,0,1.1,1.1,0,0,0,0-1.575L3.834,5.571h13.04a1.114,1.114,0,1,0,0-2.228Z" transform="translate(18 8.913) rotate(180)" fill="#3080e8"/>
</svg>
