<svg xmlns="http://www.w3.org/2000/svg" xmlns:xlink="http://www.w3.org/1999/xlink" width="96" height="96" viewBox="0 0 96 96">
  <defs>
    <clipPath id="clip-path">
      <circle id="Ellipse_99" data-name="Ellipse 99" cx="48" cy="48" r="48" transform="translate(834 4495)" fill="none"/>
    </clipPath>
  </defs>
  <g id="coming-soon" transform="translate(-834 -4495)">
    <g id="Mask_Group_18" data-name="Mask Group 18" clip-path="url(#clip-path)">
      <g id="Group_957" data-name="Group 957" transform="translate(773.223 3436.367)">
        <g id="Group_948" data-name="Group 948" transform="translate(100.437 1096.281)">
          <path id="Path_1591" data-name="Path 1591" d="M128.1,1135.038a10.691,10.691,0,0,1-8.586-4.27.818.818,0,0,1,1.3-.988,9.129,9.129,0,1,0,7.282-14.635.818.818,0,1,1,0-1.635,10.764,10.764,0,1,1,0,21.529Z" transform="translate(-119.345 -1113.509)" fill="#24356d"/>
        </g>
        <g id="Group_950" data-name="Group 950" transform="translate(91.167 1089.628)">
          <g id="Group_949" data-name="Group 949" transform="translate(0 0)">
            <path id="Path_1592" data-name="Path 1592" d="M102.732,1122.546a.82.82,0,0,1,.627-.97h0a.813.813,0,0,1,.97.627h0a.813.813,0,0,1-.627.97h0a.931.931,0,0,1-.169.022h0A.816.816,0,0,1,102.732,1122.546Zm.392-3.674a.821.821,0,0,1-.785-.85h0a.817.817,0,0,1,.85-.785h0a.817.817,0,0,1,.785.85h0a.821.821,0,0,1-.818.785h-.033Zm.507-4.312a.822.822,0,0,1-.551-1.019h0a.827.827,0,0,1,1.019-.551h0a.826.826,0,0,1,.551,1.019h0a.821.821,0,0,1-.785.584h0A.867.867,0,0,1,103.632,1114.56Zm1.57-4.051a.817.817,0,0,1-.278-1.123h0a.817.817,0,0,1,1.123-.272h0a.816.816,0,0,1,.278,1.122h0a.822.822,0,0,1-.7.393h0A.794.794,0,0,1,105.2,1110.509Zm2.535-3.522a.818.818,0,0,1,.011-1.156l.005,0a.823.823,0,0,1,1.156.016h0a.823.823,0,0,1-.016,1.156h0a.8.8,0,0,1-.572.235h0A.807.807,0,0,1,107.736,1106.987Zm3.331-2.785a.82.82,0,0,1,.3-1.118h0a.824.824,0,0,1,1.118.3h0a.814.814,0,0,1-.3,1.118h0a.793.793,0,0,1-.409.109h0A.819.819,0,0,1,111.067,1104.2Zm3.925-1.864a.808.808,0,0,1,.567-1h0a.818.818,0,0,1,1.009.567h0a.821.821,0,0,1-.572,1.009h0a.746.746,0,0,1-.218.027h0A.809.809,0,0,1,114.992,1102.338Z" transform="translate(-102.339 -1101.305)" fill="#16c79e"/>
          </g>
        </g>
        <g id="Group_951" data-name="Group 951" transform="translate(107.566 1105.422)">
          <path id="Path_1593" data-name="Path 1593" d="M134.045,1133.524a1.623,1.623,0,1,1,1.623-1.623A1.625,1.625,0,0,1,134.045,1133.524Zm-.013-1.623a.012.012,0,0,0,.013.012l.805-.012Z" transform="translate(-132.422 -1130.278)" fill="#24356d"/>
        </g>
        <g id="Group_952" data-name="Group 952" transform="translate(92.754 1086.452)">
          <path id="Path_1594" data-name="Path 1594" d="M106.068,1128.7a.818.818,0,0,1-.493-1.47l15.293-11.568V1096.3a.818.818,0,1,1,1.635,0v19.776a.817.817,0,0,1-.324.652l-15.618,11.814A.812.812,0,0,1,106.068,1128.7Z" transform="translate(-105.25 -1095.479)" fill="#24356d"/>
        </g>
        <g id="Group_953" data-name="Group 953" transform="translate(77.777 1075.633)">
          <path id="Path_1595" data-name="Path 1595" d="M109.189,1138.458a31.412,31.412,0,1,1,30.472-39.068.818.818,0,1,1-1.586.4,29.78,29.78,0,1,0-28.886,37.036.818.818,0,0,1,0,1.635Z" transform="translate(-77.777 -1075.633)" fill="#24356d"/>
        </g>
        <g id="Group_954" data-name="Group 954" transform="translate(77.777 1106.227)">
          <path id="Path_1596" data-name="Path 1596" d="M82.734,1133.39H78.595a.818.818,0,1,1,0-1.635h4.139a.818.818,0,1,1,0,1.635Z" transform="translate(-77.777 -1131.755)" fill="#24356d"/>
        </g>
        <g id="Group_955" data-name="Group 955" transform="translate(108.371 1075.633)">
          <path id="Path_1597" data-name="Path 1597" d="M134.717,1081.408a.818.818,0,0,1-.818-.818v-4.14a.818.818,0,1,1,1.635,0v4.14A.818.818,0,0,1,134.717,1081.408Z" transform="translate(-133.899 -1075.633)" fill="#24356d"/>
        </g>
        <g id="Group_956" data-name="Group 956" transform="translate(108.371 1132.682)">
          <path id="Path_1598" data-name="Path 1598" d="M134.717,1186.059a.818.818,0,0,1-.818-.818v-4.14a.818.818,0,0,1,1.635,0v4.14A.818.818,0,0,1,134.717,1186.059Z" transform="translate(-133.899 -1180.284)" fill="#24356d"/>
        </g>
      </g>
    </g>
    <g id="Ellipse_95" data-name="Ellipse 95" transform="translate(834 4495)" fill="none" stroke="#24356d" stroke-width="2">
      <circle cx="48" cy="48" r="48" stroke="none"/>
      <circle cx="48" cy="48" r="47" fill="none"/>
    </g>
  </g>
</svg>
