<svg xmlns="http://www.w3.org/2000/svg" xmlns:xlink="http://www.w3.org/1999/xlink" viewBox="0 0 369.53 86.76"><defs><style>.cls-1{fill:#16c79e;}.cls-2{opacity:0.51;fill:url(#linear-gradient);}.cls-3{fill:#24356d;}</style><linearGradient id="linear-gradient" x1="15.58" y1="71.18" x2="70.34" y2="19.98" gradientUnits="userSpaceOnUse"><stop offset="0" stop-color="#16c79e"/><stop offset="1" stop-color="#fff"/></linearGradient></defs><title>jadwal-logo</title><g id="Layer_2" data-name="Layer 2"><g id="Layer_1-2" data-name="Layer 1"><ellipse class="cls-1" cx="56.59" cy="9.56" rx="9.94" ry="9.56"/><ellipse class="cls-1" cx="33.45" cy="32.03" rx="9.94" ry="9.56"/><ellipse class="cls-1" cx="9.94" cy="54.24" rx="9.94" ry="9.56"/><ellipse class="cls-1" cx="33.15" cy="77.2" rx="9.94" ry="9.56"/><ellipse class="cls-1" cx="56.7" cy="54.75" rx="9.94" ry="9.56"/><ellipse class="cls-1" cx="80.07" cy="32.34" rx="9.94" ry="9.56"/><ellipse class="cls-1" cx="80.07" cy="77.06" rx="9.94" ry="9.56"/><ellipse class="cls-1" cx="103.45" cy="54.59" rx="9.94" ry="9.56"/><path class="cls-2" d="M25.74,83.71,3,61.16a9.65,9.65,0,0,1,.17-14l23.3-22a10.31,10.31,0,0,1,14.18.12,9.39,9.39,0,0,1-.13,13.63L28.74,50a6.16,6.16,0,0,0-.11,8.92h0A6.77,6.77,0,0,0,38,59L73,25.5a10.31,10.31,0,0,1,14.17,0,9.37,9.37,0,0,1,0,13.63L40.43,83.83A10.62,10.62,0,0,1,25.74,83.71Z"/><path class="cls-3" d="M191.43,60.74V47.87a15,15,0,0,0-.83-5,11.5,11.5,0,0,0-2.55-4.17,11.67,11.67,0,0,0-4.33-2.8,16.74,16.74,0,0,0-6-1,20.4,20.4,0,0,0-7.25,1.28A18.58,18.58,0,0,0,167,37.88a3.77,3.77,0,0,0-1.69,2.61,3.82,3.82,0,0,0,3.77,4.43,3.8,3.8,0,0,0,2.12-.64,12.53,12.53,0,0,1,1.82-1,10.24,10.24,0,0,1,4.13-.85,6.92,6.92,0,0,1,4.4,1.28A4.19,4.19,0,0,1,183,46.9c-2,0-4.07.14-6.08.31A27.86,27.86,0,0,0,170,48.62,12.84,12.84,0,0,0,164.67,52a8.91,8.91,0,0,0-2.18,6.27,9.74,9.74,0,0,0,1.22,5,10.09,10.09,0,0,0,3,3.25,12,12,0,0,0,3.91,1.73,16.59,16.59,0,0,0,4,.51,13.77,13.77,0,0,0,6.48-1.47,12.93,12.93,0,0,0,2.54-1.79A4,4,0,0,0,187.29,68h.33a3.84,3.84,0,0,0,2.83-1.22,3.91,3.91,0,0,0,1.08-2.87V63.8C191.46,62.73,191.43,61.7,191.43,60.74Zm-19.82-1.17a2.82,2.82,0,0,1-.32-1.44,2.43,2.43,0,0,1,.77-1.93,6.63,6.63,0,0,1,2.6-1.37,19.29,19.29,0,0,1,3.93-.7c1.52-.12,3-.18,4.4-.18h0v.14a7.49,7.49,0,0,1-1.84,5.24,6.67,6.67,0,0,1-5.26,2,9.77,9.77,0,0,1-1.89-.18,4.37,4.37,0,0,1-1.44-.59A2.79,2.79,0,0,1,171.61,59.57Z"/><path class="cls-3" d="M304.91,47.87a15,15,0,0,0-.83-5,11.5,11.5,0,0,0-2.55-4.17,11.8,11.8,0,0,0-4.34-2.8,16.71,16.71,0,0,0-6-1,20.35,20.35,0,0,0-7.24,1.28,18,18,0,0,0-3.46,1.71,3.81,3.81,0,0,0-1.7,2.61,3.86,3.86,0,0,0,.85,3.06,3.82,3.82,0,0,0,5.05.73,11.91,11.91,0,0,1,1.81-1,10.31,10.31,0,0,1,4.13-.85,6.88,6.88,0,0,1,4.4,1.28,4.16,4.16,0,0,1,1.44,3.17c-2,0-4.08.14-6.08.31a27.86,27.86,0,0,0-6.94,1.41,12.88,12.88,0,0,0-5.3,3.36A9,9,0,0,0,276,58.25a9.64,9.64,0,0,0,1.23,5,10,10,0,0,0,3,3.25,11.89,11.89,0,0,0,3.91,1.73,16.44,16.44,0,0,0,4,.51,13.77,13.77,0,0,0,6.48-1.47,12.71,12.71,0,0,0,2.55-1.79A3.93,3.93,0,0,0,300.77,68h.33a3.84,3.84,0,0,0,2.83-1.22,4,4,0,0,0,1.07-3c-.06-1.07-.09-2.1-.09-3.06Zm-19.82,11.7a2.72,2.72,0,0,1-.32-1.44,2.4,2.4,0,0,1,.77-1.93,6.66,6.66,0,0,1,2.59-1.37,19.39,19.39,0,0,1,3.94-.7c1.51-.12,3-.18,4.39-.18h0v.14a7.49,7.49,0,0,1-1.85,5.24,6.66,6.66,0,0,1-5.25,2,9.69,9.69,0,0,1-1.89-.18,4.43,4.43,0,0,1-1.45-.59A2.84,2.84,0,0,1,285.09,59.57Z"/><path class="cls-3" d="M223.23,18.13a4.34,4.34,0,0,0-4.34,4.34V38.08a16.47,16.47,0,0,0-2.23-1.52,14,14,0,0,0-7-1.71,16.61,16.61,0,0,0-6.6,1.3,15.27,15.27,0,0,0-5.17,3.63,16.3,16.3,0,0,0-3.3,5.41,18.66,18.66,0,0,0-1.15,6.56,18.89,18.89,0,0,0,1.15,6.58,16.47,16.47,0,0,0,3.26,5.44A15.21,15.21,0,0,0,203,67.43a16.44,16.44,0,0,0,6.73,1.34,15.27,15.27,0,0,0,6.68-1.54,12.5,12.5,0,0,0,2.94-2,4.25,4.25,0,0,0,8.21-1.55V22.47A4.35,4.35,0,0,0,223.23,18.13ZM204.55,58.24a8.7,8.7,0,0,1-1.61-2.93,11.6,11.6,0,0,1,0-7.06,8.85,8.85,0,0,1,1.61-2.94,7.57,7.57,0,0,1,2.57-2,8.33,8.33,0,0,1,3.61-.72,8,8,0,0,1,3.47.73,8.22,8.22,0,0,1,2.68,2,9.35,9.35,0,0,1,1.75,3,10,10,0,0,1,.63,3.54,10.26,10.26,0,0,1-.62,3.54,9.23,9.23,0,0,1-1.75,2.92,8.35,8.35,0,0,1-2.69,2,8,8,0,0,1-9.65-2Z"/><path class="cls-3" d="M275.83,38.23a4.27,4.27,0,0,0-3.49-1.78,4.32,4.32,0,0,0-4.12,3.08l-4.79,16.21-4.89-15.38a5.61,5.61,0,0,0-10.7,0l-4.73,15.15L238.3,39.59a4.42,4.42,0,0,0-4.21-3.14,4.38,4.38,0,0,0-4.16,5.77l7.56,22.68a5.62,5.62,0,0,0,10.68,0l5-15.15,5,15.16a5.63,5.63,0,0,0,10.69,0l7.55-22.78A4.27,4.27,0,0,0,275.83,38.23Z"/><path class="cls-3" d="M311.59,18.23a4.33,4.33,0,0,0-4.33,4.33V63.72a4.34,4.34,0,1,0,8.67,0V22.56A4.33,4.33,0,0,0,311.59,18.23Z"/><path class="cls-3" d="M156.08,18a4.42,4.42,0,0,0-4.41,4.42V54.47a4.84,4.84,0,0,1-4.83,4.83,4,4,0,0,1-.6,0A5,5,0,0,1,142,54.2V51.92a4.42,4.42,0,1,0-8.83,0v2.14a14,14,0,0,0,12.4,14c.43,0,.84,0,1.26,0A13.67,13.67,0,0,0,160.5,54.47V22.41A4.42,4.42,0,0,0,156.08,18Z"/><path class="cls-3" d="M358.15,47.89a15,15,0,0,0-.83-5,11.63,11.63,0,0,0-2.55-4.18,11.86,11.86,0,0,0-4.33-2.79,16.8,16.8,0,0,0-6-1,20.56,20.56,0,0,0-7.24,1.27,18.92,18.92,0,0,0-3.46,1.72,3.81,3.81,0,0,0-1.7,2.61,3.83,3.83,0,0,0,3.78,4.43,3.8,3.8,0,0,0,2.12-.64,12.53,12.53,0,0,1,1.82-1,10.23,10.23,0,0,1,4.12-.85,6.88,6.88,0,0,1,4.4,1.28,4.16,4.16,0,0,1,1.44,3.17c-2,0-4.07.14-6.08.31a27.86,27.86,0,0,0-6.94,1.41,13,13,0,0,0-5.3,3.36,9,9,0,0,0-2.17,6.27,9.74,9.74,0,0,0,1.22,5,10.09,10.09,0,0,0,3,3.25,11.89,11.89,0,0,0,3.91,1.73,16.51,16.51,0,0,0,4,.51,13.74,13.74,0,0,0,6.48-1.47,12.71,12.71,0,0,0,2.55-1.79A3.94,3.94,0,0,0,354,68h.33a3.84,3.84,0,0,0,2.83-1.22,4,4,0,0,0,1.07-3c-.06-1.07-.09-2.1-.09-3.06Zm-19.82,11.7a2.82,2.82,0,0,1-.32-1.44,2.4,2.4,0,0,1,.77-1.93,6.66,6.66,0,0,1,2.59-1.37,19.39,19.39,0,0,1,3.94-.7c1.52-.12,3-.18,4.4-.18h0v.14a7.49,7.49,0,0,1-1.84,5.24,6.67,6.67,0,0,1-5.26,2,9,9,0,0,1-1.89-.19,4.21,4.21,0,0,1-1.45-.58A2.93,2.93,0,0,1,338.33,59.59Z"/><ellipse class="cls-3" cx="322.51" cy="63.11" rx="4.34" ry="4.17"/><ellipse class="cls-3" cx="365.19" cy="28.28" rx="4.35" ry="4.18"/><path class="cls-3" d="M365.18,36.48a4.35,4.35,0,0,0-4.34,4.34l0,23a4.34,4.34,0,1,0,8.67,0v-23A4.35,4.35,0,0,0,365.18,36.48Z"/></g></g></svg>