<svg xmlns="http://www.w3.org/2000/svg" xmlns:xlink="http://www.w3.org/1999/xlink" width="297.262" height="94.939" viewBox="0 0 297.262 94.939">
  <defs>
    <linearGradient id="linear-gradient" x1="0.173" y1="0.758" x2="0.781" y2="-0.037" gradientUnits="objectBoundingBox">
      <stop offset="0" stop-color="#16c79e"/>
      <stop offset="1" stop-color="#fff"/>
    </linearGradient>
  </defs>
  <g id="logo-with-support" transform="translate(10 -2.421)">
    <path id="Path_1618" data-name="Path 1618" d="M.936-9.2H4.355a6.753,6.753,0,0,1,1.352.13,3.075,3.075,0,0,1,1.111.449,2.267,2.267,0,0,1,.754.858,2.938,2.938,0,0,1,.28,1.359,3.134,3.134,0,0,1-.26,1.352,2.218,2.218,0,0,1-.715.871A2.9,2.9,0,0,1,5.8-3.725a6.324,6.324,0,0,1-1.352.137H2.964V0H.936ZM2.964-5.3H4.316a2.614,2.614,0,0,0,.527-.052A1.4,1.4,0,0,0,5.3-5.531a.936.936,0,0,0,.325-.338,1.069,1.069,0,0,0,.123-.539.913.913,0,0,0-.162-.565,1.081,1.081,0,0,0-.416-.332A1.781,1.781,0,0,0,4.6-7.455,5.778,5.778,0,0,0,4-7.488H2.964ZM8.645-3.159a3.31,3.31,0,0,1,.273-1.365A3.142,3.142,0,0,1,9.665-5.57a3.3,3.3,0,0,1,1.118-.669,3.982,3.982,0,0,1,1.372-.234,3.982,3.982,0,0,1,1.371.234,3.3,3.3,0,0,1,1.118.669,3.142,3.142,0,0,1,.748,1.047,3.31,3.31,0,0,1,.273,1.365,3.31,3.31,0,0,1-.273,1.365,3.142,3.142,0,0,1-.748,1.046,3.3,3.3,0,0,1-1.118.67,3.982,3.982,0,0,1-1.371.234,3.982,3.982,0,0,1-1.372-.234,3.3,3.3,0,0,1-1.118-.67,3.142,3.142,0,0,1-.748-1.046A3.31,3.31,0,0,1,8.645-3.159Zm1.95,0A1.635,1.635,0,0,0,11-2a1.491,1.491,0,0,0,1.151.442A1.491,1.491,0,0,0,13.306-2a1.635,1.635,0,0,0,.41-1.157,1.635,1.635,0,0,0-.41-1.157,1.491,1.491,0,0,0-1.151-.442A1.491,1.491,0,0,0,11-4.316,1.635,1.635,0,0,0,10.595-3.159Zm5.46-3.159h2.08l1.287,3.965h.026l1.079-3.965h2.132l1.17,3.965h.026l1.183-3.965h1.976L24.765,0H22.841L21.528-4.2H21.5L20.332,0H18.369ZM33.618-1.092a3.111,3.111,0,0,1-1.183.923,3.544,3.544,0,0,1-1.482.325,3.982,3.982,0,0,1-1.372-.234,3.3,3.3,0,0,1-1.118-.67,3.142,3.142,0,0,1-.747-1.046,3.31,3.31,0,0,1-.273-1.365,3.31,3.31,0,0,1,.273-1.365,3.142,3.142,0,0,1,.747-1.047,3.3,3.3,0,0,1,1.118-.669,3.982,3.982,0,0,1,1.372-.234,3.12,3.12,0,0,1,1.229.234,2.558,2.558,0,0,1,.936.669,3.049,3.049,0,0,1,.591,1.047,4.218,4.218,0,0,1,.208,1.365v.611H29.393a1.543,1.543,0,0,0,.507.89,1.434,1.434,0,0,0,.962.332,1.465,1.465,0,0,0,.813-.215,2.185,2.185,0,0,0,.578-.552ZM31.967-3.874a1.129,1.129,0,0,0-.325-.845,1.156,1.156,0,0,0-.871-.351,1.464,1.464,0,0,0-.572.1,1.434,1.434,0,0,0-.423.266,1.168,1.168,0,0,0-.273.377,1.241,1.241,0,0,0-.111.449ZM35.1-6.318h1.95V-5.3h.026a2.4,2.4,0,0,1,.741-.878A1.873,1.873,0,0,1,38.9-6.474q.169,0,.338.013a1.674,1.674,0,0,1,.312.052v1.781a2.945,2.945,0,0,0-.41-.1,2.652,2.652,0,0,0-.422-.032,2.072,2.072,0,0,0-.884.156,1.174,1.174,0,0,0-.5.436A1.655,1.655,0,0,0,37.1-3.5a6.52,6.52,0,0,0-.052.858V0H35.1ZM46.137-1.092a3.112,3.112,0,0,1-1.183.923,3.544,3.544,0,0,1-1.482.325A3.982,3.982,0,0,1,42.1-.078a3.3,3.3,0,0,1-1.118-.67,3.142,3.142,0,0,1-.748-1.046,3.31,3.31,0,0,1-.273-1.365,3.31,3.31,0,0,1,.273-1.365,3.142,3.142,0,0,1,.748-1.047A3.3,3.3,0,0,1,42.1-6.24a3.982,3.982,0,0,1,1.372-.234A3.12,3.12,0,0,1,44.7-6.24a2.558,2.558,0,0,1,.936.669,3.049,3.049,0,0,1,.591,1.047,4.218,4.218,0,0,1,.208,1.365v.611H41.912a1.543,1.543,0,0,0,.507.89,1.434,1.434,0,0,0,.962.332,1.465,1.465,0,0,0,.813-.215,2.185,2.185,0,0,0,.579-.552ZM44.486-3.874a1.129,1.129,0,0,0-.325-.845,1.156,1.156,0,0,0-.871-.351,1.464,1.464,0,0,0-.572.1A1.434,1.434,0,0,0,42.3-4.7a1.168,1.168,0,0,0-.273.377,1.241,1.241,0,0,0-.111.449ZM54.249,0H52.455V-.832h-.026a2.154,2.154,0,0,1-.306.345,2.311,2.311,0,0,1-.442.319,2.705,2.705,0,0,1-.559.234,2.2,2.2,0,0,1-.631.091,3.256,3.256,0,0,1-1.274-.241,2.841,2.841,0,0,1-.982-.676,3.014,3.014,0,0,1-.631-1.033,3.761,3.761,0,0,1-.221-1.313,3.982,3.982,0,0,1,.2-1.267,3.488,3.488,0,0,1,.572-1.073,2.794,2.794,0,0,1,.9-.747,2.564,2.564,0,0,1,1.209-.28,3.351,3.351,0,0,1,1.138.188,1.82,1.82,0,0,1,.865.644H52.3V-9.828h1.95ZM52.455-3.159a1.635,1.635,0,0,0-.41-1.157A1.491,1.491,0,0,0,50.9-4.758a1.491,1.491,0,0,0-1.151.442,1.635,1.635,0,0,0-.41,1.157A1.635,1.635,0,0,0,49.744-2,1.491,1.491,0,0,0,50.9-1.56,1.491,1.491,0,0,0,52.046-2,1.635,1.635,0,0,0,52.455-3.159Zm7.384-6.669h1.95v4.186h.026a1.82,1.82,0,0,1,.864-.644,3.351,3.351,0,0,1,1.138-.188,2.564,2.564,0,0,1,1.209.28,2.794,2.794,0,0,1,.9.747A3.488,3.488,0,0,1,66.5-4.374a3.981,3.981,0,0,1,.2,1.267,3.761,3.761,0,0,1-.221,1.313,3.014,3.014,0,0,1-.63,1.033,2.841,2.841,0,0,1-.982.676A3.256,3.256,0,0,1,63.6.156a2.177,2.177,0,0,1-.637-.091,2.75,2.75,0,0,1-.553-.234,2.311,2.311,0,0,1-.442-.319,2.155,2.155,0,0,1-.306-.345h-.026V0H59.839Zm1.794,6.669A1.635,1.635,0,0,0,62.042-2a1.491,1.491,0,0,0,1.15.442A1.491,1.491,0,0,0,64.343-2a1.635,1.635,0,0,0,.41-1.157,1.635,1.635,0,0,0-.41-1.157,1.491,1.491,0,0,0-1.151-.442,1.491,1.491,0,0,0-1.15.442A1.635,1.635,0,0,0,61.633-3.159Zm9.854,4.186q-.195.507-.377.9a2.153,2.153,0,0,1-.462.657,1.8,1.8,0,0,1-.709.4,3.831,3.831,0,0,1-1.131.136,4.574,4.574,0,0,1-1.456-.234l.26-1.6a2.233,2.233,0,0,0,.91.2,1.668,1.668,0,0,0,.533-.072A.885.885,0,0,0,69.4,1.2a1.153,1.153,0,0,0,.228-.331q.091-.2.195-.455l.143-.364L67.2-6.318H69.3l1.625,4.173h.026l1.391-4.173h2ZM79.17-9.2h3.042a8.682,8.682,0,0,1,2.1.247,4.8,4.8,0,0,1,1.736.8,3.917,3.917,0,0,1,1.176,1.437,4.817,4.817,0,0,1,.436,2.145,4.377,4.377,0,0,1-.423,1.97A4.235,4.235,0,0,1,86.1-1.176,5.029,5.029,0,0,1,84.448-.3a6.412,6.412,0,0,1-1.963.3H79.17ZM81.2-1.872h1.053a5.668,5.668,0,0,0,1.307-.143A2.792,2.792,0,0,0,84.6-2.489a2.276,2.276,0,0,0,.7-.871,3.089,3.089,0,0,0,.254-1.32A2.573,2.573,0,0,0,85.3-5.857a2.352,2.352,0,0,0-.682-.826A2.987,2.987,0,0,0,83.61-7.17a4.474,4.474,0,0,0-1.216-.162H81.2Zm7.618-4.446h1.95V0h-1.95ZM88.66-8.307a1.09,1.09,0,0,1,.332-.8,1.09,1.09,0,0,1,.8-.331,1.09,1.09,0,0,1,.8.331,1.09,1.09,0,0,1,.331.8,1.09,1.09,0,0,1-.331.8,1.09,1.09,0,0,1-.8.332,1.09,1.09,0,0,1-.8-.332A1.09,1.09,0,0,1,88.66-8.307Zm3.51,1.989h1.872v.858h.026a1.58,1.58,0,0,1,.26-.364,1.891,1.891,0,0,1,.4-.325,2.3,2.3,0,0,1,.533-.234,2.223,2.223,0,0,1,.65-.091A2.468,2.468,0,0,1,97.09-6.2a1.728,1.728,0,0,1,.774.858,2.108,2.108,0,0,1,.819-.871,2.461,2.461,0,0,1,1.183-.26,2.413,2.413,0,0,1,1.073.214,1.754,1.754,0,0,1,.689.585,2.467,2.467,0,0,1,.364.871,4.968,4.968,0,0,1,.111,1.073V0h-1.95V-3.679a1.467,1.467,0,0,0-.188-.761.712.712,0,0,0-.669-.318,1.29,1.29,0,0,0-.566.11.932.932,0,0,0-.364.306,1.27,1.27,0,0,0-.195.455,2.481,2.481,0,0,0-.059.546V0h-1.95V-3.341q0-.169-.013-.416a1.661,1.661,0,0,0-.091-.468A.9.9,0,0,0,95.8-4.6a.75.75,0,0,0-.514-.156,1.2,1.2,0,0,0-.611.136.93.93,0,0,0-.357.364,1.488,1.488,0,0,0-.162.513,4.425,4.425,0,0,0-.039.6V0H92.17Zm17.29,5.226a3.111,3.111,0,0,1-1.183.923,3.544,3.544,0,0,1-1.482.325,3.982,3.982,0,0,1-1.371-.234,3.3,3.3,0,0,1-1.118-.67,3.142,3.142,0,0,1-.748-1.046,3.31,3.31,0,0,1-.273-1.365,3.31,3.31,0,0,1,.273-1.365,3.142,3.142,0,0,1,.748-1.047,3.3,3.3,0,0,1,1.118-.669,3.982,3.982,0,0,1,1.371-.234,3.12,3.12,0,0,1,1.229.234,2.558,2.558,0,0,1,.936.669,3.049,3.049,0,0,1,.591,1.047,4.218,4.218,0,0,1,.208,1.365v.611h-4.524a1.543,1.543,0,0,0,.507.89,1.434,1.434,0,0,0,.962.332,1.465,1.465,0,0,0,.813-.215,2.185,2.185,0,0,0,.578-.552Zm-1.651-2.782a1.129,1.129,0,0,0-.325-.845,1.156,1.156,0,0,0-.871-.351,1.464,1.464,0,0,0-.572.1,1.434,1.434,0,0,0-.423.266,1.168,1.168,0,0,0-.273.377,1.241,1.241,0,0,0-.11.449Zm3.133-2.444h1.872v.858h.026a1.58,1.58,0,0,1,.26-.364,1.891,1.891,0,0,1,.4-.325,2.3,2.3,0,0,1,.533-.234,2.223,2.223,0,0,1,.65-.091,2.686,2.686,0,0,1,1.2.227,1.729,1.729,0,0,1,.709.63,2.55,2.55,0,0,1,.344.949,7.207,7.207,0,0,1,.091,1.183V0h-1.95V-3.094q0-.273-.02-.566a1.784,1.784,0,0,0-.117-.54.931.931,0,0,0-.3-.4.929.929,0,0,0-.578-.156,1.2,1.2,0,0,0-.611.136.93.93,0,0,0-.357.364,1.488,1.488,0,0,0-.162.513,4.425,4.425,0,0,0-.039.6V0h-1.95Zm11.037,1.859a1.381,1.381,0,0,0-1.131-.533,1.064,1.064,0,0,0-.481.117.414.414,0,0,0-.234.4.362.362,0,0,0,.241.345,3.181,3.181,0,0,0,.611.195l.793.182a2.98,2.98,0,0,1,.793.306,1.775,1.775,0,0,1,.611.565,1.687,1.687,0,0,1,.241.955,1.769,1.769,0,0,1-.267,1.007,2.044,2.044,0,0,1-.682.637,2.935,2.935,0,0,1-.936.338,5.564,5.564,0,0,1-1.027.1,4.968,4.968,0,0,1-1.339-.189,2.5,2.5,0,0,1-1.144-.67l1.183-1.313a1.962,1.962,0,0,0,.6.514,1.63,1.63,0,0,0,.773.176,1.807,1.807,0,0,0,.611-.1.36.36,0,0,0,.273-.357.4.4,0,0,0-.241-.371,2.633,2.633,0,0,0-.611-.208l-.793-.182a3.276,3.276,0,0,1-.793-.292,1.659,1.659,0,0,1-.611-.553,1.687,1.687,0,0,1-.241-.955,1.927,1.927,0,0,1,.228-.962,2,2,0,0,1,.6-.663,2.587,2.587,0,0,1,.851-.384,3.905,3.905,0,0,1,.975-.123,4.574,4.574,0,0,1,1.261.182,2.339,2.339,0,0,1,1.079.65Zm2.47-1.859h1.95V0h-1.95Zm-.156-1.989a1.09,1.09,0,0,1,.332-.8,1.09,1.09,0,0,1,.8-.331,1.09,1.09,0,0,1,.8.331,1.09,1.09,0,0,1,.331.8,1.09,1.09,0,0,1-.331.8,1.09,1.09,0,0,1-.8.332,1.09,1.09,0,0,1-.8-.332A1.09,1.09,0,0,1,124.293-8.307Zm3.276,5.148a3.31,3.31,0,0,1,.273-1.365,3.142,3.142,0,0,1,.747-1.047,3.3,3.3,0,0,1,1.118-.669,3.982,3.982,0,0,1,1.371-.234,3.982,3.982,0,0,1,1.372.234,3.3,3.3,0,0,1,1.118.669,3.142,3.142,0,0,1,.747,1.047,3.31,3.31,0,0,1,.273,1.365,3.31,3.31,0,0,1-.273,1.365,3.142,3.142,0,0,1-.747,1.046,3.3,3.3,0,0,1-1.118.67,3.982,3.982,0,0,1-1.372.234,3.982,3.982,0,0,1-1.371-.234,3.3,3.3,0,0,1-1.118-.67,3.142,3.142,0,0,1-.747-1.046A3.31,3.31,0,0,1,127.569-3.159Zm1.95,0A1.635,1.635,0,0,0,129.928-2a1.491,1.491,0,0,0,1.15.442A1.491,1.491,0,0,0,132.229-2a1.635,1.635,0,0,0,.41-1.157,1.635,1.635,0,0,0-.41-1.157,1.491,1.491,0,0,0-1.15-.442,1.491,1.491,0,0,0-1.15.442A1.635,1.635,0,0,0,129.519-3.159Zm6.214-3.159h1.872v.858h.026a1.58,1.58,0,0,1,.26-.364,1.891,1.891,0,0,1,.4-.325,2.3,2.3,0,0,1,.533-.234,2.223,2.223,0,0,1,.65-.091,2.686,2.686,0,0,1,1.2.227,1.729,1.729,0,0,1,.708.63,2.55,2.55,0,0,1,.345.949,7.208,7.208,0,0,1,.091,1.183V0h-1.95V-3.094q0-.273-.02-.566a1.784,1.784,0,0,0-.117-.54.931.931,0,0,0-.3-.4.929.929,0,0,0-.578-.156,1.2,1.2,0,0,0-.611.136.93.93,0,0,0-.357.364,1.488,1.488,0,0,0-.163.513,4.427,4.427,0,0,0-.039.6V0h-1.95Zm10.517-.7L144.4-5.395l-1.1-1.274,3-2.535h1.82V0H146.25Zm8.281,5.174h-4.017V-3.484l3.757-5.72H156.4v5.72h1.183v1.638H156.4V0h-1.872Zm0-4.81H154.5l-2.041,3.172h2.067Z" transform="translate(60 47)" fill="#24356d" opacity="0.297"/>
    <g id="Group_964" data-name="Group 964" transform="translate(-177.271 -251.837)">
      <g id="Group_965" data-name="Group 965" transform="translate(167.271 254.258)">
        <g id="Group_964-2" data-name="Group 964">
          <ellipse id="Ellipse_113" data-name="Ellipse 113" cx="5.193" cy="4.994" rx="5.193" ry="4.994" transform="translate(24.379)" fill="#16c79e"/>
          <ellipse id="Ellipse_114" data-name="Ellipse 114" cx="5.193" cy="4.994" rx="5.193" ry="4.994" transform="translate(12.289 11.746)" fill="#16c79e"/>
          <ellipse id="Ellipse_115" data-name="Ellipse 115" cx="5.193" cy="4.994" rx="5.193" ry="4.994" transform="translate(0 23.35)" fill="#16c79e"/>
          <ellipse id="Ellipse_116" data-name="Ellipse 116" cx="5.193" cy="4.994" rx="5.193" ry="4.994" transform="translate(12.128 35.351)" fill="#16c79e"/>
          <ellipse id="Ellipse_117" data-name="Ellipse 117" cx="5.193" cy="4.994" rx="5.193" ry="4.994" transform="translate(24.438 23.619)" fill="#16c79e"/>
          <ellipse id="Ellipse_118" data-name="Ellipse 118" cx="5.193" cy="4.994" rx="5.193" ry="4.994" transform="translate(36.652 11.905)" fill="#16c79e"/>
          <ellipse id="Ellipse_119" data-name="Ellipse 119" cx="5.193" cy="4.994" rx="5.193" ry="4.994" transform="translate(36.652 35.278)" fill="#16c79e"/>
          <ellipse id="Ellipse_120" data-name="Ellipse 120" cx="5.193" cy="4.994" rx="5.193" ry="4.994" transform="translate(48.867 23.531)" fill="#16c79e"/>
        </g>
        <path id="Path_1608" data-name="Path 1608" d="M180.742,308.7l-11.907-11.783a5.049,5.049,0,0,1,.089-7.319L181.1,278.1a5.389,5.389,0,0,1,7.408.065,4.9,4.9,0,0,1-.068,7.124l-6.132,5.79a3.215,3.215,0,0,0-.056,4.66h0a3.533,3.533,0,0,0,4.886.04l18.3-17.5a5.388,5.388,0,0,1,7.409.021,4.9,4.9,0,0,1-.021,7.124l-24.411,23.338A5.549,5.549,0,0,1,180.742,308.7Z" transform="translate(-167.289 -264.95)" opacity="0.51" fill="url(#linear-gradient)"/>
      </g>
      <g id="Group_966" data-name="Group 966" transform="translate(236.867 254.66)">
        <path id="Path_1609" data-name="Path 1609" d="M344.884,302.659v-6.725a7.841,7.841,0,0,0-.432-2.618,6.034,6.034,0,0,0-1.334-2.184,6.206,6.206,0,0,0-2.265-1.46,8.717,8.717,0,0,0-3.141-.522,10.721,10.721,0,0,0-3.786.665,9.732,9.732,0,0,0-1.808.9,1.979,1.979,0,0,0-.887,1.365,2.015,2.015,0,0,0,.443,1.6,1.995,1.995,0,0,0,2.64.383,6.11,6.11,0,0,1,.948-.513,5.356,5.356,0,0,1,2.157-.442,3.611,3.611,0,0,1,2.3.667,2.182,2.182,0,0,1,.75,1.658c-1.062.017-2.128.071-3.177.159a14.776,14.776,0,0,0-3.626.737,6.724,6.724,0,0,0-2.768,1.756,4.67,4.67,0,0,0-1.138,3.279,5.092,5.092,0,0,0,.638,2.618,5.254,5.254,0,0,0,1.569,1.7,6.273,6.273,0,0,0,2.043.9,8.713,8.713,0,0,0,2.077.266,7.145,7.145,0,0,0,3.386-.769,6.633,6.633,0,0,0,1.331-.933,2.061,2.061,0,0,0,1.917,1.312h.173a2.018,2.018,0,0,0,1.48-.638,2.052,2.052,0,0,0,.56-1.5l0-.059C344.9,303.7,344.884,303.163,344.884,302.659Zm-10.357-.612a1.449,1.449,0,0,1-.168-.753,1.262,1.262,0,0,1,.4-1.009,3.467,3.467,0,0,1,1.356-.717,10.118,10.118,0,0,1,2.057-.362c.792-.063,1.564-.1,2.3-.1h.006v.071a3.909,3.909,0,0,1-.963,2.738,3.474,3.474,0,0,1-2.746,1.037,4.912,4.912,0,0,1-.988-.1,2.188,2.188,0,0,1-.756-.3A1.551,1.551,0,0,1,334.527,302.047Z" transform="translate(-314.442 -280.319)" fill="#24356d"/>
        <path id="Path_1610" data-name="Path 1610" d="M458.359,295.934a7.855,7.855,0,0,0-.432-2.618,6.034,6.034,0,0,0-1.334-2.184,6.206,6.206,0,0,0-2.265-1.46,8.72,8.72,0,0,0-3.142-.522,10.72,10.72,0,0,0-3.786.665,9.7,9.7,0,0,0-1.808.9,1.979,1.979,0,0,0-.887,1.365,2.013,2.013,0,0,0,.442,1.6,1.994,1.994,0,0,0,2.64.383,6.138,6.138,0,0,1,.95-.513,5.354,5.354,0,0,1,2.157-.442,3.612,3.612,0,0,1,2.3.667,2.182,2.182,0,0,1,.749,1.658c-1.062.017-2.128.071-3.177.159a14.777,14.777,0,0,0-3.626.737,6.724,6.724,0,0,0-2.768,1.756,4.67,4.67,0,0,0-1.138,3.279,5.087,5.087,0,0,0,.639,2.618,5.254,5.254,0,0,0,1.569,1.7,6.269,6.269,0,0,0,2.043.9,8.714,8.714,0,0,0,2.078.266,7.143,7.143,0,0,0,3.385-.769,6.585,6.585,0,0,0,1.33-.933,2.064,2.064,0,0,0,1.917,1.312h.172a2.019,2.019,0,0,0,1.481-.638,2.091,2.091,0,0,0,.559-1.558c-.032-.557-.048-1.095-.048-1.6ZM448,302.047a1.449,1.449,0,0,1-.168-.753,1.26,1.26,0,0,1,.4-1.009,3.465,3.465,0,0,1,1.355-.717,10.123,10.123,0,0,1,2.058-.362c.791-.063,1.564-.1,2.3-.1h.007v.071a3.91,3.91,0,0,1-.964,2.738,3.473,3.473,0,0,1-2.746,1.037,4.907,4.907,0,0,1-.987-.1,2.195,2.195,0,0,1-.757-.3A1.556,1.556,0,0,1,448,302.047Z" transform="translate(-368.617 -280.319)" fill="#24356d"/>
        <path id="Path_1611" data-name="Path 1611" d="M376.288,272.387a2.27,2.27,0,0,0-2.267,2.268v8.159a8.575,8.575,0,0,0-1.166-.8,7.275,7.275,0,0,0-3.648-.893,8.656,8.656,0,0,0-3.445.678,7.945,7.945,0,0,0-2.7,1.9,8.5,8.5,0,0,0-1.726,2.827,9.747,9.747,0,0,0-.6,3.427,9.882,9.882,0,0,0,.6,3.44,8.619,8.619,0,0,0,1.707,2.841,7.96,7.96,0,0,0,2.684,1.916,8.617,8.617,0,0,0,3.516.7,7.951,7.951,0,0,0,3.489-.8,6.583,6.583,0,0,0,1.542-1.029,2.219,2.219,0,0,0,4.286-.807V274.655A2.27,2.27,0,0,0,376.288,272.387Zm-9.762,20.964a4.56,4.56,0,0,1-.838-1.535,6.023,6.023,0,0,1,0-3.69,4.555,4.555,0,0,1,.838-1.534,3.932,3.932,0,0,1,1.345-1.038,4.328,4.328,0,0,1,1.887-.38,4.2,4.2,0,0,1,1.811.383,4.292,4.292,0,0,1,1.4,1.05,4.953,4.953,0,0,1,.918,1.551,5.375,5.375,0,0,1,0,3.695,4.772,4.772,0,0,1-.914,1.53,4.407,4.407,0,0,1-1.4,1.039,4.2,4.2,0,0,1-5.045-1.069Z" transform="translate(-329.23 -272.315)" fill="#24356d"/>
        <path id="Path_1612" data-name="Path 1612" d="M421.077,291.638a2.224,2.224,0,0,0-1.823-.933,2.264,2.264,0,0,0-2.157,1.612l-2.5,8.468-2.553-8.035a2.933,2.933,0,0,0-5.595.014l-2.471,7.917-2.514-8.333a2.306,2.306,0,0,0-2.2-1.643,2.293,2.293,0,0,0-2.176,3.018l3.951,11.85a2.941,2.941,0,0,0,5.585-.015l2.631-7.919,2.6,7.921a2.942,2.942,0,0,0,5.588.007l3.943-11.906A2.223,2.223,0,0,0,421.077,291.638Z" transform="translate(-346.528 -281.061)" fill="#24356d"/>
        <path id="Path_1613" data-name="Path 1613" d="M476.794,272.483a2.27,2.27,0,0,0-2.268,2.267v21.505a2.267,2.267,0,0,0,4.535,0V274.75A2.27,2.27,0,0,0,476.794,272.483Z" transform="translate(-383.556 -272.361)" fill="#24356d"/>
        <path id="Path_1614" data-name="Path 1614" d="M312.419,272.25a2.311,2.311,0,0,0-2.308,2.309v16.756a2.525,2.525,0,0,1-2.522,2.523,2.574,2.574,0,0,1-.315-.019,2.633,2.633,0,0,1-2.208-2.643V289.98a2.308,2.308,0,1,0-4.616,0V291.1a7.3,7.3,0,0,0,6.482,7.326q.332.03.657.029a7.147,7.147,0,0,0,7.139-7.139V274.559A2.311,2.311,0,0,0,312.419,272.25Z" transform="translate(-300.449 -272.25)" fill="#24356d"/>
        <path id="Path_1615" data-name="Path 1615" d="M511.6,295.954a7.857,7.857,0,0,0-.432-2.618,6.031,6.031,0,0,0-1.334-2.183,6.207,6.207,0,0,0-2.265-1.461,8.721,8.721,0,0,0-3.142-.521,10.731,10.731,0,0,0-3.786.664,9.694,9.694,0,0,0-1.808.9,1.98,1.98,0,0,0-.887,1.365,2.013,2.013,0,0,0,.442,1.6,2,2,0,0,0,2.64.383,6.14,6.14,0,0,1,.95-.513,5.363,5.363,0,0,1,2.157-.441,3.615,3.615,0,0,1,2.3.666,2.186,2.186,0,0,1,.75,1.659c-1.063.017-2.128.071-3.178.159a14.753,14.753,0,0,0-3.626.737,6.719,6.719,0,0,0-2.768,1.756,4.669,4.669,0,0,0-1.138,3.279,5.089,5.089,0,0,0,.639,2.618,5.253,5.253,0,0,0,1.569,1.7,6.248,6.248,0,0,0,2.043.9,8.688,8.688,0,0,0,2.078.265,7.149,7.149,0,0,0,3.385-.769,6.585,6.585,0,0,0,1.33-.933,2.063,2.063,0,0,0,1.917,1.312h.172a2.017,2.017,0,0,0,1.481-.638,2.09,2.09,0,0,0,.559-1.558c-.032-.557-.048-1.095-.048-1.6Zm-10.357,6.112a1.447,1.447,0,0,1-.168-.752,1.26,1.26,0,0,1,.4-1.009,3.476,3.476,0,0,1,1.355-.717,10.191,10.191,0,0,1,2.058-.362c.791-.063,1.564-.095,2.3-.095h.007v.071a3.909,3.909,0,0,1-.964,2.737,3.472,3.472,0,0,1-2.746,1.037,4.868,4.868,0,0,1-.987-.1,2.185,2.185,0,0,1-.757-.3A1.552,1.552,0,0,1,501.244,302.066Z" transform="translate(-394.036 -280.328)" fill="#24356d"/>
        <ellipse id="Ellipse_121" data-name="Ellipse 121" cx="2.267" cy="2.18" rx="2.267" ry="2.18" transform="translate(96.674 21.397)" fill="#24356d"/>
        <ellipse id="Ellipse_122" data-name="Ellipse 122" cx="2.272" cy="2.184" rx="2.272" ry="2.184" transform="translate(118.972 3.191)" fill="#24356d"/>
        <path id="Path_1616" data-name="Path 1616" d="M530.379,290.743a2.27,2.27,0,0,0-2.268,2.267l.008,12.005a2.267,2.267,0,1,0,4.535,0l-.008-12.005A2.27,2.27,0,0,0,530.379,290.743Z" transform="translate(-409.139 -281.079)" fill="#24356d"/>
      </g>
    </g>
    <path id="Path_1617" data-name="Path 1617" d="M1.19-4.928a4.4,4.4,0,0,0,.343,1.743,4.336,4.336,0,0,0,.945,1.4,4.5,4.5,0,0,0,1.4.938A4.314,4.314,0,0,0,5.6-.5,4.314,4.314,0,0,0,7.322-.847a4.439,4.439,0,0,0,1.4-.945,4.377,4.377,0,0,0,.945-1.421,4.538,4.538,0,0,0,.343-1.771,4.451,4.451,0,0,0-.343-1.75,4.316,4.316,0,0,0-.945-1.407,4.4,4.4,0,0,0-1.4-.931A4.392,4.392,0,0,0,5.6-9.408a4.314,4.314,0,0,0-1.722.343,4.5,4.5,0,0,0-1.4.938,4.3,4.3,0,0,0-.945,1.414A4.575,4.575,0,0,0,1.19-4.928Zm-.84,0A5.125,5.125,0,0,1,.77-7.007,5.24,5.24,0,0,1,1.9-8.666a5.257,5.257,0,0,1,1.666-1.1,5.2,5.2,0,0,1,2.03-.4,5.214,5.214,0,0,1,2.023.4A5.3,5.3,0,0,1,9.3-8.673,5.2,5.2,0,0,1,10.43-7.035a4.992,4.992,0,0,1,.42,2.051A5.125,5.125,0,0,1,10.43-2.9,5.24,5.24,0,0,1,9.3-1.246a5.237,5.237,0,0,1-1.673,1.1A5.214,5.214,0,0,1,5.6.252a5.2,5.2,0,0,1-2.03-.4A5.318,5.318,0,0,1,1.9-1.239,5.2,5.2,0,0,1,.77-2.877,4.992,4.992,0,0,1,.35-4.928Zm8.078.98a2.86,2.86,0,0,1-.945,1.6,2.534,2.534,0,0,1-1.673.588,3.25,3.25,0,0,1-1.288-.245,2.91,2.91,0,0,1-.98-.672,3.023,3.023,0,0,1-.63-1.008,3.493,3.493,0,0,1-.224-1.267A3.761,3.761,0,0,1,2.9-6.23a2.819,2.819,0,0,1,.609-1.008A2.8,2.8,0,0,1,4.48-7.9a3.334,3.334,0,0,1,1.288-.238A3.329,3.329,0,0,1,6.72-8a2.465,2.465,0,0,1,.8.4,2.312,2.312,0,0,1,.588.665,2.411,2.411,0,0,1,.308.931H7.63a1.59,1.59,0,0,0-.616-.98,1.946,1.946,0,0,0-1.232-.392,2.3,2.3,0,0,0-.952.189,2.072,2.072,0,0,0-.707.511,2.256,2.256,0,0,0-.441.756,2.785,2.785,0,0,0-.154.938,2.693,2.693,0,0,0,.161.931,2.451,2.451,0,0,0,.462.784,2.252,2.252,0,0,0,.721.546,2.127,2.127,0,0,0,.938.2,1.825,1.825,0,0,0,1.218-.413,1.7,1.7,0,0,0,.6-1.015ZM22.064,0h-6.3V-1.162L19.712-5.18q.224-.224.448-.476a4.452,4.452,0,0,0,.406-.532,2.885,2.885,0,0,0,.294-.588,1.87,1.87,0,0,0,.112-.644,1.734,1.734,0,0,0-.147-.728,1.541,1.541,0,0,0-.413-.546,1.891,1.891,0,0,0-.616-.343,2.289,2.289,0,0,0-.742-.119,2.015,2.015,0,0,0-1.288.42A1.905,1.905,0,0,0,17.08-7.6l-1.064-.112A2.774,2.774,0,0,1,17.031-9.45a3.072,3.072,0,0,1,1.953-.63,3.966,3.966,0,0,1,1.141.161,2.865,2.865,0,0,1,.952.483,2.359,2.359,0,0,1,.658.805A2.46,2.46,0,0,1,21.98-7.5a3.023,3.023,0,0,1-.175,1.05,4.259,4.259,0,0,1-.455.9,6.045,6.045,0,0,1-.637.8q-.357.378-.735.742L16.856-.924h5.208Zm4.7-9.156a1.813,1.813,0,0,0-1.281.434,2.733,2.733,0,0,0-.707,1.078,5.244,5.244,0,0,0-.3,1.372q-.063.728-.063,1.316t.063,1.316a5.244,5.244,0,0,0,.3,1.372,2.733,2.733,0,0,0,.707,1.078,1.813,1.813,0,0,0,1.281.434,1.813,1.813,0,0,0,1.281-.434,2.733,2.733,0,0,0,.707-1.078,5.244,5.244,0,0,0,.3-1.372q.063-.728.063-1.316t-.063-1.316a5.244,5.244,0,0,0-.3-1.372,2.733,2.733,0,0,0-.707-1.078A1.813,1.813,0,0,0,26.768-9.156Zm0-.924a2.811,2.811,0,0,1,1.722.49,3.328,3.328,0,0,1,1.022,1.246A5.575,5.575,0,0,1,30-6.685a12.522,12.522,0,0,1,.126,1.729A12.522,12.522,0,0,1,30-3.227a5.575,5.575,0,0,1-.49,1.659A3.328,3.328,0,0,1,28.49-.322a2.811,2.811,0,0,1-1.722.49,2.811,2.811,0,0,1-1.722-.49,3.328,3.328,0,0,1-1.022-1.246,5.575,5.575,0,0,1-.49-1.659,12.522,12.522,0,0,1-.126-1.729,12.522,12.522,0,0,1,.126-1.729,5.575,5.575,0,0,1,.49-1.659A3.328,3.328,0,0,1,25.046-9.59,2.811,2.811,0,0,1,26.768-10.08ZM35.532,0H34.524V-8.652L32.746-7.084l-.63-.756,2.52-2.072h.9Zm9.016-7.014a2.264,2.264,0,0,0-.161-.868,1.926,1.926,0,0,0-.455-.672,2.153,2.153,0,0,0-.7-.441,2.41,2.41,0,0,0-.9-.161,2.41,2.41,0,0,0-.9.161,2.153,2.153,0,0,0-.7.441,1.926,1.926,0,0,0-.455.672,2.264,2.264,0,0,0-.161.868,2.264,2.264,0,0,0,.161.868,2,2,0,0,0,.455.679,2.008,2.008,0,0,0,.7.441,2.508,2.508,0,0,0,.9.154,2.508,2.508,0,0,0,.9-.154,2.008,2.008,0,0,0,.7-.441,2,2,0,0,0,.455-.679A2.264,2.264,0,0,0,44.548-7.014ZM43.54-4.256l-.028-.028a1.713,1.713,0,0,1-.637.252,3.587,3.587,0,0,1-.735.084,3.074,3.074,0,0,1-1.2-.231,2.946,2.946,0,0,1-.959-.637,2.928,2.928,0,0,1-.637-.966,3.2,3.2,0,0,1-.231-1.232,3.155,3.155,0,0,1,.238-1.246,2.813,2.813,0,0,1,.672-.966,3.086,3.086,0,0,1,1.022-.63,3.59,3.59,0,0,1,1.288-.224,3.59,3.59,0,0,1,1.288.224,3.086,3.086,0,0,1,1.022.63,2.813,2.813,0,0,1,.672.966,3.155,3.155,0,0,1,.238,1.246,3.888,3.888,0,0,1-.245,1.442A8.239,8.239,0,0,1,44.7-4.354L42.028,0h-1.19Zm7.8,2.226a1.917,1.917,0,0,0,.518.994,1.451,1.451,0,0,0,1.05.364,1.639,1.639,0,0,0,.889-.217,1.528,1.528,0,0,0,.532-.56,2.387,2.387,0,0,0,.259-.784,5.752,5.752,0,0,0,.07-.9V-9.912h1.008v7.2a4.181,4.181,0,0,1-.133,1.029,2.582,2.582,0,0,1-.462.952,2.588,2.588,0,0,1-.861.707,2.835,2.835,0,0,1-1.33.28A2.728,2.728,0,0,1,51.17-.273a2.332,2.332,0,0,1-.854-1.547ZM61.6-3.262q-.35,0-.875.035a5.054,5.054,0,0,0-1.008.168,2.219,2.219,0,0,0-.826.413.94.94,0,0,0-.343.77,1.09,1.09,0,0,0,.133.553,1.107,1.107,0,0,0,.357.378,1.521,1.521,0,0,0,.5.21,2.451,2.451,0,0,0,.553.063,2.106,2.106,0,0,0,.875-.168,1.81,1.81,0,0,0,.623-.455,1.819,1.819,0,0,0,.371-.672,2.758,2.758,0,0,0,.119-.819v-.476Zm.476-.756v-.168A1.491,1.491,0,0,0,60.4-5.88a2.894,2.894,0,0,0-2,.77l-.56-.658a3.7,3.7,0,0,1,2.772-.952,3.012,3.012,0,0,1,.917.14,2.073,2.073,0,0,1,.763.427,2.117,2.117,0,0,1,.518.721A2.5,2.5,0,0,1,63-4.4V-1.47q0,.378.035.791T63.112,0h-.9q-.042-.238-.063-.518t-.021-.546H62.1a2.5,2.5,0,0,1-.959.945,2.906,2.906,0,0,1-1.351.287,2.971,2.971,0,0,1-.84-.119,2.144,2.144,0,0,1-.721-.364,1.85,1.85,0,0,1-.5-.6,1.755,1.755,0,0,1-.189-.833A1.8,1.8,0,0,1,57.953-3a2.526,2.526,0,0,1,1.036-.679,5.1,5.1,0,0,1,1.33-.28q.707-.056,1.295-.056Zm3.626.742a2.939,2.939,0,0,0,.175,1.022,2.457,2.457,0,0,0,.5.826,2.334,2.334,0,0,0,.777.553,2.5,2.5,0,0,0,1.029.2,2.664,2.664,0,0,0,1.043-.2,2.574,2.574,0,0,0,.833-.553,2.5,2.5,0,0,0,.546-.826,2.658,2.658,0,0,0,.2-1.022A2.658,2.658,0,0,0,70.6-4.3a2.5,2.5,0,0,0-.546-.826,2.574,2.574,0,0,0-.833-.553,2.664,2.664,0,0,0-1.043-.2,2.5,2.5,0,0,0-1.029.2,2.334,2.334,0,0,0-.777.553,2.457,2.457,0,0,0-.5.826A2.939,2.939,0,0,0,65.7-3.276ZM71.68,0h-.924V-1.092h-.028a2.4,2.4,0,0,1-.532.574,3.3,3.3,0,0,1-.644.392A3.081,3.081,0,0,1,68.859.1a3.533,3.533,0,0,1-.679.07,3.7,3.7,0,0,1-1.407-.259,3.283,3.283,0,0,1-1.1-.721A3.3,3.3,0,0,1,64.953-1.9a3.574,3.574,0,0,1-.259-1.372,3.574,3.574,0,0,1,.259-1.372,3.3,3.3,0,0,1,.721-1.092,3.283,3.283,0,0,1,1.1-.721A3.7,3.7,0,0,1,68.18-6.72a3.533,3.533,0,0,1,.679.07,3.081,3.081,0,0,1,.693.224,3.3,3.3,0,0,1,.644.392,2.4,2.4,0,0,1,.532.574h.028v-5.124h.924Zm2.3-6.552,1.512,5.32h.028l1.75-5.32h.952l1.75,5.32H80l1.512-5.32H82.6L80.528,0H79.492L77.756-5.376h-.028L75.992,0H74.956L72.884-6.552Zm13.552,3.29q-.35,0-.875.035a5.054,5.054,0,0,0-1.008.168,2.219,2.219,0,0,0-.826.413.94.94,0,0,0-.343.77,1.09,1.09,0,0,0,.133.553,1.107,1.107,0,0,0,.357.378,1.521,1.521,0,0,0,.5.21,2.451,2.451,0,0,0,.553.063,2.106,2.106,0,0,0,.875-.168,1.81,1.81,0,0,0,.623-.455,1.819,1.819,0,0,0,.371-.672A2.758,2.758,0,0,0,88-2.786v-.476ZM88-4.018v-.168a1.491,1.491,0,0,0-1.68-1.694,2.894,2.894,0,0,0-2,.77l-.56-.658a3.7,3.7,0,0,1,2.772-.952,3.012,3.012,0,0,1,.917.14,2.073,2.073,0,0,1,.763.427,2.117,2.117,0,0,1,.518.721,2.5,2.5,0,0,1,.2,1.036V-1.47q0,.378.035.791T89.04,0h-.9q-.042-.238-.063-.518t-.021-.546h-.028a2.5,2.5,0,0,1-.959.945,2.906,2.906,0,0,1-1.351.287,2.971,2.971,0,0,1-.84-.119,2.144,2.144,0,0,1-.721-.364,1.85,1.85,0,0,1-.5-.6,1.755,1.755,0,0,1-.189-.833A1.8,1.8,0,0,1,83.881-3a2.526,2.526,0,0,1,1.036-.679,5.1,5.1,0,0,1,1.33-.28q.707-.056,1.3-.056ZM92.2,0H91.28V-10.584H92.2Zm3.92-.672a.759.759,0,0,1-.21.525.7.7,0,0,1-.546.231.7.7,0,0,1-.546-.231.759.759,0,0,1-.21-.525.759.759,0,0,1,.21-.525.7.7,0,0,1,.546-.231.7.7,0,0,1,.546.231A.759.759,0,0,1,96.124-.672Zm5.922-2.59q-.35,0-.875.035a5.054,5.054,0,0,0-1.008.168,2.219,2.219,0,0,0-.826.413.94.94,0,0,0-.343.77,1.09,1.09,0,0,0,.133.553,1.107,1.107,0,0,0,.357.378,1.521,1.521,0,0,0,.5.21,2.451,2.451,0,0,0,.553.063,2.106,2.106,0,0,0,.875-.168,1.81,1.81,0,0,0,.623-.455,1.819,1.819,0,0,0,.371-.672,2.758,2.758,0,0,0,.119-.819v-.476Zm.476-.756v-.168a1.491,1.491,0,0,0-1.68-1.694,2.894,2.894,0,0,0-2,.77l-.56-.658a3.7,3.7,0,0,1,2.772-.952,3.012,3.012,0,0,1,.917.14,2.073,2.073,0,0,1,.763.427,2.117,2.117,0,0,1,.518.721,2.5,2.5,0,0,1,.2,1.036V-1.47q0,.378.035.791t.077.679h-.9q-.042-.238-.063-.518t-.021-.546h-.028a2.5,2.5,0,0,1-.959.945,2.906,2.906,0,0,1-1.351.287A2.971,2.971,0,0,1,99.4.049a2.144,2.144,0,0,1-.721-.364,1.85,1.85,0,0,1-.5-.6,1.755,1.755,0,0,1-.189-.833A1.8,1.8,0,0,1,98.4-3a2.526,2.526,0,0,1,1.036-.679,5.1,5.1,0,0,1,1.33-.28q.707-.056,1.3-.056Zm4.41-5.054a.621.621,0,0,1-.21.483.676.676,0,0,1-.462.189.676.676,0,0,1-.462-.189.621.621,0,0,1-.21-.483.621.621,0,0,1,.21-.483.676.676,0,0,1,.462-.189.676.676,0,0,1,.462.189A.621.621,0,0,1,106.932-9.072ZM106.722,0H105.8V-6.552h.924Zm7.756-3.528h4.3l-2.142-5.208ZM113.008,0h-1.176l4.312-9.912h.98L121.436,0H120.26l-1.092-2.6H114.1Zm10.57,0h-.924V-10.584h.924Zm3.36,0h-.924V-10.584h.924Zm6.216-4.508q0-.434-.021-.882T133.1-6.552h.91v1.218h.028a2.036,2.036,0,0,1,.28-.511,2.193,2.193,0,0,1,.441-.441,2.165,2.165,0,0,1,.6-.315,2.363,2.363,0,0,1,.777-.119,2.508,2.508,0,0,1,.686.084l-.182.91a1.554,1.554,0,0,0-.532-.07,1.9,1.9,0,0,0-.91.2,2.018,2.018,0,0,0-.63.518,2.152,2.152,0,0,0-.371.679,2.25,2.25,0,0,0-.119.7V0h-.924Zm5.894-4.564a.621.621,0,0,1-.21.483.676.676,0,0,1-.462.189.676.676,0,0,1-.462-.189.621.621,0,0,1-.21-.483.621.621,0,0,1,.21-.483.676.676,0,0,1,.462-.189.676.676,0,0,1,.462.189A.621.621,0,0,1,139.048-9.072ZM138.838,0h-.924V-6.552h.924Zm2.9-3.36a2.511,2.511,0,0,0,.189.973,2.559,2.559,0,0,0,.518.8,2.512,2.512,0,0,0,.77.546,2.266,2.266,0,0,0,.959.2,2.558,2.558,0,0,0,.959-.182,2.543,2.543,0,0,0,.805-.511,2.229,2.229,0,0,0,.539-.791,2.547,2.547,0,0,0,.175-1.036,2.787,2.787,0,0,0-.168-.973,2.333,2.333,0,0,0-.49-.8,2.365,2.365,0,0,0-.784-.546,2.549,2.549,0,0,0-1.036-.2,2.266,2.266,0,0,0-.959.2,2.512,2.512,0,0,0-.77.546,2.559,2.559,0,0,0-.518.8A2.511,2.511,0,0,0,141.736-3.36Zm-.168,4.676a2.951,2.951,0,0,0,1.057.875,3.166,3.166,0,0,0,1.449.329,3.109,3.109,0,0,0,1.19-.2,2.062,2.062,0,0,0,.791-.553,2.129,2.129,0,0,0,.434-.819,3.654,3.654,0,0,0,.133-1V-1.232h-.028A2.523,2.523,0,0,1,145.5-.28a3.37,3.37,0,0,1-1.358.28,3.531,3.531,0,0,1-1.337-.252,3.4,3.4,0,0,1-1.085-.693A3.191,3.191,0,0,1,140.994-2a3.319,3.319,0,0,1-.266-1.33,3.479,3.479,0,0,1,.252-1.33,3.419,3.419,0,0,1,.693-1.078,3.123,3.123,0,0,1,1.05-.721,3.381,3.381,0,0,1,1.337-.259,3.719,3.719,0,0,1,.623.056,2.937,2.937,0,0,1,.658.2,3.054,3.054,0,0,1,.651.385,3.071,3.071,0,0,1,.6.623h.028V-6.552h.924v6.5a5.267,5.267,0,0,1-.133,1.134,2.8,2.8,0,0,1-.518,1.106,2.946,2.946,0,0,1-1.071.84,4.091,4.091,0,0,1-1.792.336,4.5,4.5,0,0,1-1.75-.322,4.066,4.066,0,0,1-1.4-.994Zm8.05-11.9h.924V-5.5h.028a2.155,2.155,0,0,1,.392-.49,2.581,2.581,0,0,1,.532-.385,2.9,2.9,0,0,1,.623-.252,2.434,2.434,0,0,1,.651-.091,2.391,2.391,0,0,1,1.862.665,2.73,2.73,0,0,1,.6,1.9V0h-.924V-3.626A3.073,3.073,0,0,0,153.93-5.3a1.545,1.545,0,0,0-1.4-.581,3.545,3.545,0,0,0-.392.056,1.705,1.705,0,0,0-.679.308,2.225,2.225,0,0,0-.637.756,2.907,2.907,0,0,0-.28,1.4V0h-.924ZM160.79-5.712H158.9v3.864a2.1,2.1,0,0,0,.07.6.84.84,0,0,0,.2.357.676.676,0,0,0,.3.175,1.425,1.425,0,0,0,.385.049,1.827,1.827,0,0,0,.49-.07,2.269,2.269,0,0,0,.462-.182l.042.854A2.968,2.968,0,0,1,159.6.168a2.332,2.332,0,0,1-.553-.07,1.3,1.3,0,0,1-.525-.266A1.465,1.465,0,0,1,158.13-.7a2.136,2.136,0,0,1-.154-.882v-4.13H156.59v-.84h1.386V-8.4h.924v1.848h1.89ZM165.522-5a1.713,1.713,0,0,0-.56-.644,1.483,1.483,0,0,0-.854-.238,2.163,2.163,0,0,0-.483.056,1.477,1.477,0,0,0-.441.175.973.973,0,0,0-.315.3.8.8,0,0,0-.119.448.743.743,0,0,0,.322.672,3.173,3.173,0,0,0,.966.364l.938.224a2.23,2.23,0,0,1,1.141.623,1.612,1.612,0,0,1,.455,1.169,1.838,1.838,0,0,1-.217.917,1.861,1.861,0,0,1-.574.63,2.454,2.454,0,0,1-.819.357,3.967,3.967,0,0,1-.938.112,3.449,3.449,0,0,1-1.407-.287,2.6,2.6,0,0,1-1.113-.987l.8-.546a2.2,2.2,0,0,0,.707.714,1.881,1.881,0,0,0,1.015.266,2.544,2.544,0,0,0,.56-.063,1.627,1.627,0,0,0,.5-.2,1.069,1.069,0,0,0,.35-.343.9.9,0,0,0,.133-.49.76.76,0,0,0-.364-.707,3.191,3.191,0,0,0-.882-.343l-.9-.21q-.168-.042-.455-.14a2.154,2.154,0,0,1-.56-.294,1.769,1.769,0,0,1-.469-.511,1.444,1.444,0,0,1-.2-.777,1.837,1.837,0,0,1,.2-.882,1.739,1.739,0,0,1,.546-.616,2.519,2.519,0,0,1,.777-.357,3.373,3.373,0,0,1,.9-.119,3.055,3.055,0,0,1,1.274.266,1.874,1.874,0,0,1,.91.91Zm6.482.49q0-.434-.021-.882t-.035-1.162h.91v1.218h.028a2.036,2.036,0,0,1,.28-.511,2.193,2.193,0,0,1,.441-.441,2.165,2.165,0,0,1,.6-.315,2.363,2.363,0,0,1,.777-.119,2.508,2.508,0,0,1,.686.084l-.182.91a1.554,1.554,0,0,0-.532-.07,1.9,1.9,0,0,0-.91.2,2.018,2.018,0,0,0-.63.518,2.152,2.152,0,0,0-.371.679,2.25,2.25,0,0,0-.119.7V0H172Zm9.394.728a2.1,2.1,0,0,0-.56-1.519,2.076,2.076,0,0,0-1.568-.581,2.236,2.236,0,0,0-.868.175,2.443,2.443,0,0,0-.735.469,2.352,2.352,0,0,0-.5.672,1.732,1.732,0,0,0-.189.784Zm-4.452.756a2.811,2.811,0,0,0,.238.924,2.441,2.441,0,0,0,.518.749,2.437,2.437,0,0,0,.742.5,2.264,2.264,0,0,0,.91.182,2.335,2.335,0,0,0,1.281-.343,2.563,2.563,0,0,0,.819-.791l.714.588a3.552,3.552,0,0,1-1.295,1.064,3.621,3.621,0,0,1-1.519.322A3.484,3.484,0,0,1,178-.091a3.165,3.165,0,0,1-1.071-.721,3.416,3.416,0,0,1-.707-1.092,3.574,3.574,0,0,1-.259-1.372,3.661,3.661,0,0,1,.252-1.372,3.322,3.322,0,0,1,.7-1.092,3.219,3.219,0,0,1,1.05-.721,3.259,3.259,0,0,1,1.3-.259,3.193,3.193,0,0,1,1.33.266,2.951,2.951,0,0,1,.987.707,3.026,3.026,0,0,1,.609,1.036,3.779,3.779,0,0,1,.21,1.267v.42ZM187.558-5a1.713,1.713,0,0,0-.56-.644,1.483,1.483,0,0,0-.854-.238,2.163,2.163,0,0,0-.483.056,1.477,1.477,0,0,0-.441.175.973.973,0,0,0-.315.3.8.8,0,0,0-.119.448.743.743,0,0,0,.322.672,3.173,3.173,0,0,0,.966.364l.938.224a2.23,2.23,0,0,1,1.141.623,1.612,1.612,0,0,1,.455,1.169,1.838,1.838,0,0,1-.217.917,1.861,1.861,0,0,1-.574.63A2.454,2.454,0,0,1,187,.056a3.967,3.967,0,0,1-.938.112,3.449,3.449,0,0,1-1.407-.287,2.6,2.6,0,0,1-1.113-.987l.8-.546a2.2,2.2,0,0,0,.707.714,1.881,1.881,0,0,0,1.015.266,2.544,2.544,0,0,0,.56-.063,1.627,1.627,0,0,0,.5-.2,1.069,1.069,0,0,0,.35-.343.9.9,0,0,0,.133-.49.76.76,0,0,0-.364-.707,3.191,3.191,0,0,0-.882-.343l-.9-.21q-.168-.042-.455-.14a2.154,2.154,0,0,1-.56-.294,1.769,1.769,0,0,1-.469-.511,1.444,1.444,0,0,1-.2-.777,1.837,1.837,0,0,1,.2-.882,1.739,1.739,0,0,1,.546-.616A2.519,2.519,0,0,1,185.3-6.6a3.373,3.373,0,0,1,.9-.119,3.055,3.055,0,0,1,1.274.266,1.874,1.874,0,0,1,.91.91Zm7.588,1.218a2.1,2.1,0,0,0-.56-1.519,2.076,2.076,0,0,0-1.568-.581,2.236,2.236,0,0,0-.868.175,2.443,2.443,0,0,0-.735.469,2.352,2.352,0,0,0-.5.672,1.732,1.732,0,0,0-.189.784Zm-4.452.756a2.811,2.811,0,0,0,.238.924,2.441,2.441,0,0,0,.518.749,2.437,2.437,0,0,0,.742.5,2.264,2.264,0,0,0,.91.182,2.335,2.335,0,0,0,1.281-.343,2.563,2.563,0,0,0,.819-.791l.714.588a3.552,3.552,0,0,1-1.295,1.064A3.621,3.621,0,0,1,193.1.168a3.484,3.484,0,0,1-1.351-.259,3.165,3.165,0,0,1-1.071-.721,3.416,3.416,0,0,1-.707-1.092,3.574,3.574,0,0,1-.259-1.372,3.661,3.661,0,0,1,.252-1.372,3.322,3.322,0,0,1,.7-1.092,3.219,3.219,0,0,1,1.05-.721,3.259,3.259,0,0,1,1.3-.259,3.193,3.193,0,0,1,1.33.266,2.951,2.951,0,0,1,.987.707,3.026,3.026,0,0,1,.609,1.036,3.779,3.779,0,0,1,.21,1.267v.42Zm7.238-1.484q0-.434-.021-.882t-.035-1.162h.91v1.218h.028a2.036,2.036,0,0,1,.28-.511,2.193,2.193,0,0,1,.441-.441,2.165,2.165,0,0,1,.6-.315,2.363,2.363,0,0,1,.777-.119,2.508,2.508,0,0,1,.686.084l-.182.91a1.554,1.554,0,0,0-.532-.07,1.9,1.9,0,0,0-.91.2,2.018,2.018,0,0,0-.63.518,2.152,2.152,0,0,0-.371.679,2.25,2.25,0,0,0-.119.7V0h-.924ZM205.366,0H204.33l-2.66-6.552h1.106l2.086,5.516h.028l2.086-5.516h1.05Zm8.96-3.78a2.1,2.1,0,0,0-.56-1.519A2.076,2.076,0,0,0,212.2-5.88a2.236,2.236,0,0,0-.868.175,2.443,2.443,0,0,0-.735.469,2.352,2.352,0,0,0-.5.672,1.732,1.732,0,0,0-.189.784Zm-4.452.756a2.811,2.811,0,0,0,.238.924,2.441,2.441,0,0,0,.518.749,2.437,2.437,0,0,0,.742.5,2.264,2.264,0,0,0,.91.182,2.335,2.335,0,0,0,1.281-.343,2.563,2.563,0,0,0,.819-.791l.714.588A3.552,3.552,0,0,1,213.8-.154a3.621,3.621,0,0,1-1.519.322,3.484,3.484,0,0,1-1.351-.259,3.165,3.165,0,0,1-1.071-.721,3.416,3.416,0,0,1-.707-1.092,3.574,3.574,0,0,1-.259-1.372,3.661,3.661,0,0,1,.252-1.372,3.322,3.322,0,0,1,.7-1.092,3.219,3.219,0,0,1,1.05-.721,3.259,3.259,0,0,1,1.3-.259,3.193,3.193,0,0,1,1.33.266,2.951,2.951,0,0,1,.987.707,3.026,3.026,0,0,1,.609,1.036,3.779,3.779,0,0,1,.21,1.267v.42Zm7.7-.252a2.939,2.939,0,0,0,.175,1.022,2.457,2.457,0,0,0,.5.826,2.334,2.334,0,0,0,.777.553,2.5,2.5,0,0,0,1.029.2,2.664,2.664,0,0,0,1.043-.2,2.574,2.574,0,0,0,.833-.553,2.5,2.5,0,0,0,.546-.826,2.658,2.658,0,0,0,.2-1.022,2.658,2.658,0,0,0-.2-1.022,2.5,2.5,0,0,0-.546-.826,2.574,2.574,0,0,0-.833-.553,2.664,2.664,0,0,0-1.043-.2,2.5,2.5,0,0,0-1.029.2,2.334,2.334,0,0,0-.777.553,2.457,2.457,0,0,0-.5.826A2.939,2.939,0,0,0,217.574-3.276ZM223.552,0h-.924V-1.092H222.6a2.4,2.4,0,0,1-.532.574,3.3,3.3,0,0,1-.644.392,3.081,3.081,0,0,1-.693.224,3.533,3.533,0,0,1-.679.07,3.7,3.7,0,0,1-1.407-.259,3.283,3.283,0,0,1-1.1-.721,3.3,3.3,0,0,1-.721-1.092,3.574,3.574,0,0,1-.259-1.372,3.574,3.574,0,0,1,.259-1.372,3.3,3.3,0,0,1,.721-1.092,3.283,3.283,0,0,1,1.1-.721,3.7,3.7,0,0,1,1.407-.259,3.533,3.533,0,0,1,.679.07,3.081,3.081,0,0,1,.693.224,3.3,3.3,0,0,1,.644.392,2.4,2.4,0,0,1,.532.574h.028v-5.124h.924Zm3.71-.672a.759.759,0,0,1-.21.525.7.7,0,0,1-.546.231.7.7,0,0,1-.546-.231.759.759,0,0,1-.21-.525.759.759,0,0,1,.21-.525.7.7,0,0,1,.546-.231.7.7,0,0,1,.546.231A.759.759,0,0,1,227.262-.672Z" transform="translate(60 94)" fill="#24356d"/>
  </g>
</svg>
