<?xml version="1.0" encoding="utf-8"?>
<!-- Generator: Adobe Illustrator 23.0.4, SVG Export Plug-In . SVG Version: 6.00 Build 0)  -->
<svg version="1.1" id="Layer_1" xmlns="http://www.w3.org/2000/svg" xmlns:xlink="http://www.w3.org/1999/xlink" x="0px" y="0px"
	 viewBox="0 0 297.3 94.9" style="enable-background:new 0 0 297.3 94.9;" xml:space="preserve">
<style type="text/css">
	.st0{opacity:0.297;fill:#24356D;enable-background:new    ;}
	.st1{fill:#16C79E;}
	.st2{opacity:0.51;fill:url(#Path_1608_1_);enable-background:new    ;}
	.st3{fill:#24356D;}
</style>
<g id="logo-with-support" transform="translate(10 -2.421)">
	<g>
		<path id="Path_1618" class="st0" d="M95.8,46.8h3.4c0.5,0,0.9,0,1.4,0.1c0.4,0.1,0.8,0.2,1.1,0.4c0.3,0.2,0.6,0.5,0.8,0.9
			c0.2,0.4,0.3,0.9,0.3,1.4c0,0.5-0.1,0.9-0.3,1.4c-0.2,0.3-0.4,0.6-0.7,0.9c-0.3,0.2-0.7,0.4-1.1,0.5c-0.4,0.1-0.9,0.1-1.4,0.1
			h-1.5V56h-2V46.8z M97.8,50.7h1.4c0.2,0,0.4,0,0.5-0.1c0.2,0,0.3-0.1,0.5-0.2c0.1-0.1,0.2-0.2,0.3-0.3c0.1-0.2,0.1-0.4,0.1-0.5
			c0-0.2,0-0.4-0.2-0.6c-0.1-0.1-0.3-0.3-0.4-0.3c-0.2-0.1-0.4-0.1-0.6-0.2c-0.2,0-0.4,0-0.6,0h-1V50.7z M103.5,52.8
			c0-0.5,0.1-0.9,0.3-1.4c0.2-0.4,0.4-0.8,0.7-1c0.3-0.3,0.7-0.5,1.1-0.7c0.4-0.2,0.9-0.2,1.4-0.2c0.5,0,0.9,0.1,1.4,0.2
			c0.4,0.1,0.8,0.4,1.1,0.7c0.3,0.3,0.6,0.7,0.7,1c0.2,0.4,0.3,0.9,0.3,1.4c0,0.5-0.1,0.9-0.3,1.4c-0.2,0.4-0.4,0.8-0.7,1
			c-0.3,0.3-0.7,0.5-1.1,0.7c-0.4,0.2-0.9,0.2-1.4,0.2c-0.5,0-0.9-0.1-1.4-0.2c-0.4-0.1-0.8-0.4-1.1-0.7c-0.3-0.3-0.6-0.6-0.7-1
			C103.6,53.7,103.5,53.3,103.5,52.8z M105.4,52.8c0,0.4,0.1,0.8,0.4,1.2c0.3,0.3,0.7,0.5,1.2,0.4c0.4,0,0.9-0.1,1.2-0.4
			c0.3-0.3,0.4-0.7,0.4-1.2c0-0.4-0.1-0.8-0.4-1.2c-0.3-0.3-0.7-0.5-1.2-0.4c-0.4,0-0.9,0.1-1.2,0.4C105.6,52,105.4,52.4,105.4,52.8
			z M110.9,49.6h2.1l1.3,4h0l1.1-4h2.1l1.2,4h0l1.2-4h2l-2.2,6.3h-1.9l-1.3-4.2h0l-1.2,4.2h-2L110.9,49.6z M128.5,54.9
			c-0.3,0.4-0.7,0.7-1.2,0.9c-0.5,0.2-1,0.3-1.5,0.3c-0.5,0-0.9-0.1-1.4-0.2c-0.4-0.1-0.8-0.4-1.1-0.7c-0.3-0.3-0.6-0.6-0.7-1
			c-0.2-0.4-0.3-0.9-0.3-1.4c0-0.5,0.1-0.9,0.3-1.4c0.2-0.4,0.4-0.8,0.7-1c0.3-0.3,0.7-0.5,1.1-0.7c0.4-0.2,0.9-0.2,1.4-0.2
			c0.4,0,0.8,0.1,1.2,0.2c0.4,0.1,0.7,0.4,0.9,0.7c0.3,0.3,0.5,0.7,0.6,1c0.1,0.4,0.2,0.9,0.2,1.4v0.6h-4.5c0.1,0.3,0.2,0.7,0.5,0.9
			c0.3,0.2,0.6,0.3,1,0.3c0.3,0,0.6-0.1,0.8-0.2c0.2-0.1,0.4-0.3,0.6-0.6L128.5,54.9z M126.8,52.1c0-0.3-0.1-0.6-0.3-0.8
			c-0.2-0.2-0.5-0.4-0.9-0.4c-0.2,0-0.4,0-0.6,0.1c-0.2,0.1-0.3,0.2-0.4,0.3c-0.1,0.1-0.2,0.2-0.3,0.4c-0.1,0.1-0.1,0.3-0.1,0.4
			L126.8,52.1z M129.9,49.6h1.9v1h0c0.2-0.3,0.4-0.6,0.7-0.9c0.3-0.2,0.7-0.3,1.1-0.3c0.1,0,0.2,0,0.3,0c0.1,0,0.2,0,0.3,0.1v1.8
			c-0.1,0-0.3-0.1-0.4-0.1c-0.1,0-0.3,0-0.4,0c-0.3,0-0.6,0-0.9,0.2c-0.2,0.1-0.4,0.2-0.5,0.4c-0.1,0.2-0.2,0.4-0.2,0.7
			c0,0.3-0.1,0.6-0.1,0.9V56h-1.9V49.6z M141,54.9c-0.3,0.4-0.7,0.7-1.2,0.9c-0.5,0.2-1,0.3-1.5,0.3c-0.5,0-0.9-0.1-1.4-0.2
			c-0.4-0.1-0.8-0.4-1.1-0.7c-0.3-0.3-0.6-0.6-0.7-1c-0.2-0.4-0.3-0.9-0.3-1.4c0-0.5,0.1-0.9,0.3-1.4c0.2-0.4,0.4-0.8,0.7-1
			c0.3-0.3,0.7-0.5,1.1-0.7c0.4-0.2,0.9-0.2,1.4-0.2c0.4,0,0.8,0.1,1.2,0.2c0.4,0.1,0.7,0.4,0.9,0.7c0.3,0.3,0.5,0.7,0.6,1
			c0.1,0.4,0.2,0.9,0.2,1.4v0.6h-4.5c0.1,0.3,0.2,0.7,0.5,0.9c0.3,0.2,0.6,0.3,1,0.3c0.3,0,0.6-0.1,0.8-0.2c0.2-0.1,0.4-0.3,0.6-0.6
			L141,54.9z M139.3,52.1c0-0.3-0.1-0.6-0.3-0.8c-0.2-0.2-0.5-0.4-0.9-0.4c-0.2,0-0.4,0-0.6,0.1c-0.2,0.1-0.3,0.2-0.4,0.3
			c-0.1,0.1-0.2,0.2-0.3,0.4c-0.1,0.1-0.1,0.3-0.1,0.4H139.3z M149.1,56h-1.8v-0.8h0c-0.1,0.1-0.2,0.2-0.3,0.3
			c-0.1,0.1-0.3,0.2-0.4,0.3c-0.2,0.1-0.4,0.2-0.6,0.2c-0.2,0.1-0.4,0.1-0.6,0.1c-0.4,0-0.9-0.1-1.3-0.2c-0.4-0.2-0.7-0.4-1-0.7
			c-0.3-0.3-0.5-0.6-0.6-1c-0.2-0.4-0.2-0.9-0.2-1.3c0-0.4,0.1-0.9,0.2-1.3c0.1-0.4,0.3-0.8,0.6-1.1c0.2-0.3,0.6-0.6,0.9-0.7
			c0.4-0.2,0.8-0.3,1.2-0.3c0.4,0,0.8,0.1,1.1,0.2c0.3,0.1,0.6,0.3,0.9,0.6h0v-4.2h2L149.1,56z M147.3,52.8c0-0.4-0.1-0.8-0.4-1.2
			c-0.3-0.3-0.7-0.5-1.1-0.4c-0.4,0-0.8,0.1-1.2,0.4c-0.3,0.3-0.4,0.7-0.4,1.2c0,0.4,0.1,0.8,0.4,1.2c0.3,0.3,0.7,0.5,1.2,0.4
			c0.4,0,0.8-0.1,1.1-0.4C147.2,53.6,147.3,53.2,147.3,52.8z M154.7,46.1h2v4.2h0c0.2-0.3,0.5-0.5,0.9-0.6c0.4-0.1,0.8-0.2,1.1-0.2
			c0.4,0,0.8,0.1,1.2,0.3c0.3,0.2,0.7,0.4,0.9,0.7c0.3,0.3,0.4,0.7,0.6,1.1c0.1,0.4,0.2,0.8,0.2,1.3c0,0.4-0.1,0.9-0.2,1.3
			c-0.1,0.4-0.4,0.7-0.6,1c-0.3,0.3-0.6,0.5-1,0.7c-0.4,0.2-0.8,0.2-1.3,0.2c-0.2,0-0.4,0-0.6-0.1c-0.2-0.1-0.4-0.1-0.6-0.2
			c-0.2-0.1-0.3-0.2-0.4-0.3c-0.1-0.1-0.2-0.2-0.3-0.3h0V56h-1.8V46.1z M156.5,52.8c0,0.4,0.1,0.8,0.4,1.2c0.3,0.3,0.7,0.5,1.1,0.4
			c0.4,0,0.8-0.1,1.2-0.4c0.3-0.3,0.4-0.7,0.4-1.2c0-0.4-0.1-0.8-0.4-1.2c-0.3-0.3-0.7-0.5-1.2-0.4c-0.4,0-0.8,0.1-1.1,0.4
			C156.6,52,156.5,52.4,156.5,52.8z M166.3,57c-0.1,0.3-0.3,0.6-0.4,0.9c-0.1,0.2-0.3,0.5-0.5,0.7c-0.2,0.2-0.4,0.3-0.7,0.4
			c-0.4,0.1-0.7,0.1-1.1,0.1c-0.5,0-1-0.1-1.5-0.2l0.3-1.6c0.3,0.1,0.6,0.2,0.9,0.2c0.2,0,0.4,0,0.5-0.1c0.1,0,0.2-0.1,0.3-0.2
			c0.1-0.1,0.2-0.2,0.2-0.3c0.1-0.1,0.1-0.3,0.2-0.5l0.1-0.4l-2.8-6.4h2.1l1.6,4.2h0l1.4-4.2h2L166.3,57z M174,46.8h3
			c0.7,0,1.4,0.1,2.1,0.2c0.6,0.1,1.2,0.4,1.7,0.8c0.5,0.4,0.9,0.9,1.2,1.4c0.3,0.7,0.5,1.4,0.4,2.1c0,0.7-0.1,1.4-0.4,2
			c-0.3,0.6-0.7,1-1.1,1.4c-0.5,0.4-1.1,0.7-1.7,0.9c-0.6,0.2-1.3,0.3-2,0.3H174V46.8z M176,54.1h1.1c0.4,0,0.9,0,1.3-0.1
			c0.4-0.1,0.7-0.2,1-0.5c0.3-0.2,0.5-0.5,0.7-0.9c0.2-0.4,0.3-0.9,0.3-1.3c0-0.4-0.1-0.8-0.3-1.2c-0.2-0.3-0.4-0.6-0.7-0.8
			c-0.3-0.2-0.6-0.4-1-0.5c-0.4-0.1-0.8-0.2-1.2-0.2H176V54.1z M183.7,49.6h1.9V56h-1.9V49.6z M183.5,47.7c0-0.3,0.1-0.6,0.3-0.8
			c0.2-0.2,0.5-0.3,0.8-0.3c0.3,0,0.6,0.1,0.8,0.3c0.2,0.2,0.3,0.5,0.3,0.8c0,0.3-0.1,0.6-0.3,0.8c-0.2,0.2-0.5,0.3-0.8,0.3
			c-0.3,0-0.6-0.1-0.8-0.3C183.6,48.3,183.5,48,183.5,47.7z M187,49.6h1.9v0.9h0c0.1-0.1,0.2-0.3,0.3-0.4c0.1-0.1,0.3-0.2,0.4-0.3
			c0.2-0.1,0.3-0.2,0.5-0.2c0.2-0.1,0.4-0.1,0.7-0.1c0.4,0,0.8,0.1,1.2,0.3c0.3,0.2,0.6,0.5,0.8,0.9c0.2-0.4,0.5-0.7,0.8-0.9
			c0.4-0.2,0.8-0.3,1.2-0.3c0.4,0,0.7,0.1,1.1,0.2c0.3,0.1,0.5,0.3,0.7,0.6c0.2,0.3,0.3,0.6,0.4,0.9c0.1,0.4,0.1,0.7,0.1,1.1V56h-2
			v-3.7c0-0.3-0.1-0.5-0.2-0.8c-0.1-0.2-0.4-0.3-0.7-0.3c-0.2,0-0.4,0-0.6,0.1c-0.1,0.1-0.3,0.2-0.4,0.3c-0.1,0.1-0.2,0.3-0.2,0.5
			c0,0.2-0.1,0.4-0.1,0.5V56h-2v-3.3c0-0.1,0-0.3,0-0.4c0-0.2,0-0.3-0.1-0.5c-0.1-0.1-0.1-0.3-0.3-0.4c-0.1-0.1-0.3-0.2-0.5-0.2
			c-0.2,0-0.4,0-0.6,0.1c-0.2,0.1-0.3,0.2-0.4,0.4c-0.1,0.2-0.1,0.3-0.2,0.5c0,0.2,0,0.4,0,0.6V56H187L187,49.6z M204.3,54.9
			c-0.3,0.4-0.7,0.7-1.2,0.9c-0.5,0.2-1,0.3-1.5,0.3c-0.5,0-0.9-0.1-1.4-0.2c-0.4-0.1-0.8-0.4-1.1-0.7c-0.3-0.3-0.6-0.6-0.7-1
			c-0.2-0.4-0.3-0.9-0.3-1.4c0-0.5,0.1-0.9,0.3-1.4c0.2-0.4,0.4-0.8,0.7-1c0.3-0.3,0.7-0.5,1.1-0.7c0.4-0.2,0.9-0.2,1.4-0.2
			c0.4,0,0.8,0.1,1.2,0.2c0.4,0.1,0.7,0.4,0.9,0.7c0.3,0.3,0.5,0.7,0.6,1c0.1,0.4,0.2,0.9,0.2,1.4v0.6h-4.5c0.1,0.3,0.2,0.7,0.5,0.9
			c0.3,0.2,0.6,0.3,1,0.3c0.3,0,0.6-0.1,0.8-0.2c0.2-0.1,0.4-0.3,0.6-0.6L204.3,54.9z M202.6,52.1c0-0.3-0.1-0.6-0.3-0.8
			c-0.2-0.2-0.5-0.4-0.9-0.4c-0.2,0-0.4,0-0.6,0.1c-0.2,0.1-0.3,0.2-0.4,0.3c-0.1,0.1-0.2,0.2-0.3,0.4c-0.1,0.1-0.1,0.3-0.1,0.4
			L202.6,52.1z M205.8,49.6h1.9v0.9h0c0.1-0.1,0.2-0.3,0.3-0.4c0.1-0.1,0.3-0.2,0.4-0.3c0.2-0.1,0.3-0.2,0.5-0.2
			c0.2-0.1,0.4-0.1,0.7-0.1c0.4,0,0.8,0.1,1.2,0.2c0.3,0.1,0.5,0.4,0.7,0.6c0.2,0.3,0.3,0.6,0.3,0.9c0.1,0.4,0.1,0.8,0.1,1.2V56
			h-1.9v-3.1c0-0.2,0-0.4,0-0.6c0-0.2-0.1-0.4-0.1-0.5c-0.1-0.2-0.2-0.3-0.3-0.4c-0.2-0.1-0.4-0.2-0.6-0.2c-0.2,0-0.4,0-0.6,0.1
			c-0.2,0.1-0.3,0.2-0.4,0.4c-0.1,0.2-0.1,0.3-0.2,0.5c0,0.2,0,0.4,0,0.6V56h-1.9L205.8,49.6z M216.8,51.5c-0.3-0.3-0.7-0.5-1.1-0.5
			c-0.2,0-0.3,0-0.5,0.1c-0.2,0.1-0.2,0.2-0.2,0.4c0,0.2,0.1,0.3,0.2,0.3c0.2,0.1,0.4,0.2,0.6,0.2l0.8,0.2c0.3,0.1,0.5,0.2,0.8,0.3
			c0.2,0.1,0.5,0.3,0.6,0.6c0.2,0.3,0.3,0.6,0.2,1c0,0.4-0.1,0.7-0.3,1c-0.2,0.3-0.4,0.5-0.7,0.6c-0.3,0.2-0.6,0.3-0.9,0.3
			c-0.3,0.1-0.7,0.1-1,0.1c-0.5,0-0.9-0.1-1.3-0.2c-0.4-0.1-0.8-0.3-1.1-0.7l1.2-1.3c0.2,0.2,0.4,0.4,0.6,0.5
			c0.2,0.1,0.5,0.2,0.8,0.2c0.2,0,0.4,0,0.6-0.1c0.2,0,0.3-0.2,0.3-0.4c0-0.2-0.1-0.3-0.2-0.4c-0.2-0.1-0.4-0.2-0.6-0.2l-0.8-0.2
			c-0.3-0.1-0.5-0.2-0.8-0.3c-0.2-0.1-0.5-0.3-0.6-0.6c-0.2-0.3-0.3-0.6-0.2-1c0-0.3,0.1-0.7,0.2-1c0.1-0.3,0.4-0.5,0.6-0.7
			c0.3-0.2,0.5-0.3,0.9-0.4c0.3-0.1,0.6-0.1,1-0.1c0.4,0,0.9,0.1,1.3,0.2c0.4,0.1,0.8,0.3,1.1,0.7L216.8,51.5z M219.3,49.6h1.9V56
			h-1.9V49.6z M219.1,47.7c0-0.3,0.1-0.6,0.3-0.8c0.2-0.2,0.5-0.3,0.8-0.3c0.3,0,0.6,0.1,0.8,0.3c0.2,0.2,0.3,0.5,0.3,0.8
			c0,0.3-0.1,0.6-0.3,0.8c-0.2,0.2-0.5,0.3-0.8,0.3c-0.3,0-0.6-0.1-0.8-0.3C219.2,48.3,219.1,48,219.1,47.7L219.1,47.7z M222.4,52.8
			c0-0.5,0.1-0.9,0.3-1.4c0.2-0.4,0.4-0.8,0.7-1c0.3-0.3,0.7-0.5,1.1-0.7c0.4-0.2,0.9-0.2,1.4-0.2c0.5,0,0.9,0.1,1.4,0.2
			c0.4,0.1,0.8,0.4,1.1,0.7c0.3,0.3,0.6,0.7,0.7,1c0.2,0.4,0.3,0.9,0.3,1.4c0,0.5-0.1,0.9-0.3,1.4c-0.2,0.4-0.4,0.8-0.7,1
			c-0.3,0.3-0.7,0.5-1.1,0.7c-0.4,0.2-0.9,0.2-1.4,0.2c-0.5,0-0.9-0.1-1.4-0.2c-0.4-0.1-0.8-0.4-1.1-0.7c-0.3-0.3-0.6-0.6-0.7-1
			C222.5,53.7,222.4,53.3,222.4,52.8L222.4,52.8z M224.4,52.8c0,0.4,0.1,0.8,0.4,1.2c0.3,0.3,0.7,0.5,1.1,0.4c0.4,0,0.8-0.1,1.2-0.4
			c0.3-0.3,0.4-0.7,0.4-1.2c0-0.4-0.1-0.8-0.4-1.2c-0.3-0.3-0.7-0.5-1.1-0.4c-0.4,0-0.8,0.1-1.1,0.4C224.5,52,224.3,52.4,224.4,52.8
			L224.4,52.8z M230.6,49.6h1.9v0.9h0c0.1-0.1,0.2-0.3,0.3-0.4c0.1-0.1,0.3-0.2,0.4-0.3c0.2-0.1,0.3-0.2,0.5-0.2
			c0.2-0.1,0.4-0.1,0.6-0.1c0.4,0,0.8,0.1,1.2,0.2c0.3,0.1,0.5,0.4,0.7,0.6c0.2,0.3,0.3,0.6,0.3,0.9c0.1,0.4,0.1,0.8,0.1,1.2V56h-2
			v-3.1c0-0.2,0-0.4,0-0.6c0-0.2-0.1-0.4-0.1-0.5c-0.1-0.2-0.2-0.3-0.3-0.4c-0.2-0.1-0.4-0.2-0.6-0.2c-0.2,0-0.4,0-0.6,0.1
			c-0.2,0.1-0.3,0.2-0.4,0.4c-0.1,0.2-0.1,0.3-0.2,0.5c0,0.2,0,0.4,0,0.6V56h-1.9V49.6z M241.1,48.9l-1.9,1.6l-1.1-1.3l3-2.5h1.8V56
			h-1.9V48.9z M249.4,54.1h-4v-1.6l3.8-5.7h2.1v5.7h1.2v1.6h-1.2V56h-1.9L249.4,54.1z M249.4,49.3L249.4,49.3l-2.1,3.2h2.1
			L249.4,49.3z"/>
		<g id="Group_964" transform="translate(-177.271 -251.837)">
			<g id="Group_965" transform="translate(167.271 254.258)">
				<g id="Group_964-2">
					<ellipse id="Ellipse_113" class="st1" cx="64.4" cy="14" rx="5.2" ry="5"/>
					<ellipse id="Ellipse_114" class="st1" cx="52.3" cy="25.7" rx="5.2" ry="5"/>
					<ellipse id="Ellipse_115" class="st1" cx="40" cy="37.3" rx="5.2" ry="5"/>
					<ellipse id="Ellipse_116" class="st1" cx="52.2" cy="49.3" rx="5.2" ry="5"/>
					<ellipse id="Ellipse_117" class="st1" cx="64.5" cy="37.6" rx="5.2" ry="5"/>
					<ellipse id="Ellipse_118" class="st1" cx="76.7" cy="25.9" rx="5.2" ry="5"/>
					<ellipse id="Ellipse_119" class="st1" cx="76.7" cy="49.2" rx="5.2" ry="5"/>
					<ellipse id="Ellipse_120" class="st1" cx="88.9" cy="37.5" rx="5.2" ry="5"/>
				</g>
				
					<linearGradient id="Path_1608_1_" gradientUnits="userSpaceOnUse" x1="-143.9422" y1="456.7685" x2="-143.3342" y2="457.5635" gradientTransform="matrix(47.0632 0 0 -33.6137 6817.3691 15399.8174)">
					<stop  offset="0" style="stop-color:#16C79E"/>
					<stop  offset="1" style="stop-color:#FFFFFF"/>
				</linearGradient>
				<path id="Path_1608" class="st2" d="M48.3,52.7L36.4,40.9c-2-1.9-2-5.1-0.1-7.1c0.1-0.1,0.1-0.1,0.2-0.2l12.2-11.5
					c2.1-1.9,5.3-1.9,7.4,0.1c1.9,1.9,2,5,0.1,6.9c-0.1,0.1-0.1,0.1-0.2,0.2l-6.1,5.8c-1.3,1.2-1.4,3.2-0.2,4.5c0,0,0.1,0.1,0.1,0.1
					l0,0c1.4,1.3,3.5,1.3,4.9,0L73,22.3c2.1-2,5.3-2,7.4,0c2,1.9,2,5,0.2,6.9c-0.1,0.1-0.1,0.1-0.2,0.2L56,52.8
					C53.8,54.8,50.4,54.8,48.3,52.7z"/>
			</g>
			<g id="Group_966" transform="translate(236.867 254.66)">
				<path id="Path_1609" class="st3" d="M65.3,31.3v-6.7c0-0.9-0.1-1.8-0.4-2.6c-0.3-0.8-0.7-1.6-1.3-2.2c-0.6-0.6-1.4-1.1-2.3-1.5
					c-1-0.4-2.1-0.5-3.1-0.5c-1.3,0-2.6,0.2-3.8,0.7c-0.6,0.2-1.2,0.5-1.8,0.9c-0.5,0.3-0.8,0.8-0.9,1.4c-0.1,0.6,0.1,1.2,0.4,1.6
					c0.7,0.8,1.8,0.9,2.6,0.4c0.3-0.2,0.6-0.4,0.9-0.5c0.7-0.3,1.4-0.4,2.2-0.4c0.8,0,1.6,0.2,2.3,0.7c0.5,0.4,0.8,1,0.8,1.7
					c-1.1,0-2.1,0.1-3.2,0.2c-1.2,0.1-2.5,0.3-3.6,0.7c-1.1,0.3-2,1-2.8,1.8c-0.8,0.9-1.2,2.1-1.1,3.3c0,0.9,0.2,1.8,0.6,2.6
					c0.4,0.7,0.9,1.3,1.6,1.7c0.6,0.4,1.3,0.7,2,0.9c0.7,0.2,1.4,0.3,2.1,0.3c1.2,0,2.3-0.2,3.4-0.8c0.5-0.3,0.9-0.6,1.3-0.9
					c0.3,0.8,1.1,1.3,1.9,1.3h0.2c0.6,0,1.1-0.2,1.5-0.6c0.4-0.4,0.6-0.9,0.6-1.5v-0.1C65.3,32.3,65.3,31.8,65.3,31.3z M54.9,30.7
					c-0.1-0.2-0.2-0.5-0.2-0.8c0-0.4,0.1-0.8,0.4-1c0.4-0.3,0.9-0.6,1.4-0.7c0.7-0.2,1.4-0.3,2.1-0.4c0.8-0.1,1.6-0.1,2.3-0.1h0v0.1
					c0,1-0.3,2-1,2.7c-0.7,0.7-1.7,1.1-2.7,1c-0.3,0-0.7,0-1-0.1c-0.3-0.1-0.5-0.2-0.8-0.3C55.2,31.1,55,30.9,54.9,30.7z"/>
				<path id="Path_1610" class="st3" d="M124.6,24.6c0-0.9-0.1-1.8-0.4-2.6c-0.3-0.8-0.7-1.6-1.3-2.2c-0.6-0.6-1.4-1.1-2.3-1.5
					c-1-0.4-2.1-0.5-3.1-0.5c-1.3,0-2.6,0.2-3.8,0.7c-0.6,0.2-1.2,0.5-1.8,0.9c-0.5,0.3-0.8,0.8-0.9,1.4c-0.1,0.6,0.1,1.2,0.4,1.6
					c0.7,0.8,1.8,0.9,2.6,0.4c0.3-0.2,0.6-0.4,1-0.5c0.7-0.3,1.4-0.4,2.2-0.4c0.8,0,1.6,0.2,2.3,0.7c0.5,0.4,0.8,1,0.7,1.7
					c-1.1,0-2.1,0.1-3.2,0.2c-1.2,0.1-2.5,0.3-3.6,0.7c-1.1,0.3-2,1-2.8,1.8c-0.8,0.9-1.2,2.1-1.1,3.3c0,0.9,0.2,1.8,0.6,2.6
					c0.4,0.7,0.9,1.3,1.6,1.7c0.6,0.4,1.3,0.7,2,0.9c0.7,0.2,1.4,0.3,2.1,0.3c1.2,0,2.3-0.2,3.4-0.8c0.5-0.3,0.9-0.6,1.3-0.9
					c0.3,0.8,1.1,1.3,1.9,1.3h0.2c0.6,0,1.1-0.2,1.5-0.6c0.4-0.4,0.6-1,0.6-1.6c0-0.6,0-1.1,0-1.6L124.6,24.6z M114.2,30.7
					c-0.1-0.2-0.2-0.5-0.2-0.8c0-0.4,0.1-0.8,0.4-1c0.4-0.3,0.9-0.6,1.4-0.7c0.7-0.2,1.4-0.3,2.1-0.4c0.8-0.1,1.6-0.1,2.3-0.1h0v0.1
					c0,1-0.3,2-1,2.7c-0.7,0.7-1.7,1.1-2.7,1c-0.3,0-0.7,0-1-0.1c-0.3-0.1-0.5-0.2-0.8-0.3C114.5,31.1,114.3,30.9,114.2,30.7z"/>
				<path id="Path_1611" class="st3" d="M81.9,9c-1.3,0-2.3,1-2.3,2.3v8.2c-0.4-0.3-0.8-0.6-1.2-0.8c-1.1-0.6-2.4-0.9-3.6-0.9
					c-1.2,0-2.4,0.2-3.4,0.7c-1,0.4-1.9,1.1-2.7,1.9c-0.8,0.8-1.3,1.8-1.7,2.8c-0.4,1.1-0.6,2.3-0.6,3.4c0,1.2,0.2,2.3,0.6,3.4
					c0.4,1,1,2,1.7,2.8c0.8,0.8,1.7,1.5,2.7,1.9c1.1,0.5,2.3,0.7,3.5,0.7c1.2,0,2.4-0.3,3.5-0.8c0.6-0.3,1.1-0.6,1.5-1
					c0.4,1.1,1.7,1.7,2.9,1.3c0.9-0.3,1.4-1.2,1.4-2.1V11.3C84.2,10.1,83.2,9,81.9,9z M72.1,30c-0.4-0.5-0.7-1-0.8-1.5
					c-0.4-1.2-0.4-2.5,0-3.7c0.2-0.6,0.5-1.1,0.8-1.5c0.4-0.4,0.8-0.8,1.3-1c0.6-0.3,1.2-0.4,1.9-0.4c0.6,0,1.2,0.1,1.8,0.4
					c0.5,0.3,1,0.6,1.4,1c0.4,0.5,0.7,1,0.9,1.6c0.4,1.2,0.4,2.5,0,3.7c-0.2,0.6-0.5,1.1-0.9,1.5c-0.4,0.4-0.9,0.8-1.4,1
					C75.5,31.9,73.4,31.5,72.1,30L72.1,30z"/>
				<path id="Path_1612" class="st3" d="M109.4,19.5c-0.4-0.6-1.1-0.9-1.8-0.9c-1,0-1.9,0.7-2.2,1.6l-2.5,8.5l-2.6-8
					c-0.5-1.5-2.1-2.4-3.7-1.9c-0.9,0.3-1.6,1-1.9,1.9l-2.5,7.9l-2.5-8.3c-0.3-1-1.2-1.6-2.2-1.6c-1.3,0-2.3,1-2.3,2.3
					c0,0.2,0,0.5,0.1,0.7l4,11.9c0.5,1.5,2.2,2.4,3.7,1.9c0.9-0.3,1.6-1,1.9-1.9l2.6-7.9l2.6,7.9c0.5,1.5,2.2,2.4,3.7,1.9
					c0.9-0.3,1.6-1,1.9-1.9l3.9-11.9C109.9,20.9,109.8,20.1,109.4,19.5z"/>
				<path id="Path_1613" class="st3" d="M128.1,9.1c-1.3,0-2.3,1-2.3,2.3v21.5c0,1.3,1,2.3,2.3,2.3c1.3,0,2.3-1,2.3-2.3V11.4
					C130.3,10.1,129.3,9.1,128.1,9.1z"/>
				<path id="Path_1614" class="st3" d="M46.8,9c-1.3,0-2.3,1-2.3,2.3V28c0,1.4-1.1,2.5-2.5,2.5c-0.1,0-0.2,0-0.3,0
					c-1.3-0.2-2.2-1.3-2.2-2.6v-1.2c0-1.3-1-2.3-2.3-2.3c-1.3,0-2.3,1-2.3,2.3c0,0,0,0,0,0v1.1c0,3.7,2.8,6.9,6.5,7.3
					c0.2,0,0.4,0,0.7,0c3.9,0,7.1-3.2,7.1-7.1V11.3C49.1,10,48.1,9,46.8,9z"/>
				<path id="Path_1615" class="st3" d="M152.4,24.6c0-0.9-0.1-1.8-0.4-2.6c-0.3-0.8-0.7-1.6-1.3-2.2c-0.6-0.6-1.4-1.1-2.3-1.5
					c-1-0.4-2.1-0.5-3.1-0.5c-1.3,0-2.6,0.2-3.8,0.7c-0.6,0.2-1.2,0.5-1.8,0.9c-0.5,0.3-0.8,0.8-0.9,1.4c-0.1,0.6,0.1,1.2,0.4,1.6
					c0.7,0.8,1.8,0.9,2.6,0.4c0.3-0.2,0.6-0.4,1-0.5c0.7-0.3,1.4-0.4,2.2-0.4c0.8,0,1.6,0.2,2.3,0.7c0.5,0.4,0.8,1,0.8,1.7
					c-1.1,0-2.1,0.1-3.2,0.2c-1.2,0.1-2.5,0.3-3.6,0.7c-1.1,0.3-2,1-2.8,1.8c-0.8,0.9-1.2,2.1-1.1,3.3c0,0.9,0.2,1.8,0.6,2.6
					c0.4,0.7,0.9,1.3,1.6,1.7c0.6,0.4,1.3,0.7,2,0.9c0.7,0.2,1.4,0.3,2.1,0.3c1.2,0,2.3-0.2,3.4-0.8c0.5-0.3,0.9-0.6,1.3-0.9
					c0.3,0.8,1.1,1.3,1.9,1.3h0.2c0.6,0,1.1-0.2,1.5-0.6c0.4-0.4,0.6-1,0.6-1.6c0-0.6,0-1.1,0-1.6L152.4,24.6z M142,30.7
					c-0.1-0.2-0.2-0.5-0.2-0.8c0-0.4,0.1-0.8,0.4-1c0.4-0.3,0.9-0.6,1.4-0.7c0.7-0.2,1.4-0.3,2.1-0.4c0.8-0.1,1.6-0.1,2.3-0.1h0v0.1
					c0,1-0.3,2-1,2.7c-0.7,0.7-1.7,1.1-2.7,1c-0.3,0-0.7,0-1-0.1c-0.3-0.1-0.5-0.2-0.8-0.3C142.3,31.1,142.2,30.9,142,30.7L142,30.7
					z"/>
				<ellipse id="Ellipse_121" class="st3" cx="133.8" cy="32.5" rx="2.3" ry="2.2"/>
				<ellipse id="Ellipse_122" class="st3" cx="156.1" cy="14.3" rx="2.3" ry="2.2"/>
				<path id="Path_1616" class="st3" d="M156.1,18.6c-1.3,0-2.3,1-2.3,2.3l0,12c0,1.3,1,2.3,2.3,2.3c1.3,0,2.3-1,2.3-2.3l0-12
					C158.3,19.6,157.3,18.6,156.1,18.6z"/>
			</g>
		</g>
	</g>
	<path id="Path_1617" class="st3" d="M26,79.6c0,0.6,0.1,1.2,0.3,1.7c0.2,0.5,0.5,1,0.9,1.4c0.4,0.4,0.9,0.7,1.4,0.9
		c0.5,0.2,1.1,0.4,1.7,0.3c0.6,0,1.2-0.1,1.7-0.3c0.5-0.2,1-0.5,1.4-0.9c0.4-0.4,0.7-0.9,0.9-1.4c0.2-0.6,0.3-1.2,0.3-1.8
		c0-0.6-0.1-1.2-0.3-1.8c-0.2-0.5-0.5-1-0.9-1.4c-0.4-0.4-0.9-0.7-1.4-0.9c-0.5-0.2-1.1-0.3-1.7-0.3c-0.6,0-1.2,0.1-1.7,0.3
		c-0.5,0.2-1,0.5-1.4,0.9c-0.4,0.4-0.7,0.9-0.9,1.4C26.1,78.4,26,79,26,79.6z M25.2,79.6c0-0.7,0.1-1.4,0.4-2.1
		c0.3-0.6,0.6-1.2,1.1-1.7c0.5-0.5,1-0.8,1.7-1.1c0.6-0.3,1.3-0.4,2-0.4c0.7,0,1.4,0.1,2,0.4c0.6,0.3,1.2,0.6,1.7,1.1
		c0.5,0.5,0.9,1,1.1,1.6c0.3,0.6,0.4,1.3,0.4,2.1c0,0.7-0.1,1.4-0.4,2.1c-0.3,0.6-0.7,1.2-1.1,1.7c-0.5,0.5-1,0.8-1.7,1.1
		c-0.6,0.3-1.3,0.4-2,0.4c-0.7,0-1.4-0.1-2-0.4c-0.6-0.3-1.2-0.6-1.7-1.1c-0.5-0.5-0.9-1-1.1-1.6C25.3,81,25.2,80.3,25.2,79.6z
		 M33.3,80.6c-0.1,0.6-0.5,1.2-0.9,1.6c-0.5,0.4-1.1,0.6-1.7,0.6c-0.4,0-0.9-0.1-1.3-0.2c-0.4-0.2-0.7-0.4-1-0.7
		c-0.3-0.3-0.5-0.6-0.6-1c-0.2-0.4-0.2-0.8-0.2-1.3c0-0.4,0.1-0.9,0.2-1.3c0.1-0.4,0.3-0.7,0.6-1c0.3-0.3,0.6-0.5,1-0.7
		c0.4-0.2,0.8-0.2,1.3-0.2c0.3,0,0.6,0,1,0.1c0.3,0.1,0.6,0.2,0.8,0.4c0.2,0.2,0.4,0.4,0.6,0.7c0.2,0.3,0.3,0.6,0.3,0.9h-0.8
		c-0.1-0.4-0.3-0.7-0.6-1c-0.4-0.3-0.8-0.4-1.2-0.4c-0.3,0-0.7,0.1-1,0.2c-0.3,0.1-0.5,0.3-0.7,0.5c-0.2,0.2-0.3,0.5-0.4,0.8
		c-0.1,0.3-0.2,0.6-0.2,0.9c0,0.3,0.1,0.6,0.2,0.9c0.1,0.3,0.3,0.6,0.5,0.8c0.2,0.2,0.4,0.4,0.7,0.5c0.3,0.1,0.6,0.2,0.9,0.2
		c0.4,0,0.9-0.1,1.2-0.4c0.3-0.3,0.5-0.6,0.6-1L33.3,80.6z M46.9,84.6h-6.3v-1.2l3.9-4c0.1-0.1,0.3-0.3,0.4-0.5
		c0.1-0.2,0.3-0.3,0.4-0.5c0.1-0.2,0.2-0.4,0.3-0.6c0.1-0.2,0.1-0.4,0.1-0.6c0-0.3,0-0.5-0.1-0.7c-0.1-0.2-0.2-0.4-0.4-0.5
		c-0.2-0.2-0.4-0.3-0.6-0.3c-0.2-0.1-0.5-0.1-0.7-0.1c-0.5,0-0.9,0.1-1.3,0.4c-0.4,0.3-0.6,0.7-0.7,1.1l-1.1-0.1
		c0.1-0.7,0.5-1.3,1-1.7c0.6-0.4,1.2-0.7,2-0.6c0.4,0,0.8,0.1,1.1,0.2c0.3,0.1,0.7,0.3,1,0.5c0.3,0.2,0.5,0.5,0.7,0.8
		c0.2,0.4,0.3,0.7,0.2,1.1c0,0.4-0.1,0.7-0.2,1.1c-0.1,0.3-0.3,0.6-0.5,0.9c-0.2,0.3-0.4,0.6-0.6,0.8c-0.2,0.3-0.5,0.5-0.7,0.7
		l-3.1,3.1h5.2V84.6z M51.6,75.4c-0.5,0-0.9,0.1-1.3,0.4c-0.3,0.3-0.6,0.7-0.7,1.1c-0.2,0.4-0.3,0.9-0.3,1.4c0,0.5-0.1,0.9-0.1,1.3
		s0,0.8,0.1,1.3c0,0.5,0.1,0.9,0.3,1.4c0.1,0.4,0.4,0.8,0.7,1.1c0.4,0.3,0.8,0.5,1.3,0.4c0.5,0,0.9-0.1,1.3-0.4
		c0.3-0.3,0.6-0.7,0.7-1.1c0.2-0.4,0.3-0.9,0.3-1.4c0-0.5,0.1-0.9,0.1-1.3s0-0.8-0.1-1.3c0-0.5-0.1-0.9-0.3-1.4
		c-0.1-0.4-0.4-0.8-0.7-1.1C52.5,75.5,52.1,75.4,51.6,75.4L51.6,75.4z M51.6,74.5c0.6,0,1.2,0.1,1.7,0.5c0.4,0.3,0.8,0.8,1,1.2
		c0.2,0.5,0.4,1.1,0.5,1.7c0.1,0.6,0.1,1.2,0.1,1.7c0,0.6,0,1.2-0.1,1.7c-0.1,0.6-0.2,1.1-0.5,1.7c-0.2,0.5-0.6,0.9-1,1.2
		c-0.5,0.3-1.1,0.5-1.7,0.5c-0.6,0-1.2-0.1-1.7-0.5c-0.4-0.3-0.8-0.8-1-1.2c-0.2-0.5-0.4-1.1-0.5-1.7c-0.1-0.6-0.1-1.2-0.1-1.7
		c0-0.6,0-1.2,0.1-1.7c0.1-0.6,0.2-1.1,0.5-1.7c0.2-0.5,0.6-0.9,1-1.2C50.4,74.6,51,74.5,51.6,74.5L51.6,74.5z M60.4,84.6h-1v-8.7
		l-1.8,1.6l-0.6-0.8l2.5-2.1h0.9L60.4,84.6z M69.4,77.6c0-0.3-0.1-0.6-0.2-0.9c-0.1-0.3-0.3-0.5-0.5-0.7c-0.2-0.2-0.4-0.3-0.7-0.4
		c-0.3-0.1-0.6-0.2-0.9-0.2c-0.3,0-0.6,0.1-0.9,0.2c-0.3,0.1-0.5,0.3-0.7,0.4c-0.2,0.2-0.4,0.4-0.5,0.7c-0.1,0.3-0.2,0.6-0.2,0.9
		c0,0.3,0.1,0.6,0.2,0.9c0.1,0.3,0.3,0.5,0.5,0.7c0.2,0.2,0.4,0.3,0.7,0.4c0.3,0.1,0.6,0.2,0.9,0.2c0.3,0,0.6,0,0.9-0.2
		c0.3-0.1,0.5-0.2,0.7-0.4c0.2-0.2,0.4-0.4,0.5-0.7C69.3,78.1,69.4,77.9,69.4,77.6z M68.4,80.3L68.4,80.3c-0.2,0.1-0.4,0.2-0.7,0.2
		c-0.2,0.1-0.5,0.1-0.7,0.1c-0.4,0-0.8-0.1-1.2-0.2c-0.4-0.1-0.7-0.4-1-0.6c-0.3-0.3-0.5-0.6-0.6-1c-0.2-0.4-0.2-0.8-0.2-1.2
		c0-0.4,0.1-0.9,0.2-1.2c0.2-0.4,0.4-0.7,0.7-1c0.3-0.3,0.6-0.5,1-0.6c0.4-0.2,0.8-0.2,1.3-0.2c0.4,0,0.9,0.1,1.3,0.2
		c0.4,0.1,0.7,0.4,1,0.6c0.3,0.3,0.5,0.6,0.7,1c0.2,0.4,0.2,0.8,0.2,1.2c0,0.5-0.1,1-0.2,1.4c-0.2,0.4-0.4,0.8-0.6,1.2l-2.7,4.4
		h-1.2L68.4,80.3z M76.2,82.5c0.1,0.4,0.3,0.7,0.5,1c0.3,0.3,0.7,0.4,1.1,0.4c0.3,0,0.6-0.1,0.9-0.2c0.2-0.1,0.4-0.3,0.5-0.6
		c0.1-0.2,0.2-0.5,0.3-0.8c0-0.3,0.1-0.6,0.1-0.9v-6.8h1v7.2c0,0.3,0,0.7-0.1,1c-0.1,0.3-0.2,0.7-0.5,1c-0.2,0.3-0.5,0.5-0.9,0.7
		c-0.4,0.2-0.9,0.3-1.3,0.3c-0.6,0-1.2-0.2-1.7-0.5c-0.5-0.4-0.8-0.9-0.9-1.5L76.2,82.5z M86.4,81.3c-0.2,0-0.5,0-0.9,0
		c-0.3,0-0.7,0.1-1,0.2c-0.3,0.1-0.6,0.2-0.8,0.4c-0.2,0.2-0.4,0.5-0.3,0.8c0,0.2,0,0.4,0.1,0.6c0.1,0.2,0.2,0.3,0.4,0.4
		c0.2,0.1,0.3,0.2,0.5,0.2c0.2,0,0.4,0.1,0.6,0.1c0.3,0,0.6-0.1,0.9-0.2c0.2-0.1,0.5-0.3,0.6-0.5c0.2-0.2,0.3-0.4,0.4-0.7
		c0.1-0.3,0.1-0.5,0.1-0.8v-0.5H86.4z M86.9,80.5v-0.2c0.1-0.8-0.4-1.6-1.3-1.7c-0.1,0-0.3,0-0.4,0c-0.7,0-1.5,0.3-2,0.8l-0.6-0.7
		c0.8-0.7,1.8-1,2.8-1c0.3,0,0.6,0,0.9,0.1c0.3,0.1,0.5,0.2,0.8,0.4c0.2,0.2,0.4,0.4,0.5,0.7c0.1,0.3,0.2,0.7,0.2,1v2.9
		c0,0.3,0,0.5,0,0.8c0,0.3,0,0.5,0.1,0.7H87c0-0.2,0-0.3-0.1-0.5s0-0.4,0-0.5h0c-0.2,0.4-0.6,0.7-1,0.9c-0.4,0.2-0.9,0.3-1.4,0.3
		c-0.3,0-0.6,0-0.8-0.1c-0.3-0.1-0.5-0.2-0.7-0.4c-0.2-0.2-0.4-0.4-0.5-0.6c-0.1-0.3-0.2-0.5-0.2-0.8c0-0.5,0.1-0.9,0.4-1.3
		c0.3-0.3,0.6-0.5,1-0.7c0.4-0.2,0.9-0.2,1.3-0.3c0.5,0,0.9-0.1,1.3-0.1L86.9,80.5z M90.5,81.3c0,0.3,0.1,0.7,0.2,1
		c0.1,0.3,0.3,0.6,0.5,0.8c0.2,0.2,0.5,0.4,0.8,0.6c0.3,0.1,0.7,0.2,1,0.2c0.4,0,0.7-0.1,1-0.2c0.3-0.1,0.6-0.3,0.8-0.6
		c0.2-0.2,0.4-0.5,0.5-0.8c0.1-0.3,0.2-0.7,0.2-1c0-0.4-0.1-0.7-0.2-1c-0.1-0.3-0.3-0.6-0.5-0.8c-0.2-0.2-0.5-0.4-0.8-0.6
		c-0.3-0.1-0.7-0.2-1-0.2c-0.4,0-0.7,0.1-1,0.2c-0.3,0.1-0.6,0.3-0.8,0.6c-0.2,0.2-0.4,0.5-0.5,0.8C90.6,80.6,90.5,80.9,90.5,81.3
		L90.5,81.3z M96.5,84.6h-0.9v-1.1h0c-0.1,0.2-0.3,0.4-0.5,0.6c-0.2,0.2-0.4,0.3-0.6,0.4c-0.2,0.1-0.5,0.2-0.7,0.2
		c-0.2,0-0.5,0.1-0.7,0.1c-0.5,0-1-0.1-1.4-0.3c-0.4-0.2-0.8-0.4-1.1-0.7c-0.3-0.3-0.6-0.7-0.7-1.1c-0.2-0.4-0.3-0.9-0.3-1.4
		c0-0.5,0.1-0.9,0.3-1.4c0.2-0.4,0.4-0.8,0.7-1.1c0.3-0.3,0.7-0.6,1.1-0.7c0.4-0.2,0.9-0.3,1.4-0.3c0.2,0,0.5,0,0.7,0.1
		c0.2,0,0.5,0.1,0.7,0.2c0.2,0.1,0.4,0.2,0.6,0.4c0.2,0.2,0.4,0.4,0.5,0.6h0V74h0.9V84.6z M98.8,78l1.5,5.3h0l1.8-5.3h1l1.8,5.3h0
		l1.5-5.3h1.1l-2.1,6.6h-1l-1.7-5.4h0l-1.7,5.4h-1L97.7,78H98.8z M112.4,81.3c-0.2,0-0.5,0-0.9,0c-0.3,0-0.7,0.1-1,0.2
		c-0.3,0.1-0.6,0.2-0.8,0.4c-0.2,0.2-0.4,0.5-0.3,0.8c0,0.2,0,0.4,0.1,0.6c0.1,0.2,0.2,0.3,0.4,0.4c0.2,0.1,0.3,0.2,0.5,0.2
		c0.2,0,0.4,0.1,0.6,0.1c0.3,0,0.6-0.1,0.9-0.2c0.2-0.1,0.5-0.3,0.6-0.5c0.2-0.2,0.3-0.4,0.4-0.7c0.1-0.3,0.1-0.5,0.1-0.8v-0.5
		H112.4z M112.8,80.5v-0.2c0.1-0.8-0.4-1.6-1.3-1.7c-0.1,0-0.3,0-0.4,0c-0.7,0-1.5,0.3-2,0.8l-0.6-0.7c0.8-0.7,1.8-1,2.8-1
		c0.3,0,0.6,0,0.9,0.1c0.3,0.1,0.5,0.2,0.8,0.4c0.2,0.2,0.4,0.4,0.5,0.7c0.1,0.3,0.2,0.7,0.2,1v2.9c0,0.3,0,0.5,0,0.8
		c0,0.3,0,0.5,0.1,0.7H113c0-0.2,0-0.3-0.1-0.5s0-0.4,0-0.5h0c-0.2,0.4-0.6,0.7-1,0.9c-0.4,0.2-0.9,0.3-1.4,0.3
		c-0.3,0-0.6,0-0.8-0.1c-0.3-0.1-0.5-0.2-0.7-0.4c-0.2-0.2-0.4-0.4-0.5-0.6c-0.1-0.3-0.2-0.5-0.2-0.8c0-0.5,0.1-0.9,0.4-1.3
		c0.3-0.3,0.6-0.5,1-0.7c0.4-0.2,0.9-0.2,1.3-0.3c0.5,0,0.9-0.1,1.3-0.1L112.8,80.5z M117,84.6h-0.9V74h0.9V84.6z M120.9,83.9
		c0,0.2-0.1,0.4-0.2,0.5c-0.1,0.2-0.3,0.2-0.5,0.2c-0.2,0-0.4-0.1-0.5-0.2c-0.1-0.1-0.2-0.3-0.2-0.5c0-0.2,0.1-0.4,0.2-0.5
		c0.1-0.2,0.3-0.2,0.5-0.2c0.2,0,0.4,0.1,0.5,0.2C120.9,83.5,120.9,83.7,120.9,83.9L120.9,83.9z M126.9,81.3c-0.2,0-0.5,0-0.9,0
		c-0.3,0-0.7,0.1-1,0.2c-0.3,0.1-0.6,0.2-0.8,0.4c-0.2,0.2-0.4,0.5-0.3,0.8c0,0.2,0,0.4,0.1,0.6c0.1,0.2,0.2,0.3,0.4,0.4
		c0.2,0.1,0.3,0.2,0.5,0.2c0.2,0,0.4,0.1,0.6,0.1c0.3,0,0.6-0.1,0.9-0.2c0.2-0.1,0.5-0.3,0.6-0.5c0.2-0.2,0.3-0.4,0.4-0.7
		c0.1-0.3,0.1-0.5,0.1-0.8v-0.5H126.9z M127.3,80.5v-0.2c0.1-0.8-0.4-1.6-1.3-1.7c-0.1,0-0.3,0-0.4,0c-0.7,0-1.5,0.3-2,0.8l-0.6-0.7
		c0.8-0.7,1.8-1,2.8-1c0.3,0,0.6,0,0.9,0.1c0.3,0.1,0.5,0.2,0.8,0.4c0.2,0.2,0.4,0.4,0.5,0.7c0.1,0.3,0.2,0.7,0.2,1v2.9
		c0,0.3,0,0.5,0,0.8c0,0.3,0,0.5,0.1,0.7h-0.9c0-0.2,0-0.3-0.1-0.5c0-0.2,0-0.4,0-0.5h0c-0.2,0.4-0.6,0.7-1,0.9
		c-0.4,0.2-0.9,0.3-1.4,0.3c-0.3,0-0.6,0-0.8-0.1c-0.3-0.1-0.5-0.2-0.7-0.4c-0.2-0.2-0.4-0.4-0.5-0.6c-0.1-0.3-0.2-0.5-0.2-0.8
		c0-0.5,0.1-0.9,0.4-1.3c0.3-0.3,0.6-0.5,1-0.7c0.4-0.2,0.9-0.2,1.3-0.3c0.5,0,0.9-0.1,1.3-0.1L127.3,80.5z M131.8,75.5
		c0,0.2-0.1,0.4-0.2,0.5c-0.1,0.1-0.3,0.2-0.5,0.2c-0.2,0-0.3-0.1-0.5-0.2c-0.1-0.1-0.2-0.3-0.2-0.5c0-0.2,0.1-0.4,0.2-0.5
		c0.1-0.1,0.3-0.2,0.5-0.2c0.2,0,0.3,0.1,0.5,0.2C131.7,75.1,131.8,75.3,131.8,75.5L131.8,75.5z M131.5,84.6h-0.9V78h0.9L131.5,84.6
		z M139.3,81h4.3l-2.1-5.2L139.3,81z M137.8,84.6h-1.2l4.3-9.9h1l4.3,9.9h-1.2L144,82h-5.1L137.8,84.6z M148.4,84.6h-0.9V74h0.9
		V84.6z M151.8,84.6h-0.9V74h0.9V84.6z M158,80.1c0-0.3,0-0.6,0-0.9c0-0.3,0-0.7,0-1.2h0.9v1.2h0c0.1-0.2,0.2-0.4,0.3-0.5
		c0.1-0.2,0.3-0.3,0.4-0.4c0.2-0.1,0.4-0.2,0.6-0.3c0.3-0.1,0.5-0.1,0.8-0.1c0.2,0,0.5,0,0.7,0.1l-0.2,0.9c-0.2-0.1-0.4-0.1-0.5-0.1
		c-0.3,0-0.6,0.1-0.9,0.2c-0.2,0.1-0.5,0.3-0.6,0.5c-0.2,0.2-0.3,0.4-0.4,0.7c-0.1,0.2-0.1,0.5-0.1,0.7v3.7H158L158,80.1z
		 M163.9,75.5c0,0.2-0.1,0.4-0.2,0.5c-0.1,0.1-0.3,0.2-0.5,0.2c-0.2,0-0.3-0.1-0.5-0.2c-0.1-0.1-0.2-0.3-0.2-0.5
		c0-0.2,0.1-0.4,0.2-0.5c0.1-0.1,0.3-0.2,0.5-0.2c0.2,0,0.3,0.1,0.5,0.2C163.8,75.1,163.9,75.3,163.9,75.5z M163.7,84.6h-0.9V78h0.9
		V84.6z M166.6,81.2c0,0.3,0.1,0.7,0.2,1c0.1,0.3,0.3,0.6,0.5,0.8c0.2,0.2,0.5,0.4,0.8,0.5c0.3,0.1,0.6,0.2,1,0.2
		c0.3,0,0.7-0.1,1-0.2c0.3-0.1,0.6-0.3,0.8-0.5c0.2-0.2,0.4-0.5,0.5-0.8c0.1-0.3,0.2-0.7,0.2-1c0-0.3-0.1-0.7-0.2-1
		c-0.1-0.3-0.3-0.6-0.5-0.8c-0.2-0.2-0.5-0.4-0.8-0.5c-0.3-0.1-0.7-0.2-1-0.2c-0.3,0-0.7,0.1-1,0.2c-0.3,0.1-0.6,0.3-0.8,0.5
		c-0.2,0.2-0.4,0.5-0.5,0.8C166.6,80.5,166.6,80.9,166.6,81.2L166.6,81.2z M166.4,85.9c0.3,0.4,0.6,0.7,1.1,0.9
		c0.5,0.2,0.9,0.3,1.4,0.3c0.4,0,0.8-0.1,1.2-0.2c0.3-0.1,0.6-0.3,0.8-0.6c0.2-0.2,0.4-0.5,0.4-0.8c0.1-0.3,0.1-0.7,0.1-1v-1.2h0
		c-0.3,0.4-0.6,0.7-1.1,1c-0.4,0.2-0.9,0.3-1.4,0.3c-0.5,0-0.9-0.1-1.3-0.3c-0.4-0.2-0.8-0.4-1.1-0.7c-0.3-0.3-0.6-0.7-0.7-1.1
		c-0.2-0.4-0.3-0.9-0.3-1.3c0-0.5,0.1-0.9,0.3-1.3c0.2-0.4,0.4-0.8,0.7-1.1c0.3-0.3,0.7-0.6,1.1-0.7c0.4-0.2,0.9-0.3,1.3-0.3
		c0.2,0,0.4,0,0.6,0.1c0.2,0,0.4,0.1,0.7,0.2c0.2,0.1,0.5,0.2,0.7,0.4c0.2,0.2,0.4,0.4,0.6,0.6h0V78h0.9v6.5c0,0.4,0,0.8-0.1,1.1
		c-0.1,0.4-0.3,0.8-0.5,1.1c-0.3,0.4-0.7,0.6-1.1,0.8c-0.6,0.2-1.2,0.4-1.8,0.3c-0.6,0-1.2-0.1-1.8-0.3c-0.5-0.2-1-0.6-1.4-1
		L166.4,85.9z M174.4,74h0.9v5.1h0c0.1-0.2,0.2-0.3,0.4-0.5c0.2-0.2,0.3-0.3,0.5-0.4c0.2-0.1,0.4-0.2,0.6-0.3
		c0.2-0.1,0.4-0.1,0.7-0.1c0.7-0.1,1.4,0.2,1.9,0.7c0.4,0.5,0.6,1.2,0.6,1.9v4.2h-0.9v-3.6c0-0.6-0.1-1.2-0.4-1.7
		c-0.3-0.4-0.9-0.6-1.4-0.6c-0.1,0-0.3,0-0.4,0.1c-0.2,0.1-0.5,0.2-0.7,0.3c-0.3,0.2-0.5,0.5-0.6,0.8c-0.2,0.4-0.3,0.9-0.3,1.4v3.4
		h-0.9L174.4,74z M185.6,78.9h-1.9v3.9c0,0.2,0,0.4,0.1,0.6c0,0.1,0.1,0.3,0.2,0.4c0.1,0.1,0.2,0.1,0.3,0.2c0.1,0,0.3,0.1,0.4,0
		c0.2,0,0.3,0,0.5-0.1c0.2,0,0.3-0.1,0.5-0.2l0,0.9c-0.4,0.2-0.8,0.2-1.2,0.2c-0.2,0-0.4,0-0.6-0.1c-0.2,0-0.4-0.1-0.5-0.3
		c-0.2-0.1-0.3-0.3-0.4-0.5c-0.1-0.3-0.2-0.6-0.2-0.9v-4.1h-1.4V78h1.4v-1.8h0.9V78h1.9V78.9z M190.3,79.6c-0.1-0.3-0.3-0.5-0.6-0.6
		c-0.3-0.2-0.6-0.2-0.9-0.2c-0.2,0-0.3,0-0.5,0.1c-0.2,0-0.3,0.1-0.4,0.2c-0.1,0.1-0.2,0.2-0.3,0.3c-0.1,0.1-0.1,0.3-0.1,0.4
		c0,0.3,0.1,0.5,0.3,0.7c0.3,0.2,0.6,0.3,1,0.4l0.9,0.2c0.4,0.1,0.8,0.3,1.1,0.6c0.3,0.3,0.5,0.7,0.5,1.2c0,0.3-0.1,0.6-0.2,0.9
		c-0.1,0.3-0.3,0.5-0.6,0.6c-0.2,0.2-0.5,0.3-0.8,0.4c-0.3,0.1-0.6,0.1-0.9,0.1c-0.5,0-1-0.1-1.4-0.3c-0.5-0.2-0.8-0.6-1.1-1
		l0.8-0.5c0.2,0.3,0.4,0.5,0.7,0.7c0.3,0.2,0.7,0.3,1,0.3c0.2,0,0.4,0,0.6-0.1c0.2,0,0.3-0.1,0.5-0.2c0.1-0.1,0.3-0.2,0.4-0.3
		c0.1-0.1,0.1-0.3,0.1-0.5c0-0.3-0.1-0.6-0.4-0.7c-0.3-0.2-0.6-0.3-0.9-0.3l-0.9-0.2c-0.1,0-0.3-0.1-0.5-0.1
		c-0.2-0.1-0.4-0.2-0.6-0.3c-0.2-0.1-0.3-0.3-0.5-0.5c-0.1-0.2-0.2-0.5-0.2-0.8c0-0.3,0.1-0.6,0.2-0.9c0.1-0.2,0.3-0.5,0.5-0.6
		c0.2-0.2,0.5-0.3,0.8-0.4c0.3-0.1,0.6-0.1,0.9-0.1c0.4,0,0.9,0.1,1.3,0.3c0.4,0.2,0.7,0.5,0.9,0.9L190.3,79.6z M196.8,80.1
		c0-0.3,0-0.6,0-0.9c0-0.3,0-0.7,0-1.2h0.9v1.2h0c0.1-0.2,0.2-0.4,0.3-0.5c0.1-0.2,0.3-0.3,0.4-0.4c0.2-0.1,0.4-0.2,0.6-0.3
		c0.3-0.1,0.5-0.1,0.8-0.1c0.2,0,0.5,0,0.7,0.1l-0.2,0.9c-0.2-0.1-0.4-0.1-0.5-0.1c-0.3,0-0.6,0.1-0.9,0.2c-0.2,0.1-0.5,0.3-0.6,0.5
		c-0.2,0.2-0.3,0.4-0.4,0.7c-0.1,0.2-0.1,0.5-0.1,0.7v3.7h-0.9L196.8,80.1z M206.2,80.8c0-0.6-0.2-1.1-0.6-1.5
		c-0.4-0.4-1-0.6-1.6-0.6c-0.3,0-0.6,0.1-0.9,0.2c-0.3,0.1-0.5,0.3-0.7,0.5c-0.2,0.2-0.4,0.4-0.5,0.7c-0.1,0.2-0.2,0.5-0.2,0.8
		H206.2z M201.8,81.5c0,0.3,0.1,0.6,0.2,0.9c0.1,0.3,0.3,0.5,0.5,0.7c0.2,0.2,0.5,0.4,0.7,0.5c0.3,0.1,0.6,0.2,0.9,0.2
		c0.5,0,0.9-0.1,1.3-0.3c0.3-0.2,0.6-0.5,0.8-0.8l0.7,0.6c-0.3,0.5-0.8,0.8-1.3,1.1c-0.5,0.2-1,0.3-1.5,0.3c-0.5,0-0.9-0.1-1.4-0.3
		c-0.4-0.2-0.8-0.4-1.1-0.7c-0.3-0.3-0.5-0.7-0.7-1.1c-0.2-0.4-0.3-0.9-0.3-1.4c0-0.5,0.1-0.9,0.3-1.4c0.2-0.4,0.4-0.8,0.7-1.1
		c0.3-0.3,0.7-0.6,1.1-0.7c0.4-0.2,0.9-0.3,1.3-0.3c0.5,0,0.9,0.1,1.3,0.3c0.4,0.2,0.7,0.4,1,0.7c0.3,0.3,0.5,0.7,0.6,1
		c0.1,0.4,0.2,0.8,0.2,1.3v0.4L201.8,81.5z M212.4,79.6c-0.1-0.3-0.3-0.5-0.6-0.6c-0.3-0.2-0.6-0.2-0.9-0.2c-0.2,0-0.3,0-0.5,0.1
		c-0.2,0-0.3,0.1-0.4,0.2c-0.1,0.1-0.2,0.2-0.3,0.3c-0.1,0.1-0.1,0.3-0.1,0.4c0,0.3,0.1,0.5,0.3,0.7c0.3,0.2,0.6,0.3,1,0.4l0.9,0.2
		c0.4,0.1,0.8,0.3,1.1,0.6c0.3,0.3,0.5,0.7,0.5,1.2c0,0.3-0.1,0.6-0.2,0.9c-0.1,0.3-0.3,0.5-0.6,0.6c-0.2,0.2-0.5,0.3-0.8,0.4
		c-0.3,0.1-0.6,0.1-0.9,0.1c-0.5,0-1-0.1-1.4-0.3c-0.5-0.2-0.8-0.6-1.1-1l0.8-0.5c0.2,0.3,0.4,0.5,0.7,0.7c0.3,0.2,0.7,0.3,1,0.3
		c0.2,0,0.4,0,0.6-0.1c0.2,0,0.3-0.1,0.5-0.2c0.1-0.1,0.3-0.2,0.4-0.3c0.1-0.1,0.1-0.3,0.1-0.5c0-0.3-0.1-0.6-0.4-0.7
		c-0.3-0.2-0.6-0.3-0.9-0.3l-0.9-0.2c-0.1,0-0.3-0.1-0.5-0.1c-0.2-0.1-0.4-0.2-0.6-0.3c-0.2-0.1-0.3-0.3-0.5-0.5
		c-0.1-0.2-0.2-0.5-0.2-0.8c0-0.3,0.1-0.6,0.2-0.9c0.1-0.2,0.3-0.5,0.5-0.6c0.2-0.2,0.5-0.3,0.8-0.4c0.3-0.1,0.6-0.1,0.9-0.1
		c0.4,0,0.9,0.1,1.3,0.3c0.4,0.2,0.7,0.5,0.9,0.9L212.4,79.6z M220,80.8c0-0.6-0.2-1.1-0.6-1.5c-0.4-0.4-1-0.6-1.6-0.6
		c-0.3,0-0.6,0.1-0.9,0.2c-0.3,0.1-0.5,0.3-0.7,0.5c-0.2,0.2-0.4,0.4-0.5,0.7c-0.1,0.2-0.2,0.5-0.2,0.8H220z M215.5,81.5
		c0,0.3,0.1,0.6,0.2,0.9c0.1,0.3,0.3,0.5,0.5,0.7c0.2,0.2,0.5,0.4,0.7,0.5c0.3,0.1,0.6,0.2,0.9,0.2c0.5,0,0.9-0.1,1.3-0.3
		c0.3-0.2,0.6-0.5,0.8-0.8l0.7,0.6c-0.3,0.5-0.8,0.8-1.3,1.1c-0.5,0.2-1,0.3-1.5,0.3c-0.5,0-0.9-0.1-1.4-0.3
		c-0.4-0.2-0.8-0.4-1.1-0.7c-0.3-0.3-0.5-0.7-0.7-1.1c-0.2-0.4-0.3-0.9-0.3-1.4c0-0.5,0.1-0.9,0.3-1.4c0.2-0.4,0.4-0.8,0.7-1.1
		c0.3-0.3,0.7-0.6,1.1-0.7c0.4-0.2,0.9-0.3,1.3-0.3c0.5,0,0.9,0.1,1.3,0.3c0.4,0.2,0.7,0.4,1,0.7c0.3,0.3,0.5,0.7,0.6,1
		c0.1,0.4,0.2,0.8,0.2,1.3v0.4L215.5,81.5z M222.8,80.1c0-0.3,0-0.6,0-0.9s0-0.7,0-1.2h0.9v1.2h0c0.1-0.2,0.2-0.4,0.3-0.5
		c0.1-0.2,0.3-0.3,0.4-0.4c0.2-0.1,0.4-0.2,0.6-0.3c0.3-0.1,0.5-0.1,0.8-0.1c0.2,0,0.5,0,0.7,0.1l-0.2,0.9c-0.2-0.1-0.4-0.1-0.5-0.1
		c-0.3,0-0.6,0.1-0.9,0.2c-0.2,0.1-0.5,0.3-0.6,0.5c-0.2,0.2-0.3,0.4-0.4,0.7c-0.1,0.2-0.1,0.5-0.1,0.7v3.7h-0.9L222.8,80.1z
		 M230.2,84.6h-1l-2.7-6.6h1.1l2.1,5.5h0l2.1-5.5h1.1L230.2,84.6z M239.2,80.8c0-0.6-0.2-1.1-0.6-1.5c-0.4-0.4-1-0.6-1.6-0.6
		c-0.3,0-0.6,0.1-0.9,0.2c-0.3,0.1-0.5,0.3-0.7,0.5c-0.2,0.2-0.4,0.4-0.5,0.7c-0.1,0.2-0.2,0.5-0.2,0.8H239.2z M234.7,81.5
		c0,0.3,0.1,0.6,0.2,0.9c0.1,0.3,0.3,0.5,0.5,0.7c0.2,0.2,0.5,0.4,0.7,0.5c0.3,0.1,0.6,0.2,0.9,0.2c0.5,0,0.9-0.1,1.3-0.3
		c0.3-0.2,0.6-0.5,0.8-0.8l0.7,0.6c-0.3,0.5-0.8,0.8-1.3,1.1c-0.5,0.2-1,0.3-1.5,0.3c-0.5,0-0.9-0.1-1.4-0.3
		c-0.4-0.2-0.8-0.4-1.1-0.7c-0.3-0.3-0.5-0.7-0.7-1.1c-0.2-0.4-0.3-0.9-0.3-1.4c0-0.5,0.1-0.9,0.3-1.4c0.2-0.4,0.4-0.8,0.7-1.1
		c0.3-0.3,0.7-0.6,1.1-0.7c0.4-0.2,0.9-0.3,1.3-0.3c0.5,0,0.9,0.1,1.3,0.3c0.4,0.2,0.7,0.4,1,0.7c0.3,0.3,0.5,0.7,0.6,1
		c0.1,0.4,0.2,0.8,0.2,1.3v0.4L234.7,81.5z M242.4,81.3c0,0.3,0.1,0.7,0.2,1c0.1,0.3,0.3,0.6,0.5,0.8c0.2,0.2,0.5,0.4,0.8,0.6
		c0.3,0.1,0.7,0.2,1,0.2c0.4,0,0.7-0.1,1-0.2c0.3-0.1,0.6-0.3,0.8-0.6c0.2-0.2,0.4-0.5,0.5-0.8c0.1-0.3,0.2-0.7,0.2-1
		c0-0.4-0.1-0.7-0.2-1c-0.1-0.3-0.3-0.6-0.5-0.8c-0.2-0.2-0.5-0.4-0.8-0.6c-0.3-0.1-0.7-0.2-1-0.2c-0.4,0-0.7,0.1-1,0.2
		c-0.3,0.1-0.6,0.3-0.8,0.6c-0.2,0.2-0.4,0.5-0.5,0.8C242.5,80.6,242.4,80.9,242.4,81.3z M248.4,84.6h-0.9v-1.1h0
		c-0.1,0.2-0.3,0.4-0.5,0.6c-0.2,0.2-0.4,0.3-0.6,0.4c-0.2,0.1-0.5,0.2-0.7,0.2c-0.2,0-0.5,0.1-0.7,0.1c-0.5,0-1-0.1-1.4-0.3
		c-0.4-0.2-0.8-0.4-1.1-0.7c-0.3-0.3-0.6-0.7-0.7-1.1c-0.2-0.4-0.3-0.9-0.3-1.4c0-0.5,0.1-0.9,0.3-1.4c0.2-0.4,0.4-0.8,0.7-1.1
		c0.3-0.3,0.7-0.6,1.1-0.7c0.4-0.2,0.9-0.3,1.4-0.3c0.2,0,0.5,0,0.7,0.1c0.2,0,0.5,0.1,0.7,0.2c0.2,0.1,0.4,0.2,0.6,0.4
		c0.2,0.2,0.4,0.4,0.5,0.6h0V74h0.9V84.6z M252.1,83.9c0,0.2-0.1,0.4-0.2,0.5c-0.1,0.2-0.3,0.2-0.5,0.2c-0.2,0-0.4-0.1-0.5-0.2
		c-0.1-0.1-0.2-0.3-0.2-0.5c0-0.2,0.1-0.4,0.2-0.5c0.1-0.2,0.3-0.2,0.5-0.2c0.2,0,0.4,0.1,0.5,0.2C252,83.5,252.1,83.7,252.1,83.9
		L252.1,83.9z"/>
</g>
</svg>
