<svg xmlns="http://www.w3.org/2000/svg" width="64" height="75.852" viewBox="0 0 64 75.852">
  <g id="Group_581" data-name="Group 581" transform="translate(-621 -215)">
    <g id="Group_559" data-name="Group 559" transform="translate(663.667 254.111)">
      <g id="Group_550" data-name="Group 550" transform="translate(0 4.741)">
        <path id="Path_657" data-name="Path 657" d="M657,256.741A4.742,4.742,0,0,1,661.741,252h11.852a4.742,4.742,0,0,1,4.741,4.741v16.593H657Z" transform="translate(-657 -252)" fill="#3080e8"/>
      </g>
      <g id="Group_551" data-name="Group 551" transform="translate(3.556 26.074)">
        <rect id="Rectangle_308" data-name="Rectangle 308" width="14.222" height="10.667" fill="#e3e3e3"/>
      </g>
      <g id="Group_554" data-name="Group 554" transform="translate(7.111 30.815)">
        <g id="Group_552" data-name="Group 552" transform="translate(4.741)">
          <rect id="Rectangle_309" data-name="Rectangle 309" width="2.37" height="2.37" fill="#24356d"/>
        </g>
        <g id="Group_553" data-name="Group 553">
          <rect id="Rectangle_310" data-name="Rectangle 310" width="2.37" height="2.37" fill="#24356d"/>
        </g>
      </g>
      <g id="Group_557" data-name="Group 557" transform="translate(4.741 15.407)">
        <g id="Group_555" data-name="Group 555">
          <rect id="Rectangle_311" data-name="Rectangle 311" width="11.852" height="2.37" fill="#fff"/>
        </g>
        <g id="Group_556" data-name="Group 556" transform="translate(0 4.741)">
          <rect id="Rectangle_312" data-name="Rectangle 312" width="11.852" height="2.37" fill="#fff"/>
        </g>
      </g>
      <g id="Group_558" data-name="Group 558" transform="translate(5.926)">
        <path id="Path_658" data-name="Path 658" d="M671.482,252.741h-2.37v-2.37H664.37v2.37H662v-2.37a2.371,2.371,0,0,1,2.37-2.37h4.741a2.371,2.371,0,0,1,2.37,2.37Z" transform="translate(-662 -248)" fill="#24356d"/>
      </g>
    </g>
    <g id="Group_569" data-name="Group 569" transform="translate(621 215)">
      <g id="Group_560" data-name="Group 560" transform="translate(0 10.667)">
        <path id="Path_659" data-name="Path 659" d="M642.333,240.593a4.742,4.742,0,0,1-4.741,4.741H625.741A4.742,4.742,0,0,1,621,240.593V224h21.333Z" transform="translate(-621 -224)" fill="#3080e8"/>
      </g>
      <g id="Group_561" data-name="Group 561" transform="translate(3.556)">
        <rect id="Rectangle_313" data-name="Rectangle 313" width="14.222" height="10.667" fill="#e3e3e3"/>
      </g>
      <g id="Group_564" data-name="Group 564" transform="translate(7.111 3.556)">
        <g id="Group_562" data-name="Group 562">
          <rect id="Rectangle_314" data-name="Rectangle 314" width="2.37" height="2.37" fill="#24356d"/>
        </g>
        <g id="Group_563" data-name="Group 563" transform="translate(4.741)">
          <rect id="Rectangle_315" data-name="Rectangle 315" width="2.37" height="2.37" fill="#24356d"/>
        </g>
      </g>
      <g id="Group_567" data-name="Group 567" transform="translate(4.741 14.222)">
        <g id="Group_565" data-name="Group 565" transform="translate(0 4.741)">
          <rect id="Rectangle_316" data-name="Rectangle 316" width="11.852" height="2.37" fill="#fff"/>
        </g>
        <g id="Group_566" data-name="Group 566">
          <rect id="Rectangle_317" data-name="Rectangle 317" width="11.852" height="2.37" fill="#fff"/>
        </g>
      </g>
      <g id="Group_568" data-name="Group 568" transform="translate(5.926 32)">
        <path id="Path_660" data-name="Path 660" d="M633.111,246.741H628.37a2.371,2.371,0,0,1-2.37-2.37V242h2.37v2.37h4.741V242h2.37v2.37a2.371,2.371,0,0,1-2.37,2.37Z" transform="translate(-626 -242)" fill="#24356d"/>
      </g>
    </g>
    <g id="Group_570" data-name="Group 570" transform="translate(630.482 219.741)">
      <path id="Path_661" data-name="Path 661" d="M640.852,285.37A11.854,11.854,0,0,1,629,273.518v-23.7h2.37v23.7a9.481,9.481,0,0,0,18.963,0V230.852a11.852,11.852,0,0,1,23.7,0v23.7h-2.37v-23.7a9.481,9.481,0,0,0-18.963,0v42.667a11.852,11.852,0,0,1-11.852,11.852Z" transform="translate(-629 -219)" fill="#24356d"/>
    </g>
    <g id="Group_574" data-name="Group 574" transform="translate(662.482 230.407)">
      <g id="Group_571" data-name="Group 571">
        <rect id="Rectangle_318" data-name="Rectangle 318" width="2.37" height="2.37" fill="#24356d"/>
      </g>
      <g id="Group_572" data-name="Group 572" transform="translate(0 4.741)">
        <rect id="Rectangle_319" data-name="Rectangle 319" width="2.37" height="2.37" fill="#24356d"/>
      </g>
      <g id="Group_573" data-name="Group 573" transform="translate(0 9.481)">
        <rect id="Rectangle_320" data-name="Rectangle 320" width="2.37" height="2.37" fill="#24356d"/>
      </g>
    </g>
    <g id="Group_578" data-name="Group 578" transform="translate(641.148 263.593)">
      <g id="Group_575" data-name="Group 575">
        <rect id="Rectangle_321" data-name="Rectangle 321" width="2.37" height="2.37" fill="#24356d"/>
      </g>
      <g id="Group_576" data-name="Group 576" transform="translate(0 4.741)">
        <rect id="Rectangle_322" data-name="Rectangle 322" width="2.37" height="2.37" fill="#24356d"/>
      </g>
      <g id="Group_577" data-name="Group 577" transform="translate(0 9.481)">
        <rect id="Rectangle_323" data-name="Rectangle 323" width="2.37" height="2.37" fill="#24356d"/>
      </g>
    </g>
    <g id="Group_579" data-name="Group 579" transform="translate(656.556 224.481)">
      <path id="Path_662" data-name="Path 662" d="M665.222,230.111h-2.37a4.741,4.741,0,1,0-9.482,0H651a7.111,7.111,0,1,1,14.222,0Z" transform="translate(-651 -223)" fill="#24356d"/>
    </g>
    <g id="Group_580" data-name="Group 580" transform="translate(635.222 274.259)">
      <path id="Path_663" data-name="Path 663" d="M640.111,272.111A7.118,7.118,0,0,1,633,265h2.37a4.741,4.741,0,1,0,9.482,0h2.37A7.118,7.118,0,0,1,640.111,272.111Z" transform="translate(-633 -265)" fill="#24356d"/>
    </g>
  </g>
</svg>
