<svg xmlns="http://www.w3.org/2000/svg" xmlns:xlink="http://www.w3.org/1999/xlink" width="96" height="96" viewBox="0 0 96 96">
  <defs>
    <clipPath id="clip-path">
      <circle id="Ellipse_101" data-name="Ellipse 101" cx="48" cy="48" r="48" transform="translate(398 4690)" fill="none"/>
    </clipPath>
  </defs>
  <g id="Prior" transform="translate(-398 -4690)">
    <g id="Ellipse_100" data-name="Ellipse 100" transform="translate(398 4690)" fill="#fff" stroke="#24356d" stroke-width="2">
      <circle cx="48" cy="48" r="48" stroke="none"/>
      <circle cx="48" cy="48" r="47" fill="none"/>
    </g>
    <g id="Mask_Group_19" data-name="Mask Group 19" clip-path="url(#clip-path)">
      <g id="Group_893" data-name="Group 893" transform="translate(-594.297 4192.277)">
        <g id="Group_877" data-name="Group 877" transform="translate(1015.826 578.482)">
          <path id="Path_1389" data-name="Path 1389" d="M1075.453,632.77h-49.9v-1.323a7.713,7.713,0,0,1,7.7-7.7h1.6a7.285,7.285,0,0,1,7.219-6.383h17.112a7.286,7.286,0,0,1,7.22,6.383h1.346a7.713,7.713,0,0,1,7.7,7.7Zm-48.1-1.784h46.3a5.928,5.928,0,0,0-5.9-5.458h-3.076v-.892a5.5,5.5,0,0,0-5.49-5.49h-17.112a5.5,5.5,0,0,0-5.49,5.49v.892h-3.326A5.928,5.928,0,0,0,1027.352,630.985Z" transform="translate(-1025.55 -617.36)" fill="#24356d"/>
        </g>
        <g id="Group_878" data-name="Group 878" transform="translate(1011.55 550.219)">
          <path id="Path_1390" data-name="Path 1390" d="M1027.466,569.843a12.012,12.012,0,0,1-9.105,11.648,11.976,11.976,0,0,0,14.932-11.648Z" transform="translate(-1018.361 -569.843)" fill="#16c79e"/>
        </g>
        <g id="Group_879" data-name="Group 879" transform="translate(1064.177 550.219)">
          <path id="Path_1391" data-name="Path 1391" d="M1115.946,569.843a12.012,12.012,0,0,1-9.105,11.648,11.976,11.976,0,0,0,14.933-11.648Z" transform="translate(-1106.841 -569.843)" fill="#16c79e"/>
        </g>
        <g id="Group_880" data-name="Group 880" transform="translate(1039.886 533.652)">
          <path id="Path_1392" data-name="Path 1392" d="M1066.892,588.6a.892.892,0,0,1-.892-.892v-44.83a.892.892,0,1,1,1.784,0v44.83A.892.892,0,0,1,1066.892,588.6Z" transform="translate(-1066 -541.99)" fill="#24356d"/>
        </g>
        <g id="Group_881" data-name="Group 881" transform="translate(1036.122 526.126)">
          <path id="Path_1393" data-name="Path 1393" d="M1064.328,538.648a4.656,4.656,0,1,1,4.656-4.656A4.661,4.661,0,0,1,1064.328,538.648Zm0-7.527a2.871,2.871,0,1,0,2.871,2.871A2.874,2.874,0,0,0,1064.328,531.12Z" transform="translate(-1059.673 -529.336)" fill="#24356d"/>
        </g>
        <g id="Group_882" data-name="Group 882" transform="translate(1001.553 549.327)">
          <path id="Path_1394" data-name="Path 1394" d="M1014.464,582.146a12.925,12.925,0,0,1-12.911-12.91v-.892h25.822v.892A12.925,12.925,0,0,1,1014.464,582.146Zm-11.092-12.018a11.127,11.127,0,0,0,22.182,0Z" transform="translate(-1001.553 -568.343)" fill="#24356d"/>
        </g>
        <g id="Group_885" data-name="Group 885" transform="translate(1006.507 532.074)">
          <g id="Group_883" data-name="Group 883" transform="translate(0 0)">
            <path id="Path_1395" data-name="Path 1395" d="M1010.773,551.263a.892.892,0,0,1-.732-1.4l7.065-10.142a.892.892,0,1,1,1.464,1.02l-7.065,10.142A.89.89,0,0,1,1010.773,551.263Z" transform="translate(-1009.882 -539.337)" fill="#24356d"/>
          </g>
          <g id="Group_884" data-name="Group 884" transform="translate(7.065 0.001)">
            <path id="Path_1396" data-name="Path 1396" d="M1029.718,551.264a.891.891,0,0,1-.733-.382l-7.065-10.142a.892.892,0,1,1,1.464-1.02l7.065,10.142a.892.892,0,0,1-.731,1.4Z" transform="translate(-1021.76 -539.338)" fill="#24356d"/>
          </g>
        </g>
        <g id="Group_886" data-name="Group 886" transform="translate(1013.572 529.889)">
          <path id="Path_1397" data-name="Path 1397" d="M1022.651,539.633a.892.892,0,0,1-.085-1.78l22.55-2.185a.892.892,0,0,1,.172,1.776l-22.55,2.186C1022.709,539.632,1022.68,539.633,1022.651,539.633Z" transform="translate(-1021.76 -535.664)" fill="#24356d"/>
        </g>
        <g id="Group_887" data-name="Group 887" transform="translate(1054.18 549.327)">
          <path id="Path_1398" data-name="Path 1398" d="M1102.944,582.146a12.925,12.925,0,0,1-12.911-12.91v-.892h25.823v.892A12.925,12.925,0,0,1,1102.944,582.146Zm-11.091-12.018a11.127,11.127,0,0,0,22.183,0Z" transform="translate(-1090.033 -568.343)" fill="#24356d"/>
        </g>
        <g id="Group_890" data-name="Group 890" transform="translate(1059.134 532.074)">
          <g id="Group_888" data-name="Group 888" transform="translate(7.066 0.001)">
            <path id="Path_1399" data-name="Path 1399" d="M1118.2,551.264a.891.891,0,0,1-.732-.382L1110.4,540.74a.892.892,0,1,1,1.464-1.02l7.065,10.142a.892.892,0,0,1-.731,1.4Z" transform="translate(-1110.24 -539.338)" fill="#24356d"/>
          </g>
          <g id="Group_889" data-name="Group 889" transform="translate(0 0)">
            <path id="Path_1400" data-name="Path 1400" d="M1099.252,551.263a.892.892,0,0,1-.731-1.4l7.066-10.142a.892.892,0,1,1,1.464,1.02l-7.066,10.142A.891.891,0,0,1,1099.252,551.263Z" transform="translate(-1098.361 -539.337)" fill="#24356d"/>
          </g>
        </g>
        <g id="Group_891" data-name="Group 891" transform="translate(1043.649 529.889)">
          <path id="Path_1401" data-name="Path 1401" d="M1095.771,539.633c-.029,0-.058,0-.087,0l-22.55-2.186a.892.892,0,1,1,.172-1.776l22.551,2.185a.892.892,0,0,1-.085,1.78Z" transform="translate(-1072.327 -535.664)" fill="#24356d"/>
        </g>
        <g id="Group_892" data-name="Group 892" transform="translate(1033.889 521.413)">
          <path id="Path_1402" data-name="Path 1402" d="M1068.8,525.677a.89.89,0,0,1-.631-.261,7.6,7.6,0,0,0-10.731,0,.892.892,0,0,1-1.261-1.262,9.308,9.308,0,0,1,6.627-2.741h0a9.309,9.309,0,0,1,6.627,2.741.892.892,0,0,1-.631,1.523Z" transform="translate(-1055.918 -521.413)" fill="#24356d"/>
        </g>
      </g>
    </g>
  </g>
</svg>
