<svg xmlns="http://www.w3.org/2000/svg" width="110.83" height="110" viewBox="0 0 110.83 110">
  <g id="icon" transform="translate(-1001.258 -889.012)">
    <g id="Group_768" data-name="Group 768" transform="translate(1036.009 910.418)">
      <path id="Path_1306" data-name="Path 1306" d="M1063.157,914.412l4.738,9.6a7.081,7.081,0,0,0,5.332,3.874l10.594,1.54h0l-7.666,7.473a7.081,7.081,0,0,0-2.036,6.268l1.809,10.551-9.476-4.981a7.082,7.082,0,0,0-6.591,0l-9.475,4.981,1.809-10.551a7.079,7.079,0,0,0-2.037-6.268l-7.666-7.473h0l10.594-1.54a7.081,7.081,0,0,0,5.332-3.874Z" transform="translate(-1042.493 -914.412)" fill="#16c79e"/>
    </g>
    <g id="Group_769" data-name="Group 769" transform="translate(1015.519 889.012)">
      <path id="Path_1307" data-name="Path 1307" d="M1059.334,971.32a41.154,41.154,0,1,1,41.154-41.155A41.2,41.2,0,0,1,1059.334,971.32Zm0-79.78a38.626,38.626,0,1,0,38.625,38.625A38.669,38.669,0,0,0,1059.334,891.54Z" transform="translate(-1018.18 -889.012)" fill="#24356d"/>
    </g>
    <g id="Group_770" data-name="Group 770" transform="translate(1024.28 897.774)">
      <path id="Path_1308" data-name="Path 1308" d="M1092.1,933.065a1.265,1.265,0,0,1-1.264-1.264,29.864,29.864,0,0,0-59.728,0,1.264,1.264,0,1,1-2.528,0,32.392,32.392,0,0,1,64.784,0A1.265,1.265,0,0,1,1092.1,933.065Z" transform="translate(-1028.576 -899.409)" fill="#344154"/>
    </g>
    <g id="Group_771" data-name="Group 771" transform="translate(1065.722 956.37)">
      <path id="Path_1309" data-name="Path 1309" d="M1099.092,1011.581l-21.1-29.423a1.264,1.264,0,1,1,2.055-1.473l17.548,24.465,2.954-17.9,17.837,2.943-14.212-19.238a1.264,1.264,0,1,1,2.033-1.5l17.914,24.25-21.489-3.545Z" transform="translate(-1077.751 -968.938)" fill="#24356d"/>
    </g>
    <g id="Group_772" data-name="Group 772" transform="translate(1001.258 956.37)">
      <path id="Path_1310" data-name="Path 1310" d="M1026.282,1011.581l-3.535-21.425-21.489,3.545,17.914-24.25a1.264,1.264,0,1,1,2.033,1.5l-14.212,19.238,17.837-2.943,2.953,17.9,17.549-24.465a1.264,1.264,0,1,1,2.054,1.473Z" transform="translate(-1001.258 -968.938)" fill="#24356d"/>
    </g>
  </g>
</svg>
