<svg xmlns="http://www.w3.org/2000/svg" xmlns:xlink="http://www.w3.org/1999/xlink" width="96" height="96" viewBox="0 0 96 96">
  <defs>
    <clipPath id="clip-path">
      <circle id="Ellipse_98" data-name="Ellipse 98" cx="48" cy="48" r="48" transform="translate(834 4495)" fill="none"/>
    </clipPath>
  </defs>
  <g id="Group_874" data-name="Group 874" transform="translate(-834 -4495)">
    <g id="Ellipse_95" data-name="Ellipse 95" transform="translate(834 4495)" fill="#fff" stroke="#24356d" stroke-width="2">
      <circle cx="48" cy="48" r="48" stroke="none"/>
      <circle cx="48" cy="48" r="47" fill="none"/>
    </g>
    <g id="Mask_Group_17" data-name="Mask Group 17" clip-path="url(#clip-path)">
      <g id="Group_862" data-name="Group 862" transform="translate(762.289 3070.007)">
        <g id="Group_849" data-name="Group 849" transform="translate(103.431 1493.585)">
          <path id="Path_1371" data-name="Path 1371" d="M141.807,1526.822a2.393,2.393,0,0,1-.613-.282l-.129-.029-10.072,10.669-6.722-7.134-3.4-3.53-.064.014a2.343,2.343,0,0,1-.616.283l-6.435,1.866,17.237,17.6,17.251-17.586Z" transform="translate(-113.753 -1526.511)" fill="#16c79e"/>
        </g>
        <g id="Group_850" data-name="Group 850" transform="translate(104.767 1460.989)">
          <path id="Path_1372" data-name="Path 1372" d="M131.735,1478.428a38.347,38.347,0,0,1-15.277-3.057.924.924,0,0,1,.776-1.678,37.868,37.868,0,0,0,29,0,.924.924,0,0,1,.776,1.678A38.342,38.342,0,0,1,131.735,1478.428Z" transform="translate(-115.922 -1473.607)" fill="#24356d"/>
        </g>
        <g id="Group_851" data-name="Group 851" transform="translate(86.867 1466.475)">
          <path id="Path_1373" data-name="Path 1373" d="M152.928,1537.03h0l-64.52-.025a1.531,1.531,0,0,1-1.5-1.861l2.557-12.779a13.522,13.522,0,0,1,4.648-7.761,11.212,11.212,0,0,1,4.664-2.424l10.837-3.144a1.471,1.471,0,0,0,.407-.191,1.451,1.451,0,0,0,.632-1.039l.444-3.819a19.75,19.75,0,0,1-6.171-9.68c-2.108-.582-3.626-2.979-3.625-5.886,0-2.858,1.478-5.274,3.59-5.875a.924.924,0,1,1,.506,1.778c-1.3.371-2.247,2.094-2.249,4.1,0,2.2,1.14,4.031,2.6,4.164l.644.06.164.626a17.875,17.875,0,0,0,6.085,9.587l.41.32-.562,4.842a3.3,3.3,0,0,1-1.437,2.359,3.261,3.261,0,0,1-.925.433l-10.9,3.159a9.472,9.472,0,0,0-3.943,2.06,11.671,11.671,0,0,0-4.012,6.7l-2.488,12.431,63.761.025-2.478-12.432a11.661,11.661,0,0,0-4.007-6.7,9.4,9.4,0,0,0-3.881-2.047l-10.953-3.182a3.3,3.3,0,0,1-2.36-2.793l-.556-4.843.41-.319a17.869,17.869,0,0,0,6.091-9.582l.165-.625.644-.059c1.459-.132,2.6-1.961,2.6-4.162,0-2-.944-3.728-2.246-4.1a.924.924,0,1,1,.508-1.778c2.113.6,3.587,3.02,3.586,5.878,0,2.907-1.522,5.3-3.631,5.884a19.751,19.751,0,0,1-6.177,9.675l.439,3.819a1.45,1.45,0,0,0,1.039,1.229l10.9,3.168a11.146,11.146,0,0,1,4.6,2.412,13.515,13.515,0,0,1,4.643,7.766l2.552,12.8a1.524,1.524,0,0,1-.315,1.275A1.556,1.556,0,0,1,152.928,1537.03Zm-.307-1.471,0,.018Zm-63.909-.042,0,.012Zm64.212-.335h0Z" transform="translate(-86.867 -1482.511)" fill="#24356d"/>
        </g>
        <g id="Group_852" data-name="Group 852" transform="translate(104.208 1460.99)">
          <path id="Path_1374" data-name="Path 1374" d="M115.946,1480.942a.924.924,0,0,1-.923-.882,24.8,24.8,0,0,1,.567-5.719.924.924,0,0,1,1.808.386,23.37,23.37,0,0,0-.528,5.251.925.925,0,0,1-.883.964Z" transform="translate(-115.015 -1473.609)" fill="#24356d"/>
        </g>
        <g id="Group_853" data-name="Group 853" transform="translate(134.55 1460.993)">
          <path id="Path_1375" data-name="Path 1375" d="M165.7,1480.927h-.047a.924.924,0,0,1-.877-.968,23.272,23.272,0,0,0-.495-5.232.924.924,0,1,1,1.809-.375,24.645,24.645,0,0,1,.531,5.7A.923.923,0,0,1,165.7,1480.927Z" transform="translate(-164.264 -1473.614)" fill="#24356d"/>
        </g>
        <g id="Group_854" data-name="Group 854" transform="translate(109.608 1492.652)">
          <path id="Path_1376" data-name="Path 1376" d="M134.765,1537.283a.92.92,0,0,1-.665-.283l-10.061-10.438a.924.924,0,1,1,1.331-1.283l10.061,10.438a.924.924,0,0,1-.665,1.566Z" transform="translate(-123.78 -1524.996)" fill="#24356d"/>
        </g>
        <g id="Group_855" data-name="Group 855" transform="translate(119.67 1492.659)">
          <path id="Path_1377" data-name="Path 1377" d="M141.035,1537.288a.924.924,0,0,1-.665-1.566l10.069-10.431a.924.924,0,0,1,1.33,1.284l-10.07,10.431A.92.92,0,0,1,141.035,1537.288Z" transform="translate(-140.112 -1525.009)" fill="#24356d"/>
        </g>
        <g id="Group_856" data-name="Group 856" transform="translate(134.551 1451.037)">
          <rect id="Rectangle_431" data-name="Rectangle 431" width="1.848" height="11.812" rx="0.924" fill="#24356d"/>
        </g>
        <g id="Group_857" data-name="Group 857" transform="translate(104.767 1451.033)">
          <rect id="Rectangle_432" data-name="Rectangle 432" width="1.848" height="11.805" rx="0.924" transform="translate(0 0)" fill="#24356d"/>
        </g>
        <g id="Group_858" data-name="Group 858" transform="translate(94.873 1440.736)">
          <path id="Path_1378" data-name="Path 1378" d="M125.574,1456.674a.921.921,0,0,1-.286-.046l-24.77-7.487a.924.924,0,0,1,.031-1.778l24.9-6.6a.937.937,0,0,1,.476,0l24.68,6.616a.925.925,0,0,1,.028,1.778l-24.75,7.461A.94.94,0,0,1,125.574,1456.674Zm-21.4-8.359,21.4,6.469,21.416-6.455-21.306-5.712Z" transform="translate(-99.862 -1440.736)" fill="#24356d"/>
        </g>
        <g id="Group_859" data-name="Group 859" transform="translate(144.446 1451.21)">
          <rect id="Rectangle_433" data-name="Rectangle 433" width="1.848" height="10.507" rx="0.924" fill="#24356d"/>
        </g>
        <g id="Group_860" data-name="Group 860" transform="translate(131.743 1509.966)">
          <path id="Path_1379" data-name="Path 1379" d="M170.136,1554.95h0l-9.5,0a.924.924,0,0,1,0-1.848h0l9.5,0a.924.924,0,0,1,0,1.848Z" transform="translate(-159.708 -1553.098)" fill="#24356d"/>
        </g>
        <g id="Group_861" data-name="Group 861" transform="translate(142.284 1462.524)">
          <path id="Path_1380" data-name="Path 1380" d="M179.91,1478.846a3.961,3.961,0,0,1-2.821-1.169.924.924,0,0,1,1.307-1.307,2.192,2.192,0,0,0,3.027,0,.924.924,0,0,1,1.308,1.307A3.963,3.963,0,0,1,179.91,1478.846Z" transform="translate(-176.818 -1476.099)" fill="#24356d"/>
        </g>
      </g>
    </g>
  </g>
</svg>
