<svg xmlns="http://www.w3.org/2000/svg" xmlns:xlink="http://www.w3.org/1999/xlink" width="96" height="96" viewBox="0 0 96 96">
  <defs>
    <clipPath id="clip-path">
      <circle id="Ellipse_103" data-name="Ellipse 103" cx="48" cy="48" r="48" transform="translate(814 4747)" fill="none"/>
    </clipPath>
  </defs>
  <g id="util" transform="translate(-814 -4747)">
    <g id="Ellipse_102" data-name="Ellipse 102" transform="translate(814 4747)" fill="#fff" stroke="#24356d" stroke-width="2">
      <circle cx="48" cy="48" r="48" stroke="none"/>
      <circle cx="48" cy="48" r="47" fill="none"/>
    </g>
    <g id="Mask_Group_20" data-name="Mask Group 20" clip-path="url(#clip-path)">
      <g id="Group_920" data-name="Group 920" transform="translate(-175.171 3327.849)">
        <g id="Group_895" data-name="Group 895" transform="translate(998.739 1476.677)">
          <g id="Group_894" data-name="Group 894" transform="translate(0 0)">
            <path id="Path_1403" data-name="Path 1403" d="M1017.786,1510.941h-16.87a2.18,2.18,0,0,1-2.178-2.177v-8.81a2.181,2.181,0,0,1,2.178-2.177h16.87a2.18,2.18,0,0,1,2.178,2.177v8.81A2.18,2.18,0,0,1,1017.786,1510.941Zm-16.87-11.479a.493.493,0,0,0-.492.492v8.81a.492.492,0,0,0,.492.492h16.87a.492.492,0,0,0,.492-.492v-8.81a.493.493,0,0,0-.492-.492Z" transform="translate(-998.739 -1497.776)" fill="#24356d"/>
          </g>
        </g>
        <g id="Group_897" data-name="Group 897" transform="translate(1027.429 1476.677)">
          <g id="Group_896" data-name="Group 896" transform="translate(0 0)">
            <path id="Path_1404" data-name="Path 1404" d="M1067.714,1510.941h-15.746a2.18,2.18,0,0,1-2.178-2.177v-8.81a2.18,2.18,0,0,1,2.178-2.177h15.746a2.181,2.181,0,0,1,2.178,2.177v8.81A2.18,2.18,0,0,1,1067.714,1510.941Zm-15.746-11.479a.493.493,0,0,0-.492.492v8.81a.492.492,0,0,0,.492.492h15.746a.492.492,0,0,0,.492-.492v-8.81a.493.493,0,0,0-.492-.492Z" transform="translate(-1049.791 -1497.776)" fill="#24356d"/>
          </g>
        </g>
        <g id="Group_899" data-name="Group 899" transform="translate(1027.429 1503.744)">
          <g id="Group_898" data-name="Group 898" transform="translate(0)">
            <path id="Path_1405" data-name="Path 1405" d="M1067.714,1559.106h-15.746a2.18,2.18,0,0,1-2.178-2.177v-8.81a2.18,2.18,0,0,1,2.178-2.178h15.746a2.181,2.181,0,0,1,2.178,2.178v8.81A2.18,2.18,0,0,1,1067.714,1559.106Zm-15.746-11.48a.493.493,0,0,0-.492.492v8.81a.492.492,0,0,0,.492.492h15.746a.492.492,0,0,0,.492-.492v-8.81a.493.493,0,0,0-.492-.492Z" transform="translate(-1049.791 -1545.941)" fill="#24356d"/>
          </g>
        </g>
        <g id="Group_901" data-name="Group 901" transform="translate(1027.429 1449.61)">
          <g id="Group_900" data-name="Group 900" transform="translate(0)">
            <path id="Path_1406" data-name="Path 1406" d="M1067.714,1462.776h-15.746a2.18,2.18,0,0,1-2.178-2.178v-8.81a2.18,2.18,0,0,1,2.178-2.178h15.746a2.181,2.181,0,0,1,2.178,2.178v8.81A2.18,2.18,0,0,1,1067.714,1462.776Zm-15.746-11.48a.493.493,0,0,0-.492.492v8.81a.492.492,0,0,0,.492.492h15.746a.492.492,0,0,0,.492-.492v-8.81a.493.493,0,0,0-.492-.492Z" transform="translate(-1049.791 -1449.61)" fill="#24356d"/>
          </g>
        </g>
        <g id="Group_903" data-name="Group 903" transform="translate(1054.994 1476.677)">
          <g id="Group_902" data-name="Group 902" transform="translate(0 0)">
            <path id="Path_1407" data-name="Path 1407" d="M1117.89,1510.941h-16.869a2.18,2.18,0,0,1-2.178-2.177v-8.81a2.18,2.18,0,0,1,2.178-2.177h16.869a2.18,2.18,0,0,1,2.178,2.177v8.81A2.18,2.18,0,0,1,1117.89,1510.941Zm-16.869-11.479a.492.492,0,0,0-.492.492v8.81a.492.492,0,0,0,.492.492h16.869a.492.492,0,0,0,.492-.492v-8.81a.492.492,0,0,0-.492-.492Z" transform="translate(-1098.843 -1497.776)" fill="#24356d"/>
          </g>
        </g>
        <g id="Group_906" data-name="Group 906" transform="translate(1037.479 1496.793)">
          <g id="Group_905" data-name="Group 905">
            <g id="Group_904" data-name="Group 904">
              <path id="Path_1408" data-name="Path 1408" d="M1067.675,1533.572" transform="translate(-1067.675 -1533.572)" fill="none" stroke="#344154" stroke-miterlimit="10" stroke-width="3"/>
            </g>
          </g>
        </g>
        <g id="Group_911" data-name="Group 911" transform="translate(1007.946 1461.933)">
          <g id="Group_908" data-name="Group 908" transform="translate(0 0)">
            <g id="Group_907" data-name="Group 907">
              <path id="Path_1409" data-name="Path 1409" d="M1016.809,1487.126h-1.686v-5.262a3.379,3.379,0,0,1,3.375-3.375h25.315v-6.95h1.686v8.636h-27a1.692,1.692,0,0,0-1.689,1.689Z" transform="translate(-1015.123 -1471.538)" fill="#24356d"/>
            </g>
          </g>
          <g id="Group_910" data-name="Group 910" transform="translate(29.533 6.95)">
            <g id="Group_909" data-name="Group 909">
              <path id="Path_1410" data-name="Path 1410" d="M1097.208,1492.543h-1.686v-5.262a1.692,1.692,0,0,0-1.689-1.689h-26.157v-1.686h26.157a3.38,3.38,0,0,1,3.375,3.375Z" transform="translate(-1067.675 -1483.906)" fill="#24356d"/>
            </g>
          </g>
        </g>
        <g id="Group_913" data-name="Group 913" transform="translate(1036.636 1469.726)">
          <g id="Group_912" data-name="Group 912" transform="translate(0)">
            <rect id="Rectangle_436" data-name="Rectangle 436" width="1.686" height="7.794" fill="#344154"/>
          </g>
        </g>
        <g id="Group_915" data-name="Group 915" transform="translate(1036.636 1489)">
          <g id="Group_914" data-name="Group 914" transform="translate(0)">
            <rect id="Rectangle_437" data-name="Rectangle 437" width="1.686" height="15.588" fill="#24356d"/>
          </g>
        </g>
        <g id="Group_917" data-name="Group 917" transform="translate(1058.895 1480.577)">
          <g id="Group_916" data-name="Group 916" transform="translate(0 0)">
            <path id="Path_1411" data-name="Path 1411" d="M1105.783,1508.518v1.563h13.424v-5.365S1115.822,1508.518,1105.783,1508.518Z" transform="translate(-1105.783 -1504.716)" fill="#16c79e"/>
          </g>
        </g>
        <g id="Group_919" data-name="Group 919" transform="translate(1002.64 1480.577)">
          <g id="Group_918" data-name="Group 918" transform="translate(0 0)">
            <path id="Path_1412" data-name="Path 1412" d="M1005.68,1508.518v1.563H1019.1v-5.365S1015.719,1508.518,1005.68,1508.518Z" transform="translate(-1005.68 -1504.716)" fill="#16c79e"/>
          </g>
        </g>
      </g>
    </g>
  </g>
</svg>
